<svg xmlns="http://www.w3.org/2000/svg" xmlns:xlink="http://www.w3.org/1999/xlink" viewBox="0 0 1920 1920"><defs><style>.cls-1{isolation:isolate;}.cls-2{fill:url(#Degradado_sin_nombre_1214);}.cls-3,.cls-4,.cls-5,.cls-6{fill:#fff9ea;}.cls-3{opacity:0.07;}.cls-4{opacity:0.14;}.cls-16,.cls-5{opacity:0.2;}.cls-6{opacity:0.32;}.cls-7{fill:#ffe8a7;}.cls-8{fill:#f6cd80;}.cls-9{fill:#f5d999;}.cls-10{opacity:0.73;}.cls-10,.cls-13{mix-blend-mode:multiply;}.cls-11{fill:#d6edfc;}.cls-12,.cls-13{fill:#fdd477;}.cls-13{opacity:0.57;}.cls-14{fill:#f7ae0f;}.cls-15{fill:#fddd92;}.cls-16,.cls-17,.cls-18{fill:#ffe69f;}.cls-17{opacity:0.3;}.cls-19{fill:#bbbdd7;}.cls-20{fill:#ded7eb;}</style><linearGradient id="Degradado_sin_nombre_1214" x1="960" y1="1920" x2="960" gradientUnits="userSpaceOnUse"><stop offset="0" stop-color="#4da6fb"/><stop offset="0.1" stop-color="#66b6f5"/><stop offset="0.23" stop-color="#8fceed"/><stop offset="0.28" stop-color="#ace0e6"/><stop offset="0.34" stop-color="#c5efe0"/><stop offset="0.37" stop-color="#cff5de"/><stop offset="0.4" stop-color="#c1e8de"/><stop offset="0.45" stop-color="#9cc5dd"/><stop offset="0.53" stop-color="#608edc"/><stop offset="0.55" stop-color="#4d7cdc"/><stop offset="0.7" stop-color="#3152cc"/><stop offset="0.83" stop-color="#0044b6"/><stop offset="1" stop-color="#3a43ac"/></linearGradient></defs><g class="cls-1"><g id="Mesa_2" data-name="Mesa 2"><rect class="cls-2" width="1920" height="1920"/><circle class="cls-3" cx="1520.64" cy="408.44" r="172.99" transform="translate(156.58 1194.88) rotate(-45)"/><circle class="cls-4" cx="1522.28" cy="410.33" r="152.02" transform="translate(155.72 1196.59) rotate(-45)"/><circle class="cls-5" cx="1522.28" cy="410.33" r="134.96" transform="translate(155.72 1196.59) rotate(-45)"/><circle class="cls-6" cx="1521.97" cy="410.56" r="122.17"/><circle class="cls-7" cx="1521.97" cy="410.56" r="114.03"/><path class="cls-7" d="M1631.19,443.38l8,3.64s2.18,1.19-1.45,8.57c0,0-11,23.38-18,28.66,0,0-.94,1.59-4.36.31L1610.9,482"/><path class="cls-7" d="M1517.31,524.49l-2.15,6.75s-15.17-7.3-31.5-4.35l.78-8.63"/><path class="cls-8" d="M1483.66,526.89c8.52,5,31.5,4.35,31.5,4.35s-13.94-7-29.83-4.61"/><path class="cls-9" d="M1555.43,331.45s-9.27-8.94-16.21-7.17-11.53,2.27-16.53,8.52-10.23,15.79.12,26.87,26.15,1.27,26.15,1.27,4.37-2.62,7.16-10l2.78-7.42S1564.22,337.48,1555.43,331.45Z"/><path class="cls-8" d="M1551.18,328s6.1,5.22,1.69,14.09-21.49,30.4-35.88,6.54c0,0,4.62,20.41,24.91,15.28l5.44-2.12s5-1.49,7.94-8.94,3.62-9.4,3.62-9.4,3-6.22-.22-9.12S1554.79,330.2,1551.18,328Z"/><path class="cls-9" d="M1549,446.94s9.5-2.16,14.84,10.58-4,19.3-4,19.3-12,12.41-24.22,1.36S1530.4,446.31,1549,446.94Z"/><path class="cls-8" d="M1532.2,474.14s6.92,6.63,19-.34,11.4-18.89,11.4-18.89,7.72,10.86-1.61,20.89S1540.5,484.77,1532.2,474.14Z"/><path class="cls-9" d="M1512.3,476s8.86,3.67,7,12.68-13.86,15.67-22,9.71S1492,471.14,1512.3,476Z"/><path class="cls-8" d="M1498.32,499.09c19.66-1,17.86-20.42,17.86-20.42s7.2,7.65-.58,16.82A13.64,13.64,0,0,1,1498.32,499.09Z"/><path class="cls-9" d="M1509.65,297.19s-94,7.38-101.68,110.66c0,0-6.17,68.1,63.53,105C1471.5,512.85,1373.89,417.89,1509.65,297.19Z"/><path class="cls-9" d="M1475.11,343.89s9.21,6.09,6.13,13.25-9.57,15.59-21,13.11-14.41-15.37-7.77-21.67S1465.58,336.11,1475.11,343.89Z"/><path class="cls-7" d="M1451.28,366.44a14.54,14.54,0,0,1-3-5.63,13.14,13.14,0,0,1,3.33-13.14c6.53-6.19,13.9-13.19,24.26-4.79.88.59,9.89,6.95,6.53,14.76-2.21,5.14-8.82,16.78-22.41,13.83A15.9,15.9,0,0,1,1451.28,366.44Zm26.63-18.37a19.47,19.47,0,0,0-3.49-3.14l-.1-.07c-8.67-7.08-14.37-1.66-21,4.61a10.65,10.65,0,0,0-2.67,10.66,12.66,12.66,0,0,0,9.84,8.89c11.35,2.47,17.14-6.69,19.58-12.37C1481.5,353.37,1479.81,350.26,1477.91,348.07Z"/><path class="cls-8" d="M1451.54,362.19c3.43,5.35,8.31,5.19,13.15,3.42,3.58-1.31,6.37-4.31,9.1-7.12,6.4-6.6-.26-13.82-.26-13.82s10,5.1,5.6,13.73c0,0-4.75,10.61-14.14,10.8A15.34,15.34,0,0,1,1451.54,362.19Z"/><path class="cls-9" d="M1460.77,383.36s17.21,4.76,14.29,22.32-22.27,16.57-22.27,16.57-18.7.65-19.25-20S1454.71,380.44,1460.77,383.36Z"/><path class="cls-7" d="M1437.24,416.78c-3.13-3.61-4.79-8.48-5-14.52-.26-9.92,4.45-15.08,8.44-17.66,7-4.5,16.47-4.28,20.49-2.41,1.56.49,18,6,15.08,23.69-3,17.95-22.29,17.66-23.51,17.62-.75,0-8.48.06-14.29-5.4Q1437.84,417.47,1437.24,416.78Zm32.9-26a21.84,21.84,0,0,0-9.71-6.21l-.21-.07c-3-1.46-11.67-2-18.13,2.2-5,3.25-7.48,8.47-7.3,15.51.16,6.11,2,10.84,5.43,14.08,5.22,4.92,12.45,4.72,12.53,4.72h.1a26.82,26.82,0,0,0,9.62-1.65,17,17,0,0,0,11.36-13.88C1475,398.72,1472.93,394,1470.14,390.77Z"/><path class="cls-8" d="M1436.41,409.86c9.38,9.54,22.63,5.35,28.25-3.17,7.25-11-1.17-20.26-1.17-20.26s11.41,4.22,10.67,16.4-8.23,15.34-8.23,15.34a27.46,27.46,0,0,1-14.38,3.17,17.84,17.84,0,0,1-14.89-10.76"/><path class="cls-8" d="M1616.14,422.79c1.75,2,4.9-.7,3.15-2.73s-4.91.7-3.15,2.73Z"/><path class="cls-8" d="M1624.77,410.51c1.75,2,4.9-.7,3.15-2.73s-4.91.7-3.15,2.73Z"/><path class="cls-8" d="M1614.79,400.57c1.76,2,4.91-.7,3.15-2.73s-4.9.7-3.15,2.73Z"/><path class="cls-8" d="M1623.1,392.78l.73.05a1.56,1.56,0,1,0,.23-3.11l-.73-.06a1.56,1.56,0,1,0-.23,3.12Z"/><path class="cls-8" d="M1618.59,378.72a1.56,1.56,0,0,0,2.36-2,1.56,1.56,0,0,0-2.36,2Z"/><path class="cls-8" d="M1605.62,369.3a1.56,1.56,0,0,0,2.37-2,1.56,1.56,0,0,0-2.37,2Z"/><path class="cls-8" d="M1609.62,354.85a1.56,1.56,0,0,0,2.36-2.05,1.56,1.56,0,0,0-2.36,2.05Z"/><path class="cls-8" d="M1594.47,335a1.56,1.56,0,0,0,2.36-2.05,1.56,1.56,0,0,0-2.36,2.05Z"/><path class="cls-8" d="M1596.75,487a1.56,1.56,0,0,0,2.36-2.05,1.56,1.56,0,0,0-2.36,2.05Z"/><path class="cls-8" d="M1583.72,488.65a1.57,1.57,0,0,0,2.37-2,1.57,1.57,0,0,0-2.37,2Z"/><path class="cls-8" d="M1579.44,502a1.56,1.56,0,0,0,2.36-2.05,1.56,1.56,0,0,0-2.36,2.05Z"/><path class="cls-8" d="M1559.68,510.14a1.56,1.56,0,0,0,2.36-2.05,1.56,1.56,0,0,0-2.36,2.05Z"/><path class="cls-8" d="M1567.24,497.41a1.56,1.56,0,0,0,2.36-2,1.56,1.56,0,0,0-2.36,2Z"/><path class="cls-8" d="M1542.33,515.52a1.57,1.57,0,0,0,2.37-2,1.57,1.57,0,0,0-2.37,2Z"/><path class="cls-8" d="M1525.7,516.16a1.56,1.56,0,0,0,2.36-2,1.56,1.56,0,0,0-2.36,2Z"/><g class="cls-10"><path class="cls-11" d="M271.93,1621.51c25.77,45.19,76.69,70.52,127.82,70,47.89,14.52,102.18,3.53,139.67-30.34,41.43-37.44,61.42-96.48,49.77-151.49-10.47-49.42-41.57-89.61-84.65-115.26a164.36,164.36,0,0,0-136.94-14c-44.78,15.23-82.75,50.5-102.61,93.23C243,1520.9,246.25,1576.47,271.93,1621.51Z"/><path class="cls-11" d="M600.61,1552.67a20,20,0,0,0,32.73,4.61c9.2-9.67,4.95-25.34-6.61-30.86a17,17,0,0,0-11.17-1.23C601.6,1524.36,595,1541.53,600.61,1552.67Z"/><path class="cls-11" d="M603.13,1512.94c10.84,4.79,18.31-12,7.45-16.85S592.27,1508.14,603.13,1512.94Z"/><path class="cls-11" d="M188,1546.05c-.7,16.06,17.45,29.41,31.81,19.69a19,19,0,0,0,8.06-12.18,22.85,22.85,0,0,0,2.56-8.64,21.33,21.33,0,0,0-9.18-19.53C206.47,1515.71,188.69,1530.46,188,1546.05Z"/><path class="cls-11" d="M219.45,1505.48l.1,2a6.92,6.92,0,0,0,1.12,3.32,8.24,8.24,0,0,0,5.49,4.41,6.92,6.92,0,0,0,3.58.39L232,1515a9.19,9.19,0,0,0,3.81-2.76l1.3-2.1a9.16,9.16,0,0,0,.72-4.76l-.09-2a7,7,0,0,0-1.13-3.32,6.87,6.87,0,0,0-2.19-2.77,7.05,7.05,0,0,0-3.3-1.64,6.86,6.86,0,0,0-3.57-.38l-2.29.56a9.19,9.19,0,0,0-3.81,2.76l-1.29,2.11A9.25,9.25,0,0,0,219.45,1505.48Z"/></g><circle class="cls-12" cx="416.19" cy="1540.23" r="132.45" transform="translate(-967.21 745.42) rotate(-45)"/><path class="cls-13" d="M399.64,1408.81a132.46,132.46,0,1,1-13.48,260.43,132.46,132.46,0,0,0,13.48-260.43Z"/><path class="cls-14" d="M326.71,1639.63a.87.87,0,0,0,0-1.74.87.87,0,0,0,0,1.74Z"/><path class="cls-14" d="M331.1,1642.56a113.9,113.9,0,0,0,89.57,30.51c1.1-.12,1.11-1.86,0-1.74a112.18,112.18,0,0,1-88.34-30c-.81-.76-2,.46-1.23,1.23Z"/><path class="cls-14" d="M342.37,1651l-32.22,49c-.62.94.89,1.81,1.5.88l32.22-49c.61-.93-.89-1.81-1.5-.87Z"/><path class="cls-14" d="M435.68,1671.56c57.34-6.41,103.72-51.29,111.73-108.48.15-1.09-1.52-1.56-1.68-.46-7.89,56.37-53.42,100.87-110,107.2-1.1.13-1.11,1.87,0,1.74Z"/><path class="cls-14" d="M429.09,1671.77a.87.87,0,0,0,0-1.74.87.87,0,0,0,0,1.74Z"/><path class="cls-14" d="M547.38,1554l-.27-.31a.68.68,0,0,0-.28-.18.62.62,0,0,0-.33-.07.67.67,0,0,0-.34.07.84.84,0,0,0-.28.18.9.9,0,0,0-.25.62l0,.23a.91.91,0,0,0,.22.38l.27.31a.93.93,0,0,0,.61.25.77.77,0,0,0,.34-.07.75.75,0,0,0,.28-.18.9.9,0,0,0,.25-.62l0-.23a.77.77,0,0,0-.22-.38Z"/><path class="cls-14" d="M547.89,1547a.87.87,0,0,0,0-1.73.87.87,0,0,0,0,1.73Z"/><path class="cls-14" d="M548,1534.32a134.63,134.63,0,0,0-30.44-80.85,131.28,131.28,0,0,0-76.13-45,133.69,133.69,0,0,0-50.63-.14c-1.09.21-.63,1.89.47,1.68,59.26-11.25,119.85,20.34,144,75.67a131.73,131.73,0,0,1,11,48.66c0,1.12,1.78,1.12,1.74,0Z"/><path class="cls-14" d="M322.52,1632.7a137.7,137.7,0,0,1-23-157c.51-1-1-1.87-1.5-.88a139.49,139.49,0,0,0,23.31,159.08c.77.82,2-.42,1.23-1.23Z"/><path class="cls-14" d="M304.4,1469.23l-.13-.15a.75.75,0,0,0-.28-.18.65.65,0,0,0-.34-.07.62.62,0,0,0-.33.07.75.75,0,0,0-.28.18l-.14.18a.83.83,0,0,0-.12.44l0,.23a.81.81,0,0,0,.22.38l.13.15a.57.57,0,0,0,.28.18.64.64,0,0,0,.33.08.66.66,0,0,0,.34-.08.57.57,0,0,0,.28-.18l.14-.17a1,1,0,0,0,.11-.44l0-.23a.84.84,0,0,0-.22-.39Z"/><path class="cls-14" d="M309,1462.17l.15-.13a.75.75,0,0,0,.18-.28.67.67,0,0,0,.07-.34.62.62,0,0,0-.07-.33.75.75,0,0,0-.18-.28l-.18-.14a.83.83,0,0,0-.44-.12l-.23,0a1,1,0,0,0-.38.23l-.15.13a.75.75,0,0,0-.18.28.62.62,0,0,0-.07.33.65.65,0,0,0,.07.34.75.75,0,0,0,.18.28l.18.13a.83.83,0,0,0,.44.12l.23,0a.86.86,0,0,0,.38-.22Z"/><path class="cls-14" d="M315.42,1455a151,151,0,0,1,51.28-37.64c1-.46.14-1.95-.88-1.5a152.08,152.08,0,0,0-51.62,37.91c-.75.83.48,2.06,1.22,1.23Z"/><path class="cls-14" d="M373.53,1415.55a39.33,39.33,0,0,1,11.52-2.6c1.11-.08,1.12-1.82,0-1.74a40.79,40.79,0,0,0-12,2.66c-1,.4-.58,2.08.47,1.68Z"/><path class="cls-14" d="M289.28,1576.77,230,1591.7a.87.87,0,0,0,.46,1.68l59.31-14.93c1.08-.27.62-2-.47-1.68Z"/><path class="cls-14" d="M296.08,1479.28A466.82,466.82,0,0,0,248,1454c-1-.46-1.9,1-.88,1.5a465.94,465.94,0,0,1,48.12,25.29.87.87,0,0,0,.87-1.5Z"/><path class="cls-14" d="M393.08,1407.61q-2.2-25.5-5.69-50.84c-.15-1.1-1.83-.63-1.68.46q3.45,25.11,5.63,50.38c.1,1.1,1.84,1.11,1.74,0Z"/><path class="cls-14" d="M495.38,1432.77q15.6-21.69,31.22-43.37c.65-.91-.85-1.78-1.5-.88l-31.22,43.37c-.66.91.85,1.78,1.5.88Z"/><path class="cls-14" d="M545,1514l57.76-14.39a.87.87,0,0,0-.46-1.68l-57.77,14.39c-1.08.27-.62,2,.47,1.68Z"/><path class="cls-14" d="M526.88,1616.26,573,1648.11c.93.64,1.8-.87.88-1.5l-46.08-31.86c-.92-.63-1.79.87-.88,1.51Z"/><path class="cls-14" d="M447.7,1669.72q4.46,26.76,8.9,53.51c.18,1.1,1.86.64,1.67-.46q-4.44-26.76-8.89-53.51c-.18-1.11-1.86-.64-1.68.46Z"/><path class="cls-14" d="M386.28,1692.7q3-10.38,5.9-20.77a.87.87,0,0,0-1.67-.46l-5.91,20.77a.87.87,0,0,0,1.68.46Z"/><path class="cls-14" d="M288.41,1632.06l19-14.5c.87-.67,0-2.18-.88-1.5l-19,14.5c-.88.67,0,2.18.88,1.5Z"/><path class="cls-14" d="M258.23,1525.39a212.6,212.6,0,0,0,24.91,4.55c1.11.13,1.1-1.61,0-1.74a209.36,209.36,0,0,1-24.45-4.49c-1.08-.27-1.55,1.41-.46,1.68Z"/><path class="cls-14" d="M341,1430.37A142.27,142.27,0,0,0,326.65,1409c-.71-.87-1.93.37-1.23,1.23a139.84,139.84,0,0,1,14.1,21c.53,1,2,.11,1.5-.87Z"/><path class="cls-14" d="M450,1411.46a295.86,295.86,0,0,1,13.17-35.77c.45-1-1-1.9-1.5-.87A299.86,299.86,0,0,0,448.36,1411a.87.87,0,0,0,1.68.46Z"/><path class="cls-14" d="M527.58,1466.47l27.21-18.28c.92-.62.05-2.12-.88-1.5L526.7,1465c-.92.63-.05,2.13.88,1.51Z"/><path class="cls-14" d="M546.2,1566.53l31.35,8.87a.87.87,0,0,0,.46-1.68l-31.35-8.87a.87.87,0,0,0-.46,1.68Z"/><path class="cls-14" d="M493.37,1649.68l18.85,26c.66.9,2.16,0,1.51-.87l-18.86-26c-.65-.9-2.16,0-1.5.88Z"/><path class="cls-14" d="M437.94,1635l8.38-2.09a.87.87,0,0,0-.46-1.68l-8.38,2.09a.87.87,0,0,0,.46,1.68Z"/><path class="cls-14" d="M442.18,1640.44l8.41-2c1.09-.26.63-1.93-.46-1.68l-8.41,2c-1.09.26-.63,1.93.46,1.68Z"/><path class="cls-14" d="M496.05,1468l-3.16-6.69c-.48-1-2-.13-1.5.88l3.16,6.69c.48,1,2,.13,1.5-.88Z"/><path class="cls-14" d="M485.58,1463l-4.26-6.4c-.62-.92-2.13,0-1.51.88l4.27,6.4c.61.93,2.12.06,1.5-.88Z"/><path class="cls-14" d="M398.9,1528.18a.87.87,0,0,0,0-1.74.87.87,0,0,0,0,1.74Z"/><path class="cls-14" d="M410.42,1528.21a.87.87,0,0,0,0-1.74.87.87,0,0,0,0,1.74Z"/><path class="cls-14" d="M410.76,1537.66l.38-.33a.88.88,0,0,0-.61-1.49,1,1,0,0,0-.62.26l-.38.33a.9.9,0,0,0-.26.62.89.89,0,0,0,.87.87,1,1,0,0,0,.62-.26Z"/><path class="cls-14" d="M418.94,1535.61a.87.87,0,0,0,0-1.74.87.87,0,0,0,0,1.74Z"/><path class="cls-14" d="M401.19,1520.77a.87.87,0,0,0,0-1.74.87.87,0,0,0,0,1.74Z"/><path class="cls-14" d="M366.64,1601.15l-.18-3.85c0-1.11-1.79-1.12-1.74,0l.18,3.85c.05,1.12,1.79,1.12,1.74,0Z"/><path class="cls-14" d="M360.05,1598.24a.87.87,0,0,0,0-1.74.87.87,0,0,0,0,1.74Z"/><path class="cls-14" d="M353.67,1590.92c-.17-1.71-.34-3.43-.52-5.14-.11-1.11-1.85-1.12-1.73,0l.51,5.14c.11,1.11,1.85,1.12,1.74,0Z"/><path class="cls-14" d="M496,1605.81l5.37-3.92c.89-.65,0-2.16-.88-1.5l-5.36,3.92c-.9.66,0,2.17.87,1.5Z"/><path class="cls-14" d="M494.08,1597.78l3.17-2.78c.84-.74-.39-2-1.23-1.23l-3.17,2.78c-.84.74.4,2,1.23,1.23Z"/><path class="cls-14" d="M387.93,1430l3.91-1a.87.87,0,0,0-.47-1.67l-3.9,1a.87.87,0,0,0,.46,1.68Z"/><path class="cls-14" d="M394.1,1433.34l1.76-.73a.9.9,0,0,0,.6-1.07.87.87,0,0,0-1.06-.61l-1.76.74a.9.9,0,0,0-.61,1.07.88.88,0,0,0,1.07.6Z"/><path class="cls-15" d="M353.85,1638.85l-.27-.32a2.64,2.64,0,0,0-1.12-.72,3.14,3.14,0,0,0-2.68,0,2.64,2.64,0,0,0-1.12.72l-.54.7a3.43,3.43,0,0,0-.48,1.76l.13.92a3.47,3.47,0,0,0,.89,1.54l.28.31a2.52,2.52,0,0,0,1.12.72,2.57,2.57,0,0,0,1.34.3,2.61,2.61,0,0,0,1.34-.3,2.55,2.55,0,0,0,1.11-.72l.55-.7a3.49,3.49,0,0,0,.47-1.76l-.12-.92a3.41,3.41,0,0,0-.9-1.53Z"/><path class="cls-15" d="M336.39,1625.08c-19.33-19.68-32.08-45.75-35-73.26a124.87,124.87,0,0,1,20.81-82.48c2.51-3.72-3.51-7.21-6-3.51-17.17,25.5-25.2,57-21.58,87.59A131.74,131.74,0,0,0,331.47,1630c3.14,3.2,8.06-1.72,4.92-4.92Z"/><path class="cls-15" d="M339.14,1448.11l-.31-.35a2.64,2.64,0,0,0-1.12-.72,3.58,3.58,0,0,0-3.8.72l-.55.7a3.49,3.49,0,0,0-.47,1.76l.12.92a3.5,3.5,0,0,0,.9,1.53l.31.36a2.64,2.64,0,0,0,1.12.72,3.14,3.14,0,0,0,2.68,0,2.64,2.64,0,0,0,1.12-.72l.54-.7a3.43,3.43,0,0,0,.48-1.76l-.13-.92a3.47,3.47,0,0,0-.89-1.54Z"/><circle class="cls-16" cx="1495.94" cy="722.93" r="11.92"/><circle class="cls-17" cx="1495.94" cy="722.93" r="9.66" transform="translate(119.73 1653.8) rotate(-59.87)"/><polygon class="cls-18" points="1501.83 706.08 1500.9 719.32 1510.31 726.8 1498.5 727.28 1490.59 739.95 1491.25 725.09 1481.78 718.4 1494.21 717.82 1501.83 706.08"/><circle class="cls-16" cx="147.58" cy="76.7" r="17.17"/><circle class="cls-17" cx="147.58" cy="76.7" r="13.91" transform="translate(39.03 202.72) rotate(-76.72)"/><polygon class="cls-18" points="148.67 51.44 152.82 69.78 168.64 76.07 152.82 81.55 147.29 101.96 142.1 81.55 126.53 76.36 143.14 70.47 148.67 51.44"/><circle class="cls-16" cx="1848.02" cy="68.03" r="11.16"/><circle class="cls-17" cx="1848.02" cy="68.03" r="9.05" transform="translate(1355.59 1850.53) rotate(-76.66)"/><polygon class="cls-18" points="1848.72 52.54 1851.39 63.78 1861.55 67.64 1851.39 71 1847.83 83.52 1844.49 71 1834.49 67.81 1845.16 64.21 1848.72 52.54"/><circle class="cls-16" cx="507.19" cy="99.47" r="9.74"/><circle class="cls-17" cx="507.19" cy="99.47" r="7.89" transform="translate(78.21 387.77) rotate(-45)"/><polygon class="cls-18" points="507.76 86.11 509.96 95.81 518.33 99.14 509.96 102.04 507.03 112.84 504.28 102.04 496.04 99.29 504.83 96.18 507.76 86.11"/><circle class="cls-16" cx="1195.34" cy="520.14" r="16.86" transform="translate(-17.69 997.58) rotate(-45)"/><circle class="cls-17" cx="1195.34" cy="520.14" r="13.67" transform="translate(-17.69 997.58) rotate(-45)"/><polygon class="cls-18" points="1196.42 495.05 1200.55 513.27 1216.27 519.51 1200.55 524.96 1195.05 545.24 1189.89 524.96 1174.42 519.8 1190.92 513.95 1196.42 495.05"/><circle class="cls-16" cx="914.81" cy="40.14" r="16.86" transform="translate(239.56 658.63) rotate(-45)"/><circle class="cls-17" cx="914.81" cy="40.14" r="13.67" transform="translate(239.56 658.63) rotate(-45)"/><polygon class="cls-18" points="915.89 15.04 920.02 33.27 935.74 39.52 920.02 44.95 914.52 65.24 909.36 44.95 893.89 39.8 910.39 33.95 915.89 15.04"/><circle class="cls-16" cx="62.53" cy="626.05" r="13.37"/><circle class="cls-17" cx="62.53" cy="626.05" r="10.83"/><polygon class="cls-18" points="62.88 606.11 66.16 620.58 78.65 625.55 66.16 629.87 61.79 645.98 57.7 629.87 45.41 625.77 58.52 621.13 62.88 606.11"/><path class="cls-19" d="M545.83,377.17c3.16-.59,2.26-5.51-.91-4.92s-2.26,5.51.91,4.92Z"/><path class="cls-19" d="M954.18,832.38l1.24-1.81a2.5,2.5,0,1,0-4.12-2.83l-1.24,1.81a2.5,2.5,0,0,0,4.12,2.83Z"/><path class="cls-19" d="M431.46,712.48c3.16-.58,2.26-5.5-.91-4.91s-2.26,5.5.91,4.91Z"/><path class="cls-19" d="M455.64,291.18c3.16-.58,2.25-5.5-.91-4.91s-2.26,5.5.91,4.91Z"/><path class="cls-19" d="M19.29,353.74c3.16-.58,2.26-5.5-.91-4.91s-2.26,5.5.91,4.91Z"/><path class="cls-19" d="M384.21,54.11c3.17-.59,2.26-5.5-.91-4.92s-2.26,5.51.91,4.92Z"/><path class="cls-19" d="M34.06,43.84l.28,1.53a2.5,2.5,0,0,0,4.92-.91L39,42.93a2.5,2.5,0,1,0-4.91.91Z"/><path class="cls-19" d="M220.35,629.5c3.16-.59,2.25-5.51-.91-4.92s-2.26,5.5.91,4.92Z"/><path class="cls-19" d="M269.18,316.35c3.16-.59,2.26-5.51-.91-4.92s-2.26,5.5.91,4.92Z"/><path class="cls-19" d="M300.89,168.51c3.16-.58,2.25-5.5-.91-4.91s-2.26,5.5.91,4.91Z"/><path class="cls-19" d="M758.29,279.39c3.16-.59,2.26-5.5-.91-4.92s-2.26,5.51.91,4.92Z"/><path class="cls-19" d="M661.74,235.69c3.16-.59,2.25-5.51-.91-4.92s-2.26,5.5.91,4.92Z"/><path class="cls-19" d="M1791.22,792.68l1.52-.28a2.5,2.5,0,1,0-.91-4.92l-1.53.29a2.5,2.5,0,1,0,.92,4.91Z"/><path class="cls-19" d="M558.23,188.53c3.16-.58,2.25-5.5-.91-4.91s-2.26,5.5.91,4.91Z"/><path class="cls-19" d="M573.12,883.57c3.16-.59,2.26-5.51-.91-4.92s-2.26,5.5.91,4.92Z"/><path class="cls-19" d="M335.2,834.49l-.28-1.52a2.5,2.5,0,1,0-4.91.91l.28,1.53a2.5,2.5,0,1,0,4.91-.92Z"/><path class="cls-19" d="M61.17,173.26l.28,1.53a2.5,2.5,0,0,0,4.92-.91l-.29-1.53a2.5,2.5,0,0,0-4.91.91Z"/><path class="cls-19" d="M1556.86,34.57c3.16-.58,2.25-5.5-.92-4.91s-2.25,5.5.92,4.91Z"/><path class="cls-19" d="M147.54,773.85c3.16-.58,2.25-5.5-.92-4.91s-2.25,5.5.92,4.91Z"/><path class="cls-19" d="M103.56,499.39c.33,0,.66-.07,1-.13l.29-.07c.24-.08.47-.19.7-.29l.12-.06.11-.07,0,0c.18-.13.37-.27.55-.42l.07-.07,0-.05c.15-.17.29-.36.42-.54a2.23,2.23,0,0,0,.24-.49,2.82,2.82,0,0,0,.19-.51c0-.25.07-.51.1-.76,0,0,0-.1,0-.15s0-.1,0-.15a7.5,7.5,0,0,0-.11-.81c0-.12,0-.25-.08-.37a2,2,0,0,0-.45-.86,2.26,2.26,0,0,0-1.63-.94,1.89,1.89,0,0,0-1,.05l-.6.25a2.48,2.48,0,0,0-.89.9l-.25.6a2.47,2.47,0,0,0,0,1.32,3,3,0,0,1,.09.43l-.09-.67a1.62,1.62,0,0,1,0,.44l.09-.66a.9.9,0,0,1-.07.27l.25-.6a1.28,1.28,0,0,1-.11.2l.39-.51-.17.17.51-.39a1.35,1.35,0,0,1-.29.16l.6-.25a2,2,0,0,1-.53.13l.67-.09-.18,0a1.88,1.88,0,0,0-1,.22,2.16,2.16,0,0,0-1.32,1.32,1.86,1.86,0,0,0-.22,1l.09.66a2.48,2.48,0,0,0,.64,1.11l.51.39a2.53,2.53,0,0,0,1.26.34Z"/><path class="cls-19" d="M1091.2,18.72a8.5,8.5,0,0,0,1-.13,1.43,1.43,0,0,0,.28-.07c.24-.08.47-.19.7-.29l.12-.06.11-.06,0,0c.18-.13.38-.28.55-.42l.08-.08,0,0c.14-.17.28-.36.41-.54a2.23,2.23,0,0,0,.24-.49,2.31,2.31,0,0,0,.19-.52,6.59,6.59,0,0,0,.1-.76.71.71,0,0,0,0-.14.86.86,0,0,0,0-.16c0-.27-.06-.54-.1-.8a2.34,2.34,0,0,0-.09-.38,1.89,1.89,0,0,0-.45-.85,1.8,1.8,0,0,0-.7-.64,1.77,1.77,0,0,0-.93-.3,1.85,1.85,0,0,0-1,0l-.6.26a2.48,2.48,0,0,0-.9.89l-.25.6a2.5,2.5,0,0,0,0,1.33,3.15,3.15,0,0,1,.09.42l-.09-.66a1.61,1.61,0,0,1,0,.44l.09-.67a1.38,1.38,0,0,1-.08.27l.26-.6a.82.82,0,0,1-.12.2l.39-.5-.16.16.5-.39a1,1,0,0,1-.28.16l.6-.25a2,2,0,0,1-.53.13l.66-.08h-.17a1.9,1.9,0,0,0-1,.22,1.77,1.77,0,0,0-.8.52,1.77,1.77,0,0,0-.52.8,1.78,1.78,0,0,0-.21,1l.08.67a2.52,2.52,0,0,0,.65,1.1l.5.39a2.44,2.44,0,0,0,1.27.34Z"/><polygon class="cls-18" points="1166.09 103.33 1168.02 111.84 1175.36 114.76 1168.02 117.3 1165.45 126.77 1163.04 117.3 1155.82 114.89 1163.53 112.16 1166.09 103.33"/><circle class="cls-16" cx="1165.59" cy="115.05" r="7.52"/><circle class="cls-17" cx="1165.59" cy="115.05" r="6.1"/><polygon class="cls-18" points="838.09 525.33 840.02 533.84 847.36 536.76 840.02 539.3 837.45 548.77 835.04 539.3 827.82 536.89 835.53 534.16 838.09 525.33"/><circle class="cls-16" cx="837.59" cy="537.05" r="7.52"/><circle class="cls-17" cx="837.59" cy="537.05" r="6.1"/><polygon class="cls-18" points="1436.09 51.33 1438.02 59.84 1445.36 62.76 1438.02 65.3 1435.45 74.77 1433.04 65.3 1425.82 62.89 1433.53 60.16 1436.09 51.33"/><circle class="cls-16" cx="1435.59" cy="63.05" r="7.52"/><circle class="cls-17" cx="1435.59" cy="63.05" r="6.1"/><path class="cls-20" d="M1400.94,216.27c3.22,0,3.23-5,0-5s-3.22,5,0,5Z"/><path class="cls-20" d="M1328.2,111c3.22,0,3.22-5,0-5s-3.22,5,0,5Z"/><path class="cls-20" d="M687.76,743.92c3.22,0,3.22-5,0-5s-3.22,5,0,5Z"/><path class="cls-20" d="M1042.53,205.55l1.52,1.53a2.5,2.5,0,1,0,3.53-3.54l-1.52-1.52a2.5,2.5,0,0,0-3.53,3.53Z"/><path class="cls-20" d="M1428.67,672.92c3.22,0,3.22-5,0-5s-3.22,5,0,5Z"/><path class="cls-20" d="M304.5,636.74c3.21,0,3.22-5,0-5s-3.23,5,0,5Z"/><path class="cls-20" d="M782.7,550c3.21,0,3.22-5,0-5s-3.23,5,0,5Z"/><path class="cls-20" d="M951.52,560.66c3.22,0,3.22-5,0-5s-3.22,5,0,5Z"/><path class="cls-20" d="M1445.81,405.53c3.22,0,3.23-5,0-5s-3.22,5,0,5Z"/><path class="cls-20" d="M1345.43,402.48c3.22,0,3.23-5,0-5s-3.22,5,0,5Z"/><path class="cls-20" d="M1079.69,469.5c3.22,0,3.22-5,0-5s-3.22,5,0,5Z"/><path class="cls-20" d="M1419.4,538.84c3.21,0,3.22-5,0-5s-3.23,5,0,5Z"/><path class="cls-20" d="M1342.78,873.7c3.22,0,3.22-5,0-5s-3.22,5,0,5Z"/><path class="cls-20" d="M1281.94,637.48c3.22,0,3.23-5,0-5s-3.22,5,0,5Z"/><path class="cls-20" d="M1212.92,767.59c3.22,0,3.22-5,0-5s-3.22,5,0,5Z"/><path class="cls-20" d="M1821.1,519.77c3.21,0,3.22-5,0-5s-3.23,5,0,5Z"/><path class="cls-20" d="M1222.32,261.54c3.21,0,3.22-5,0-5s-3.23,5,0,5Z"/><path class="cls-20" d="M1078.09,648.18c3.22,0,3.22-5,0-5s-3.22,5,0,5Z"/><path class="cls-20" d="M931.6,666c3.21,0,3.22-5,0-5s-3.23,5,0,5Z"/><path class="cls-20" d="M1041.37,352.94c3.21,0,3.22-5,0-5s-3.23,5,0,5Z"/><path class="cls-20" d="M877.37,344.25c3.22,0,3.23-5,0-5s-3.22,5,0,5Z"/><path class="cls-20" d="M1840.5,145.74c3.21,0,3.22-5,0-5s-3.23,5,0,5Z"/><path class="cls-20" d="M1804.37,69.25c3.22,0,3.23-5,0-5s-3.22,5,0,5Z"/><path class="cls-20" d="M741.2,452.92c3.22,0,3.22-5,0-5s-3.22,5,0,5Z"/><path class="cls-20" d="M1126.84,872.56c3.21,0,3.22-5,0-5s-3.23,5,0,5Z"/><path class="cls-20" d="M1469.1,317v1.38a2.5,2.5,0,0,0,5,0V317a2.5,2.5,0,0,0-5,0Z"/><path class="cls-20" d="M1098.83,159.93c3.22,0,3.22-5,0-5s-3.22,5,0,5Z"/><path class="cls-20" d="M860.87,154.43c3.22,0,3.22-5,0-5s-3.22,5,0,5Z"/><path class="cls-20" d="M1466.14,166.81c3.22,0,3.22-5,0-5s-3.22,5,0,5Z"/><path class="cls-20" d="M1623,825.51c3.22,0,3.22-5,0-5s-3.22,5,0,5Z"/><path class="cls-20" d="M1602.5,502.09c3.22,0,3.22-5,0-5s-3.22,5,0,5Z"/><path class="cls-20" d="M1482.5,450.6v1.5a2.5,2.5,0,0,0,5,0v-1.5a2.5,2.5,0,1,0-5,0Z"/><path class="cls-20" d="M1799,690.58c3.22,0,3.23-5,0-5s-3.22,5,0,5Z"/><path class="cls-20" d="M701,90.1c3.22,0,3.22-5,0-5s-3.22,5,0,5Z"/><path class="cls-20" d="M438.52,494.54H440a2.5,2.5,0,0,0,0-5h-1.5a2.5,2.5,0,0,0,0,5Z"/><path class="cls-20" d="M629.52,523.59c3.21,0,3.22-5,0-5s-3.23,5,0,5Z"/><path class="cls-20" d="M1829,416.54h1.5a2.5,2.5,0,0,0,0-5H1829a2.5,2.5,0,0,0,0,5Z"/><path class="cls-20" d="M1578,660.58c3.22,0,3.22-5,0-5s-3.22,5,0,5Z"/><path class="cls-20" d="M1540.5,901.57c3.22,0,3.22-5,0-5s-3.22,5,0,5Z"/><path class="cls-20" d="M1582.24,307.84l-1.5-1.5a2.5,2.5,0,0,0-3.54,3.53l1.5,1.5a2.5,2.5,0,1,0,3.54-3.53Z"/><path class="cls-20" d="M1694.46,292.6c3.22,0,3.23-5,0-5s-3.22,5,0,5Z"/><path class="cls-20" d="M1690,163.61c3.22,0,3.23-5,0-5s-3.22,5,0,5Z"/><circle class="cls-16" cx="1900.6" cy="337.15" r="11.16"/><circle class="cls-17" cx="1900.6" cy="337.15" r="9.05" transform="matrix(0.19, -0.98, 0.98, 0.19, 1212.87, 2140.76)"/><polygon class="cls-18" points="1901.3 321.67 1903.97 332.91 1914.13 336.77 1903.97 340.13 1900.41 352.64 1897.08 340.13 1887.07 336.94 1897.74 333.33 1901.3 321.67"/><circle class="cls-16" cx="1752.63" cy="605.38" r="11.16"/><circle class="cls-17" cx="1752.63" cy="605.38" r="9.05" transform="translate(349.3 1817.34) rotate(-59.87)"/><polygon class="cls-18" points="1757.77 590.75 1757.08 602.29 1765.69 608.92 1754.99 609.19 1747.97 620.15 1748.39 607.2 1739.73 601.26 1750.99 600.89 1757.77 590.75"/><path class="cls-16" d="M1668.92,316a6.35,6.35,0,1,1-6.34-6.35A6.35,6.35,0,0,1,1668.92,316Z"/><path class="cls-17" d="M1667.72,316a5.15,5.15,0,1,1-5.14-5.15A5.14,5.14,0,0,1,1667.72,316Z"/><polygon class="cls-18" points="1662.95 307.31 1664.38 313.64 1669.84 315.81 1664.38 317.7 1662.47 324.74 1660.68 317.7 1655.31 315.91 1661.04 313.88 1662.95 307.31"/><circle class="cls-16" cx="300.92" cy="464.96" r="9.74"/><circle class="cls-17" cx="300.92" cy="464.96" r="7.89" transform="translate(-240.64 348.97) rotate(-45)"/><polygon class="cls-18" points="301.5 451.6 303.7 461.3 312.07 464.63 303.7 467.53 300.77 478.33 298.02 467.53 289.78 464.78 298.57 461.67 301.5 451.6"/><circle class="cls-16" cx="1536.92" cy="201.96" r="9.74"/><circle class="cls-17" cx="1536.92" cy="201.96" r="7.89" transform="translate(307.34 1145.92) rotate(-45)"/><polygon class="cls-18" points="1537.5 188.6 1539.7 198.3 1548.07 201.63 1539.7 204.53 1536.77 215.33 1534.02 204.53 1525.78 201.78 1534.57 198.67 1537.5 188.6"/></g></g></svg>