<svg xmlns="http://www.w3.org/2000/svg" viewBox="0 0 1280 720"><defs><style>.cls-1,.cls-2,.cls-3{fill:#ffe69f;}.cls-1{opacity:0.2;}.cls-2{opacity:0.3;}.cls-4{fill:#bbbdd7;}.cls-5{fill:#ded7eb;}.cls-6{opacity:0.24;}.cls-7{fill:#2d2d2d;}.cls-8{opacity:0.47;}.cls-9{fill:#ccc;}</style></defs><g id="Capa_4" data-name="Capa 4"><circle class="cls-1" cx="781" cy="376.82" r="6.13"/><circle class="cls-2" cx="781" cy="376.82" r="4.97" transform="translate(63.03 863.11) rotate(-59.87)"/><polygon class="cls-3" points="784.02 368.15 783.54 374.97 788.38 378.81 782.31 379.06 778.24 385.57 778.58 377.93 773.71 374.49 780.1 374.19 784.02 368.15"/><circle class="cls-1" cx="576.64" cy="536.58" r="6.13"/><circle class="cls-2" cx="576.64" cy="536.58" r="4.97" transform="translate(-176.91 765.92) rotate(-59.87)"/><polygon class="cls-3" points="579.67 527.91 579.19 534.72 584.02 538.57 577.95 538.81 573.88 545.33 574.22 537.69 569.35 534.25 575.74 533.95 579.67 527.91"/><circle class="cls-1" cx="87.5" cy="44.45" r="8.83"/><circle class="cls-2" cx="87.5" cy="44.45" r="7.16" transform="translate(24.14 119.4) rotate(-76.72)"/><polygon class="cls-3" points="88.06 31.46 90.2 40.89 98.33 44.13 90.2 46.94 87.35 57.44 84.68 46.94 76.67 44.27 85.21 41.25 88.06 31.46"/><circle class="cls-1" cx="962.08" cy="39.99" r="5.74"/><circle class="cls-2" cx="962.08" cy="39.99" r="4.65" transform="translate(701.27 966.9) rotate(-76.66)"/><polygon class="cls-3" points="962.43 32.02 963.81 37.8 969.03 39.79 963.81 41.52 961.98 47.95 960.26 41.52 955.12 39.88 960.61 38.02 962.43 32.02"/><circle class="cls-1" cx="1018.03" cy="547.64" r="5.74"/><circle class="cls-2" cx="1018.03" cy="547.64" r="4.65" transform="translate(250.35 1411.91) rotate(-76.66)"/><polygon class="cls-3" points="1018.39 539.67 1019.76 545.46 1024.99 547.44 1019.76 549.17 1017.93 555.61 1016.22 549.17 1011.07 547.53 1016.56 545.67 1018.39 539.67"/><circle class="cls-1" cx="272.45" cy="56.16" r="5.01"/><circle class="cls-2" cx="272.45" cy="56.16" r="4.06" transform="translate(40.09 209.1) rotate(-45)"/><polygon class="cls-3" points="272.75 49.29 273.88 54.28 278.19 55.99 273.88 57.48 272.37 63.04 270.96 57.48 266.72 56.07 271.24 54.47 272.75 49.29"/><circle class="cls-1" cx="626.39" cy="272.52" r="8.67" transform="translate(-9.24 522.74) rotate(-45)"/><circle class="cls-2" cx="626.39" cy="272.52" r="7.03" transform="translate(-9.24 522.74) rotate(-45)"/><polygon class="cls-3" points="626.95 259.61 629.07 268.99 637.15 272.2 629.07 275 626.24 285.43 623.59 275 615.63 272.35 624.12 269.34 626.95 259.61"/><circle class="cls-1" cx="730.39" cy="661.52" r="8.67" transform="translate(-253.84 710.22) rotate(-45)"/><circle class="cls-2" cx="730.39" cy="661.52" r="7.03" transform="translate(-253.84 710.22) rotate(-45)"/><polygon class="cls-3" points="730.95 648.61 733.07 657.99 741.15 661.2 733.07 664 730.24 674.43 727.59 664 719.63 661.35 728.12 658.34 730.95 648.61"/><circle class="cls-1" cx="1030.24" cy="373.89" r="8.67" transform="translate(37.37 838) rotate(-45)"/><circle class="cls-2" cx="1030.24" cy="373.89" r="7.03" transform="translate(37.37 838) rotate(-45)"/><polygon class="cls-3" points="1030.8 360.98 1032.92 370.35 1041 373.57 1032.92 376.37 1030.09 386.8 1027.43 376.37 1019.48 373.71 1027.97 370.71 1030.8 360.98"/><circle class="cls-1" cx="20.62" cy="566.08" r="8.67" transform="translate(-394.24 180.38) rotate(-45)"/><circle class="cls-2" cx="20.62" cy="566.08" r="7.03" transform="translate(-394.24 180.38) rotate(-45)"/><polygon class="cls-3" points="21.17 553.17 23.29 562.55 31.38 565.76 23.29 568.56 20.46 578.99 17.81 568.56 9.86 565.91 18.34 562.9 21.17 553.17"/><circle class="cls-1" cx="482.11" cy="25.65" r="8.67" transform="translate(123.07 348.41) rotate(-45)"/><circle class="cls-2" cx="482.11" cy="25.65" r="7.03" transform="translate(123.07 348.41) rotate(-45)"/><polygon class="cls-3" points="482.66 12.74 484.78 22.11 492.87 25.32 484.78 28.12 481.95 38.55 479.3 28.12 471.35 25.47 479.83 22.46 482.66 12.74"/><circle class="cls-1" cx="43.75" cy="326.99" r="6.87"/><circle class="cls-2" cx="43.75" cy="326.99" r="5.57"/><polygon class="cls-3" points="43.94 316.74 45.63 324.18 52.05 326.73 45.63 328.96 43.38 337.24 41.27 328.96 34.95 326.85 41.69 324.46 43.94 316.74"/><path class="cls-4" d="M292.33,199a1.29,1.29,0,0,0-.47-2.53,1.29,1.29,0,0,0,.47,2.53Z"/><path class="cls-4" d="M502.35,433.11l.64-.93a1.28,1.28,0,1,0-2.12-1.45l-.64.93a1.28,1.28,0,0,0,2.12,1.45Z"/><path class="cls-4" d="M550.2,571l.64-.93a1.28,1.28,0,1,0-2.12-1.45l-.64.93a1.29,1.29,0,0,0,.33,1.78,1.3,1.3,0,0,0,1.79-.33Z"/><path class="cls-4" d="M677.2,662l.64-.93a1.28,1.28,0,1,0-2.12-1.45l-.64.93a1.29,1.29,0,0,0,.33,1.78,1.3,1.3,0,0,0,1.79-.33Z"/><path class="cls-4" d="M233.51,371.45a1.29,1.29,0,0,0-.47-2.53,1.29,1.29,0,0,0,.47,2.53Z"/><path class="cls-4" d="M238.51,298.45a1.29,1.29,0,0,0-.47-2.53,1.29,1.29,0,0,0,.47,2.53Z"/><path class="cls-4" d="M245.94,154.76a1.29,1.29,0,0,0-.47-2.53,1.29,1.29,0,0,0,.47,2.53Z"/><path class="cls-4" d="M21.52,186.94a1.29,1.29,0,0,0-.47-2.53,1.29,1.29,0,0,0,.47,2.53Z"/><path class="cls-4" d="M209.21,32.83a1.29,1.29,0,0,0-.47-2.53,1.29,1.29,0,0,0,.47,2.53Z"/><path class="cls-4" d="M29.11,27.55l.15.79a1.29,1.29,0,1,0,2.53-.47l-.15-.79a1.3,1.3,0,0,0-1.5-1,1.31,1.31,0,0,0-1,1.5Z"/><path class="cls-4" d="M350.37,354.71a1.28,1.28,0,0,0-.47-2.52,1.28,1.28,0,0,0,.47,2.52Z"/><path class="cls-4" d="M150,167.71a1.29,1.29,0,0,0-.47-2.53,1.29,1.29,0,0,0,.47,2.53Z"/><path class="cls-4" d="M166.35,91.67a1.29,1.29,0,0,0-.47-2.53,1.29,1.29,0,0,0,.47,2.53Z"/><path class="cls-4" d="M88.5,152.49A1.29,1.29,0,0,0,88,150a1.29,1.29,0,0,0,.47,2.53Z"/><path class="cls-4" d="M769.69,537.69a1.29,1.29,0,0,0-.47-2.53,1.29,1.29,0,0,0,.47,2.53Z"/><path class="cls-4" d="M401.6,148.7a1.29,1.29,0,0,0-.47-2.53,1.29,1.29,0,0,0,.47,2.53Z"/><path class="cls-4" d="M351.94,126.22a1.29,1.29,0,0,0-.47-2.53,1.29,1.29,0,0,0,.47,2.53Z"/><path class="cls-4" d="M358.13,550.82a1.28,1.28,0,0,0-.47-2.52,1.28,1.28,0,0,0,.47,2.52Z"/><path class="cls-4" d="M458.13,520.82a1.28,1.28,0,0,0-.47-2.52,1.28,1.28,0,0,0,.47,2.52Z"/><path class="cls-4" d="M1022.06,325.11l.79-.14a1.3,1.3,0,0,0,1-1.5,1.31,1.31,0,0,0-1.5-1l-.78.15a1.28,1.28,0,1,0,.46,2.52Z"/><path class="cls-4" d="M1038.28,211.58l.79-.14a1.29,1.29,0,0,0-.47-2.53l-.79.14a1.29,1.29,0,1,0,.47,2.53Z"/><path class="cls-4" d="M1241.28,387.58l.79-.14a1.29,1.29,0,0,0-.47-2.53l-.79.14a1.29,1.29,0,1,0,.47,2.53Z"/><path class="cls-4" d="M1163.28,490.58l.79-.14a1.29,1.29,0,0,0-.47-2.53l-.79.14a1.29,1.29,0,1,0,.47,2.53Z"/><path class="cls-4" d="M881,536l.79-.15a1.31,1.31,0,0,0,1-1.5,1.32,1.32,0,0,0-1.5-1l-.79.15a1.3,1.3,0,0,0-1,1.5,1.31,1.31,0,0,0,1.5,1Z"/><path class="cls-4" d="M835,607l.79-.15a1.31,1.31,0,0,0,1-1.5,1.32,1.32,0,0,0-1.5-1l-.79.15a1.3,1.3,0,0,0-1,1.5,1.31,1.31,0,0,0,1.5,1Z"/><path class="cls-4" d="M298.71,102a1.29,1.29,0,0,0-.47-2.53,1.29,1.29,0,0,0,.47,2.53Z"/><path class="cls-4" d="M1121.71,684a1.29,1.29,0,0,0-.47-2.53,1.29,1.29,0,0,0,.47,2.53Z"/><path class="cls-4" d="M306.37,459.44a1.29,1.29,0,0,0-.47-2.53,1.29,1.29,0,0,0,.47,2.53Z"/><path class="cls-4" d="M466.93,559.19a1.29,1.29,0,0,0-.47-2.53,1.29,1.29,0,0,0,.47,2.53Z"/><path class="cls-4" d="M613.93,683.19a1.29,1.29,0,0,0-.47-2.53,1.29,1.29,0,0,0,.47,2.53Z"/><path class="cls-4" d="M430.93,615.19a1.29,1.29,0,0,0-.47-2.53,1.29,1.29,0,0,0,.47,2.53Z"/><path class="cls-4" d="M281.19,512.63l-.15-.79a1.31,1.31,0,0,0-1.5-1,1.32,1.32,0,0,0-1,1.5l.15.79a1.29,1.29,0,1,0,2.53-.47Z"/><path class="cls-4" d="M42.08,540.43l-.14-.78a1.3,1.3,0,0,0-1.5-1,1.31,1.31,0,0,0-1,1.5l.15.78a1.28,1.28,0,1,0,2.52-.47Z"/><path class="cls-4" d="M43.06,94.11l.14.79a1.3,1.3,0,0,0,1.5,1,1.31,1.31,0,0,0,1-1.5l-.15-.78a1.28,1.28,0,0,0-2.52.46Z"/><path class="cls-4" d="M812.32,22.78a1.29,1.29,0,0,0-.47-2.53,1.29,1.29,0,0,0,.47,2.53Z"/><path class="cls-4" d="M87.48,403a1.29,1.29,0,0,0-.47-2.53,1.29,1.29,0,0,0,.47,2.53Z"/><path class="cls-4" d="M192.9,556.28a1.29,1.29,0,0,0-.47-2.53,1.29,1.29,0,0,0,.47,2.53Z"/><path class="cls-4" d="M64.86,263.06a7.53,7.53,0,0,0,.83-.11l.14,0h0l.62-.26.06,0,0,0,0,0,.26-.2a2.07,2.07,0,0,0,.27-.2s0,0,0,0l0,0h0l.4-.52a2,2,0,0,0,.18-.39,2.5,2.5,0,0,0,.16-.41c0-.12,0-.26.05-.36s0-.24,0-.36a.17.17,0,0,0,0-.07.19.19,0,0,0,0-.08v0l-.09-.69a1.33,1.33,0,0,0,0-.19,1.89,1.89,0,0,0-.45-.85,1.83,1.83,0,0,0-.7-.65,1.79,1.79,0,0,0-.93-.29,1.85,1.85,0,0,0-1,0l-.6.25a2.5,2.5,0,0,0-.9.9l-.25.6a2.5,2.5,0,0,0,0,1.33,1.6,1.6,0,0,1,0,.21l-.09-.66a.88.88,0,0,1,0,.23l.09-.67a.74.74,0,0,1,0,.14l.26-.6-.06.1.39-.5-.09.08.51-.39-.15.09.6-.26a.9.9,0,0,1-.27.07l.66-.09h-.09a1.88,1.88,0,0,0-1,.22,2.16,2.16,0,0,0-1.32,1.32,1.88,1.88,0,0,0-.22,1l.09.67a2.5,2.5,0,0,0,.64,1.1l.51.39a2.43,2.43,0,0,0,1.26.34Z"/><polygon class="cls-3" points="611.35 58.15 612.34 62.52 616.11 64.03 612.34 65.33 611.02 70.2 609.78 65.33 606.06 64.09 610.02 62.69 611.35 58.15"/><circle class="cls-1" cx="611.09" cy="64.18" r="3.87"/><circle class="cls-2" cx="611.09" cy="64.18" r="3.14"/><polygon class="cls-3" points="814.89 530.12 815.88 534.49 819.66 535.99 815.88 537.3 814.56 542.17 813.32 537.3 809.61 536.06 813.57 534.66 814.89 530.12"/><circle class="cls-1" cx="814.63" cy="536.14" r="3.87"/><circle class="cls-2" cx="814.63" cy="536.14" r="3.14"/><polygon class="cls-3" points="442.65 275.19 443.64 279.57 447.41 281.07 443.64 282.38 442.32 287.25 441.08 282.38 437.36 281.14 441.33 279.73 442.65 275.19"/><circle class="cls-1" cx="442.39" cy="281.22" r="3.87"/><circle class="cls-2" cx="442.39" cy="281.22" r="3.14"/><polygon class="cls-3" points="1246.53 30.71 1247.52 35.09 1251.3 36.59 1247.52 37.9 1246.2 42.77 1244.96 37.9 1241.24 36.66 1245.21 35.26 1246.53 30.71"/><circle class="cls-1" cx="1246.27" cy="36.74" r="3.87"/><circle class="cls-2" cx="1246.27" cy="36.74" r="3.14"/><polygon class="cls-3" points="750.21 31.4 751.2 35.78 754.98 37.28 751.2 38.59 749.88 43.46 748.64 38.59 744.93 37.35 748.89 35.94 750.21 31.4"/><circle class="cls-1" cx="749.95" cy="37.43" r="3.87"/><circle class="cls-2" cx="749.95" cy="37.43" r="3.14"/><path class="cls-5" d="M732.13,116.24a1.29,1.29,0,0,0,0-2.58,1.29,1.29,0,0,0,0,2.58Z"/><path class="cls-5" d="M694.72,62.09a1.29,1.29,0,0,0,0-2.57,1.29,1.29,0,0,0,0,2.57Z"/><path class="cls-5" d="M682.72,29.09a1.29,1.29,0,0,0,0-2.57,1.29,1.29,0,0,0,0,2.57Z"/><path class="cls-5" d="M109.56,663.9a1.29,1.29,0,0,0,0-2.57,1.29,1.29,0,0,0,0,2.57Z"/><path class="cls-5" d="M547.79,110.72l.78.78a1.28,1.28,0,0,0,1.82-1.81l-.78-.79a1.29,1.29,0,0,0-1.82,1.82Z"/><path class="cls-5" d="M133.4,573.77l.78.78a1.29,1.29,0,0,0,1.82-1.82l-.78-.78a1.29,1.29,0,0,0-1.82,1.82Z"/><path class="cls-5" d="M120.4,491.77l.78.78a1.29,1.29,0,0,0,1.82-1.82l-.78-.78a1.29,1.29,0,0,0-1.82,1.82Z"/><path class="cls-5" d="M69.4,615.77l.78.78A1.29,1.29,0,0,0,72,614.73l-.78-.78a1.29,1.29,0,0,0-1.82,1.82Z"/><path class="cls-5" d="M746.4,351.1a1.29,1.29,0,0,0,0-2.57,1.29,1.29,0,0,0,0,2.57Z"/><path class="cls-5" d="M39.27,475.21a1.29,1.29,0,0,0,0-2.57,1.29,1.29,0,0,0,0,2.57Z"/><path class="cls-5" d="M175.74,373a1.29,1.29,0,0,0,0-2.57,1.29,1.29,0,0,0,0,2.57Z"/><path class="cls-5" d="M172.74,457a1.29,1.29,0,0,0,0-2.57,1.29,1.29,0,0,0,0,2.57Z"/><path class="cls-5" d="M920.18,475.21a1.29,1.29,0,0,0,0-2.57,1.29,1.29,0,0,0,0,2.57Z"/><path class="cls-5" d="M501,293.36a1.29,1.29,0,0,0,0-2.57,1.29,1.29,0,0,0,0,2.57Z"/><path class="cls-5" d="M755.21,213.57a1.29,1.29,0,0,0,0-2.57,1.29,1.29,0,0,0,0,2.57Z"/><path class="cls-5" d="M984.71,525.79a1.29,1.29,0,0,0,0-2.58,1.29,1.29,0,0,0,0,2.58Z"/><path class="cls-5" d="M703.58,212a1.29,1.29,0,0,0,0-2.57,1.29,1.29,0,0,0,0,2.57Z"/><path class="cls-5" d="M566.91,246.48a1.29,1.29,0,0,0,0-2.58,1.29,1.29,0,0,0,0,2.58Z"/><path class="cls-5" d="M741.62,282.14a1.29,1.29,0,0,0,0-2.57,1.29,1.29,0,0,0,0,2.57Z"/><path class="cls-5" d="M702.22,454.36a1.29,1.29,0,0,0,0-2.57,1.29,1.29,0,0,0,0,2.57Z"/><path class="cls-5" d="M580.22,650.36a1.29,1.29,0,0,0,0-2.57,1.29,1.29,0,0,0,0,2.57Z"/><path class="cls-5" d="M1203.22,690.36a1.29,1.29,0,0,0,0-2.57,1.29,1.29,0,0,0,0,2.57Z"/><path class="cls-5" d="M670.93,332.87a1.29,1.29,0,0,0,0-2.57,1.29,1.29,0,0,0,0,2.57Z"/><path class="cls-5" d="M1251.93,580.87a1.29,1.29,0,0,0,0-2.57,1.29,1.29,0,0,0,0,2.57Z"/><path class="cls-5" d="M1264.93,494.87a1.29,1.29,0,0,0,0-2.57,1.29,1.29,0,0,0,0,2.57Z"/><path class="cls-5" d="M635.43,399.79a1.29,1.29,0,0,0,0-2.57,1.29,1.29,0,0,0,0,2.57Z"/><path class="cls-5" d="M948.23,272.33a1.29,1.29,0,0,0,0-2.57,1.29,1.29,0,0,0,0,2.57Z"/><path class="cls-5" d="M1087.23,480.33a1.29,1.29,0,0,0,0-2.57,1.29,1.29,0,0,0,0,2.57Z"/><path class="cls-5" d="M1196.23,556.33a1.29,1.29,0,0,0,0-2.57,1.29,1.29,0,0,0,0,2.57Z"/><path class="cls-5" d="M1239.23,234.33a1.29,1.29,0,0,0,0-2.57,1.29,1.29,0,0,0,0,2.57Z"/><path class="cls-5" d="M397.6,463.71a1.29,1.29,0,0,0,0-2.57,1.29,1.29,0,0,0,0,2.57Z"/><path class="cls-5" d="M349.6,680.71a1.29,1.29,0,0,0,0-2.57,1.29,1.29,0,0,0,0,2.57Z"/><path class="cls-5" d="M560.6,698.71a1.29,1.29,0,0,0,0-2.57,1.29,1.29,0,0,0,0,2.57Z"/><path class="cls-5" d="M443.82,407.76a1.29,1.29,0,0,0,0-2.57,1.29,1.29,0,0,0,0,2.57Z"/><path class="cls-5" d="M640.26,139.51a1.29,1.29,0,0,0,0-2.57,1.29,1.29,0,0,0,0,2.57Z"/><path class="cls-5" d="M566.08,338.38a1.29,1.29,0,0,0,0-2.58,1.29,1.29,0,0,0,0,2.58Z"/><path class="cls-5" d="M669.07,543.54a1.29,1.29,0,0,0,0-2.57,1.29,1.29,0,0,0,0,2.57Z"/><path class="cls-5" d="M707.07,533.54a1.29,1.29,0,0,0,0-2.57,1.29,1.29,0,0,0,0,2.57Z"/><path class="cls-5" d="M490.74,347.52a1.29,1.29,0,0,0,0-2.58,1.29,1.29,0,0,0,0,2.58Z"/><path class="cls-5" d="M547.19,186.52a1.29,1.29,0,0,0,0-2.57,1.29,1.29,0,0,0,0,2.57Z"/><path class="cls-5" d="M462.85,182.06a1.29,1.29,0,0,0,0-2.57,1.29,1.29,0,0,0,0,2.57Z"/><path class="cls-4" d="M234.33,691a1.29,1.29,0,0,0-.47-2.53,1.29,1.29,0,0,0,.47,2.53Z"/><path class="cls-4" d="M187.94,646.76a1.29,1.29,0,0,0-.47-2.53,1.29,1.29,0,0,0,.47,2.53Z"/><path class="cls-4" d="M373.6,635.7a1.29,1.29,0,0,0-.47-2.53,1.29,1.29,0,0,0,.47,2.53Z"/><path class="cls-4" d="M1035.6,700.7a1.29,1.29,0,0,0-.47-2.53,1.29,1.29,0,0,0,.47,2.53Z"/><path class="cls-4" d="M23.6,667.7a1.29,1.29,0,0,0-.47-2.53,1.29,1.29,0,0,0,.47,2.53Z"/><path class="cls-4" d="M293.94,618.22a1.29,1.29,0,0,0-.47-2.53,1.29,1.29,0,0,0,.47,2.53Z"/><path class="cls-4" d="M240.71,594a1.29,1.29,0,0,0-.47-2.53,1.29,1.29,0,0,0,.47,2.53Z"/><path class="cls-5" d="M404.85,674.06a1.29,1.29,0,0,0,0-2.57,1.29,1.29,0,0,0,0,2.57Z"/><path class="cls-5" d="M958.21,80a1.29,1.29,0,0,0,0-2.58,1.29,1.29,0,0,0,0,2.58Z"/><path class="cls-5" d="M939.63,40.62a1.29,1.29,0,0,0,0-2.57,1.29,1.29,0,0,0,0,2.57Z"/><path class="cls-5" d="M1015.86,86a1.29,1.29,0,0,0,0-2.57,1.29,1.29,0,0,0,0,2.57Z"/><path class="cls-5" d="M1100.86,62a1.29,1.29,0,0,0,0-2.57,1.29,1.29,0,0,0,0,2.57Z"/><path class="cls-5" d="M1043.86,28a1.29,1.29,0,0,0,0-2.57,1.29,1.29,0,0,0,0,2.57Z"/><path class="cls-5" d="M392.81,238a1.29,1.29,0,0,0,0-2.57,1.29,1.29,0,0,0,0,2.57Z"/><path class="cls-5" d="M591.15,453.78a1.29,1.29,0,0,0,0-2.57,1.29,1.29,0,0,0,0,2.57Z"/><path class="cls-5" d="M1021.77,574.61a1.29,1.29,0,0,0,0-2.57,1.29,1.29,0,0,0,0,2.57Z"/><path class="cls-5" d="M767.19,168v.71a1.29,1.29,0,0,0,2.57,0V168a1.29,1.29,0,1,0-2.57,0Z"/><path class="cls-5" d="M576.75,87.26a1.29,1.29,0,0,0,0-2.57,1.29,1.29,0,0,0,0,2.57Z"/><path class="cls-5" d="M454.36,84.43a1.29,1.29,0,0,0,0-2.57,1.29,1.29,0,0,0,0,2.57Z"/><path class="cls-5" d="M428.41,15.5a1.29,1.29,0,0,0,0-2.57,1.29,1.29,0,0,0,0,2.57Z"/><path class="cls-5" d="M765.67,90.8a1.29,1.29,0,0,0,0-2.58,1.29,1.29,0,0,0,0,2.58Z"/><path class="cls-5" d="M846.34,429.58a1.29,1.29,0,0,0,0-2.57,1.29,1.29,0,0,0,0,2.57Z"/><path class="cls-5" d="M1243.34,446.58a1.29,1.29,0,0,0,0-2.57,1.29,1.29,0,0,0,0,2.57Z"/><path class="cls-5" d="M1133.34,335.58a1.29,1.29,0,0,0,0-2.57,1.29,1.29,0,0,0,0,2.57Z"/><path class="cls-5" d="M835.8,263.24a1.29,1.29,0,0,0,0-2.58,1.29,1.29,0,0,0,0,2.58Z"/><path class="cls-5" d="M912,229.18a1.29,1.29,0,0,0,0-2.58,1.29,1.29,0,0,0,0,2.58Z"/><path class="cls-5" d="M774.08,236.75v.77a1.29,1.29,0,1,0,2.57,0v-.77a1.29,1.29,0,0,0-2.57,0Z"/><path class="cls-5" d="M1143.21,170.57a1.29,1.29,0,0,0,0-2.57,1.29,1.29,0,0,0,0,2.57Z"/><path class="cls-5" d="M1091.58,169a1.29,1.29,0,0,0,0-2.57,1.29,1.29,0,0,0,0,2.57Z"/><path class="cls-5" d="M1129.62,239.14a1.29,1.29,0,0,0,0-2.57,1.29,1.29,0,0,0,0,2.57Z"/><path class="cls-5" d="M1162.08,193.75v.77a1.29,1.29,0,1,0,2.57,0v-.77a1.29,1.29,0,0,0-2.57,0Z"/><path class="cls-5" d="M1270.08,147.75v.77a1.29,1.29,0,1,0,2.57,0v-.77a1.29,1.29,0,0,0-2.57,0Z"/><path class="cls-5" d="M936.21,657.57a1.29,1.29,0,0,0,0-2.57,1.29,1.29,0,0,0,0,2.57Z"/><path class="cls-5" d="M884.58,656a1.29,1.29,0,0,0,0-2.57,1.29,1.29,0,0,0,0,2.57Z"/><path class="cls-5" d="M806.58,689a1.29,1.29,0,0,0,0-2.57,1.29,1.29,0,0,0,0,2.57Z"/><path class="cls-5" d="M948.19,612v.71a1.29,1.29,0,0,0,2.57,0V612a1.29,1.29,0,1,0-2.57,0Z"/><path class="cls-5" d="M955.08,680.75v.77a1.29,1.29,0,1,0,2.57,0v-.77a1.29,1.29,0,0,0-2.57,0Z"/><path class="cls-5" d="M1190.21,100.57a1.29,1.29,0,0,0,0-2.57,1.29,1.29,0,0,0,0,2.57Z"/><path class="cls-5" d="M1138.58,99a1.29,1.29,0,0,0,0-2.57,1.29,1.29,0,0,0,0,2.57Z"/><path class="cls-5" d="M1153.58,15a1.29,1.29,0,0,0,0-2.57,1.29,1.29,0,0,0,0,2.57Z"/><path class="cls-5" d="M1202.19,55v.71a1.29,1.29,0,0,0,2.57,0V55a1.29,1.29,0,1,0-2.57,0Z"/><path class="cls-5" d="M1209.08,123.75v.77a1.29,1.29,0,1,0,2.57,0v-.77a1.29,1.29,0,0,0-2.57,0Z"/><path class="cls-5" d="M1269.08,81.75v.77a1.29,1.29,0,1,0,2.57,0v-.77a1.29,1.29,0,0,0-2.57,0Z"/><path class="cls-5" d="M936.86,360.18a1.29,1.29,0,0,0,0-2.57,1.29,1.29,0,0,0,0,2.57Z"/><path class="cls-5" d="M1144.86,383.18a1.29,1.29,0,0,0,0-2.57,1.29,1.29,0,0,0,0,2.57Z"/><path class="cls-5" d="M1120.86,581.18a1.29,1.29,0,0,0,0-2.57,1.29,1.29,0,0,0,0,2.57Z"/><path class="cls-5" d="M372.15,51.34a1.29,1.29,0,0,0,0-2.57,1.29,1.29,0,0,0,0,2.57Z"/><path class="cls-5" d="M26.29,368.83h.77a1.29,1.29,0,1,0,0-2.57h-.77a1.29,1.29,0,1,0,0,2.57Z"/><path class="cls-5" d="M335.37,274.3a1.29,1.29,0,0,0,0-2.58,1.29,1.29,0,0,0,0,2.58Z"/><path class="cls-5" d="M297.37,705.3a1.29,1.29,0,0,0,0-2.58,1.29,1.29,0,0,0,0,2.58Z"/><path class="cls-5" d="M952.28,219.24h.77a1.29,1.29,0,0,0,0-2.57h-.77a1.29,1.29,0,1,0,0,2.57Z"/><path class="cls-5" d="M597.89,572h.77a1.29,1.29,0,1,0,0-2.57h-.77a1.29,1.29,0,0,0,0,2.57Z"/><path class="cls-5" d="M511.89,661h.77a1.29,1.29,0,1,0,0-2.57h-.77a1.29,1.29,0,0,0,0,2.57Z"/><path class="cls-5" d="M823.2,344.75a1.29,1.29,0,0,0,0-2.57,1.29,1.29,0,0,0,0,2.57Z"/><path class="cls-5" d="M803.91,468.7a1.29,1.29,0,0,0,0-2.57,1.29,1.29,0,0,0,0,2.57Z"/><path class="cls-5" d="M825.38,163.33l-.77-.77a1.28,1.28,0,0,0-1.82,1.81l.77.78a1.29,1.29,0,1,0,1.82-1.82Z"/><path class="cls-5" d="M883.1,155.49a1.29,1.29,0,0,0,0-2.57,1.29,1.29,0,0,0,0,2.57Z"/><path class="cls-5" d="M1016.9,402.83a1.29,1.29,0,0,0,0-2.57,1.29,1.29,0,0,0,0,2.57Z"/><path class="cls-5" d="M1064.9,650.83a1.29,1.29,0,0,0,0-2.57,1.29,1.29,0,0,0,0,2.57Z"/><path class="cls-5" d="M1007.9,634.83a1.29,1.29,0,0,0,0-2.57,1.29,1.29,0,0,0,0,2.57Z"/><path class="cls-5" d="M555.9,18.83a1.29,1.29,0,0,0,0-2.57,1.29,1.29,0,0,0,0,2.57Z"/><path class="cls-5" d="M967.44,472.57a1.29,1.29,0,0,0,0-2.57,1.29,1.29,0,0,0,0,2.57Z"/><path class="cls-5" d="M766.44,641.57a1.29,1.29,0,0,0,0-2.57,1.29,1.29,0,0,0,0,2.57Z"/><path class="cls-5" d="M747.44,610.57a1.29,1.29,0,0,0,0-2.57,1.29,1.29,0,0,0,0,2.57Z"/><path class="cls-5" d="M1161.44,627.57a1.29,1.29,0,0,0,0-2.57,1.29,1.29,0,0,0,0,2.57Z"/><path class="cls-5" d="M1260.44,632.57a1.29,1.29,0,0,0,0-2.57,1.29,1.29,0,0,0,0,2.57Z"/><path class="cls-5" d="M880.78,89.15a1.29,1.29,0,0,0,0-2.57,1.29,1.29,0,0,0,0,2.57Z"/><circle class="cls-1" cx="989.12" cy="178.41" r="5.74"/><circle class="cls-2" cx="989.12" cy="178.41" r="4.65" transform="translate(628.32 1116.49) rotate(-79.19)"/><polygon class="cls-3" points="989.48 170.44 990.85 176.22 996.08 178.21 990.85 179.94 989.02 186.37 987.31 179.94 982.16 178.3 987.65 176.44 989.48 170.44"/><circle class="cls-1" cx="1254.12" cy="690.41" r="5.74"/><circle class="cls-2" cx="1254.12" cy="690.41" r="4.65" transform="translate(340.69 1792.74) rotate(-79.19)"/><polygon class="cls-3" points="1254.48 682.44 1255.85 688.22 1261.08 690.21 1255.85 691.93 1254.02 698.37 1252.31 691.93 1247.16 690.3 1252.65 688.44 1254.48 682.44"/><circle class="cls-1" cx="1211.12" cy="285.41" r="5.74"/><circle class="cls-2" cx="1211.12" cy="285.41" r="4.65" transform="translate(703.57 1421.48) rotate(-79.19)"/><polygon class="cls-3" points="1211.48 277.44 1212.85 283.22 1218.08 285.21 1212.85 286.94 1211.02 293.37 1209.31 286.94 1204.16 285.3 1209.65 283.44 1211.48 277.44"/><circle class="cls-1" cx="330.63" cy="403.85" r="5.74"/><circle class="cls-2" cx="330.63" cy="403.85" r="4.65" transform="translate(-128.07 652.85) rotate(-79.19)"/><polygon class="cls-3" points="330.99 395.88 332.37 401.67 337.59 403.65 332.37 405.38 330.54 411.82 328.82 405.38 323.67 403.74 329.16 401.88 330.99 395.88"/><circle class="cls-1" cx="913.01" cy="316.36" r="5.74"/><circle class="cls-2" cx="913.01" cy="316.36" r="4.65" transform="translate(181.1 947.22) rotate(-59.87)"/><polygon class="cls-3" points="915.66 308.84 915.3 314.77 919.73 318.18 914.23 318.32 910.62 323.96 910.84 317.3 906.38 314.25 912.17 314.06 915.66 308.84"/><circle class="cls-1" cx="274.01" cy="653.36" r="5.74"/><circle class="cls-2" cx="274.01" cy="653.36" r="4.65" transform="translate(-428.62 562.4) rotate(-59.87)"/><polygon class="cls-3" points="276.66 645.84 276.3 651.77 280.73 655.18 275.23 655.32 271.62 660.96 271.84 654.3 267.38 651.25 273.17 651.05 276.66 645.84"/><path class="cls-1" d="M870,167.54a3.27,3.27,0,1,1-3.26-3.27A3.27,3.27,0,0,1,870,167.54Z"/><path class="cls-2" d="M869.34,167.54a2.65,2.65,0,1,1-2.64-2.65A2.65,2.65,0,0,1,869.34,167.54Z"/><polygon class="cls-3" points="866.89 163.06 867.63 166.31 870.43 167.43 867.63 168.4 866.64 172.02 865.72 168.4 862.96 167.48 865.91 166.44 866.89 163.06"/><circle class="cls-1" cx="166.37" cy="244.14" r="5.01"/><circle class="cls-2" cx="166.37" cy="244.14" r="4.06" transform="translate(-123.91 189.15) rotate(-45)"/><polygon class="cls-3" points="166.66 237.27 167.79 242.26 172.1 243.97 167.79 245.46 166.29 251.02 164.88 245.46 160.64 244.05 165.16 242.45 166.66 237.27"/><circle class="cls-1" cx="802.07" cy="108.87" r="5.01"/><circle class="cls-2" cx="802.07" cy="108.87" r="4.06" transform="translate(157.94 599.04) rotate(-45)"/><polygon class="cls-3" points="802.37 102 803.5 106.99 807.8 108.7 803.5 110.19 801.99 115.75 800.58 110.19 796.34 108.78 800.86 107.18 802.37 102"/><g class="cls-6"><path class="cls-7" d="M143.14,124.62H65.87c-9.39,0-17.07-6.92-17.07-15.38h0c0-8.46,7.68-15.38,17.07-15.38h77.27c9.39,0,17.07,6.92,17.07,15.38h0C160.21,117.7,152.53,124.62,143.14,124.62Z"/><path class="cls-7" d="M179.78,142.15H102.5c-9.38,0-17.06-6.92-17.06-15.37h0c0-8.46,7.68-15.38,17.06-15.38h77.28c9.39,0,17.07,6.92,17.07,15.38h0C196.85,135.23,189.17,142.15,179.78,142.15Z"/></g><g class="cls-6"><path class="cls-7" d="M1125.3,179.94H1048c-9.38,0-17.06-6.92-17.06-15.38h0c0-8.45,7.68-15.37,17.06-15.37h77.28c9.39,0,17.07,6.92,17.07,15.37h0C1142.37,173,1134.69,179.94,1125.3,179.94Z"/><path class="cls-7" d="M1155.47,193.92h-77.28c-9.39,0-17.07-6.92-17.07-15.38h0c0-8.45,7.68-15.37,17.07-15.37h77.28c9.38,0,17.07,6.92,17.07,15.37h0C1172.54,187,1164.85,193.92,1155.47,193.92Z"/><path class="cls-7" d="M1179.75,156.39h-77.28c-9.38,0-17.06-6.92-17.06-15.37h0c0-8.46,7.68-15.38,17.06-15.38h77.28c9.39,0,17.07,6.92,17.07,15.38h0C1196.82,149.47,1189.14,156.39,1179.75,156.39Z"/></g><g class="cls-6"><path class="cls-7" d="M295.5,365.67H218.22c-9.39,0-17.07-6.92-17.07-15.38h0c0-8.46,7.68-15.38,17.07-15.38H295.5c9.38,0,17.06,6.92,17.06,15.38h0C312.56,358.75,304.88,365.67,295.5,365.67Z"/><path class="cls-7" d="M369.08,349.48H291.8c-9.39,0-17.07-6.92-17.07-15.38h0c0-8.46,7.68-15.38,17.07-15.38h77.28c9.38,0,17.06,6.92,17.06,15.38h0C386.14,342.56,378.46,349.48,369.08,349.48Z"/><path class="cls-7" d="M347.74,328.14H270.46c-9.39,0-17.07-6.92-17.07-15.38h0c0-8.45,7.68-15.37,17.07-15.37h77.28c9.38,0,17.06,6.92,17.06,15.37h0C364.8,321.22,357.12,328.14,347.74,328.14Z"/></g><g class="cls-6"><path class="cls-7" d="M426.1,600.17H348.83c-9.39,0-17.07-6.92-17.07-15.37h0c0-8.46,7.68-15.38,17.07-15.38H426.1c9.39,0,17.07,6.92,17.07,15.38h0C443.17,593.25,435.49,600.17,426.1,600.17Z"/><path class="cls-7" d="M394.31,571.35H317c-9.39,0-17.07-6.92-17.07-15.37h0c0-8.46,7.68-15.38,17.07-15.38h77.28c9.38,0,17.06,6.92,17.06,15.38h0C411.37,564.43,403.69,571.35,394.31,571.35Z"/></g><g class="cls-6"><rect class="cls-7" x="1030.48" y="580.91" width="153.79" height="33.85" rx="16.92"/><rect class="cls-7" x="1055.5" y="552.95" width="86.09" height="33.85" rx="16.92"/><rect class="cls-7" x="1113.63" y="612.55" width="91.98" height="33.85" rx="16.92"/></g><g class="cls-6"><rect class="cls-7" x="468.64" y="130.34" width="236.2" height="33.85" rx="16.92"/><rect class="cls-7" x="537.8" y="160.51" width="236.2" height="33.85" rx="16.92"/><rect class="cls-7" x="453.92" y="189.94" width="236.2" height="33.85" rx="16.92"/><rect class="cls-7" x="620.95" y="100.91" width="103.01" height="33.85" rx="16.92"/></g><g class="cls-6"><rect class="cls-7" x="709.48" y="439.81" width="183.22" height="33.85" rx="16.92"/><rect class="cls-7" x="663.12" y="466.29" width="183.22" height="33.85" rx="16.92"/></g><g class="cls-6"><rect class="cls-7" x="47.48" y="657.81" width="183.22" height="33.85" rx="16.92"/><rect class="cls-7" x="1.12" y="684.29" width="183.22" height="33.85" rx="16.92"/></g><g class="cls-8"><path class="cls-9" d="M330.18,609.94l269.56.06c5.52,0,5.52,0,4.77-5.17-3.93-26.82-26.83-46.74-55.89-48.73A69.23,69.23,0,0,0,511.3,564a157.85,157.85,0,0,1-14.47,6.84c-6.12,2.42-11.83,1.38-16.88-2.94-3.73-3.18-7.52-6.33-11.48-9.23-13.41-9.81-28.37-11.81-44.39-7.82a61.24,61.24,0,0,0-28.51,15.47,28.86,28.86,0,0,0-8.49,14.39,20.81,20.81,0,0,1-1.55,4.43c-2.12,4.41-5.06,5.7-9.84,4-4.43-1.53-8.69-3.51-13.12-5-10.14-3.45-19.11-1.37-26.68,5.94a39.23,39.23,0,0,0-11.43,19.84Z"/><path class="cls-9" d="M324.46,609.94h5.72l269.56.06c5.52,0,5.52,0,4.77-5.17-3.93-26.82-26.83-46.74-55.89-48.73A69.23,69.23,0,0,0,511.3,564a157.85,157.85,0,0,1-14.47,6.84c-6.12,2.42-11.83,1.38-16.88-2.94-3.73-3.18-7.52-6.33-11.48-9.23-13.41-9.81-28.37-11.81-44.39-7.82a61.24,61.24,0,0,0-28.51,15.47,28.86,28.86,0,0,0-8.49,14.39,20.81,20.81,0,0,1-1.55,4.43c-2.12,4.41-5.06,5.7-9.84,4-4.43-1.53-8.69-3.51-13.12-5-10.14-3.45-19.11-1.37-26.68,5.94A39.23,39.23,0,0,0,324.46,609.94Z"/></g><g class="cls-8"><path class="cls-9" d="M964.25,637l201.27,0c4.12,0,4.12,0,3.55-4-2.93-20.7-20-36.08-41.73-37.62a50.36,50.36,0,0,0-27.86,6.09,113.42,113.42,0,0,1-10.8,5.28c-4.57,1.87-8.83,1.07-12.61-2.27-2.78-2.45-5.61-4.88-8.57-7.12-10-7.57-21.18-9.12-33.14-6a45.41,45.41,0,0,0-21.29,11.93,22.46,22.46,0,0,0-6.33,11.11,17.23,17.23,0,0,1-1.16,3.42c-1.58,3.41-3.78,4.4-7.35,3.13-3.31-1.18-6.49-2.72-9.8-3.88-7.57-2.66-14.27-1.05-19.92,4.59A30.44,30.44,0,0,0,960,637Z"/><path class="cls-9" d="M960,637h4.27l201.27,0c4.12,0,4.12,0,3.55-4-2.93-20.7-20-36.08-41.73-37.62a50.36,50.36,0,0,0-27.86,6.09,113.42,113.42,0,0,1-10.8,5.28c-4.57,1.87-8.83,1.07-12.61-2.27-2.78-2.45-5.61-4.88-8.57-7.12-10-7.57-21.18-9.12-33.14-6a45.41,45.41,0,0,0-21.29,11.93,22.46,22.46,0,0,0-6.33,11.11,17.23,17.23,0,0,1-1.16,3.42c-1.58,3.41-3.78,4.4-7.35,3.13-3.31-1.18-6.49-2.72-9.8-3.88-7.57-2.66-14.27-1.05-19.92,4.59A30.44,30.44,0,0,0,960,637Z"/></g><g class="cls-8"><path class="cls-9" d="M858,176a36.94,36.94,0,0,0-10.32-18.52c-6.84-6.83-14.95-8.77-24.1-5.55-4,1.41-7.85,3.26-11.85,4.69-4.32,1.53-7,.34-8.89-3.79a20.11,20.11,0,0,1-1.4-4.13,27.25,27.25,0,0,0-7.66-13.44A54.83,54.83,0,0,0,768,120.83c-14.47-3.74-28-1.86-40.08,7.3-3.58,2.71-7,5.64-10.37,8.61-4.57,4-9.72,5-15.25,2.75a144.75,144.75,0,0,1-13.07-6.39,60.76,60.76,0,0,0-33.7-7.37c-26.25,1.86-46.93,20.46-50.48,45.5-.68,4.82-.68,4.83,4.31,4.83L852.83,176Z"/><path class="cls-9" d="M858,176h-5.17l-243.45.06c-5,0-5,0-4.31-4.83,3.55-25,24.23-43.64,50.48-45.5a60.76,60.76,0,0,1,33.7,7.37,144.75,144.75,0,0,0,13.07,6.39c5.53,2.26,10.68,1.28,15.25-2.75,3.37-3,6.79-5.9,10.37-8.61,12.11-9.16,25.61-11,40.08-7.3a54.83,54.83,0,0,1,25.76,14.43,27.25,27.25,0,0,1,7.66,13.44,20.11,20.11,0,0,0,1.4,4.13c1.91,4.13,4.57,5.32,8.89,3.79,4-1.43,7.84-3.28,11.85-4.69,9.15-3.22,17.26-1.28,24.1,5.55A36.94,36.94,0,0,1,858,176Z"/></g><g class="cls-8"><path class="cls-9" d="M1174.68,184a45.76,45.76,0,0,0-2.68-5.08c-3.92-5.51-9.53-6.91-15.85-5.92-3.1.48-6.12,1.49-9.18,2.26-7.26,1.82-12.12.14-16.6-5.84-1.41-1.88-2.73-3.84-4-5.83-7.5-11.77-23.2-12.74-32.5-6.9A31.1,31.1,0,0,0,1083.57,168a8.46,8.46,0,0,1-8.33,4.46c-2.06-.11-4.11-.4-6.16-.6-9-.86-13,2.58-16.12,10.69a7.87,7.87,0,0,0-.24,1.42Z"/><path class="cls-9" d="M1174.68,184h-122a7.87,7.87,0,0,1,.24-1.42c3.07-8.11,7.12-11.55,16.12-10.69,2.05.2,4.1.49,6.16.6a8.46,8.46,0,0,0,8.33-4.46,31.1,31.1,0,0,1,10.31-11.34c9.3-5.84,25-4.87,32.5,6.9,1.26,2,2.58,3.95,4,5.83,4.48,6,9.34,7.66,16.6,5.84,3.06-.77,6.08-1.78,9.18-2.26,6.32-1,11.93.41,15.85,5.92A45.76,45.76,0,0,1,1174.68,184Z"/></g><g class="cls-8"><path class="cls-9" d="M278.68,324a7.94,7.94,0,0,0-.23-1.42c-3.07-8.11-7.12-11.55-16.12-10.69-2.06.2-4.11.49-6.17.6a8.44,8.44,0,0,1-8.32-4.46,31.22,31.22,0,0,0-10.32-11.34c-9.29-5.84-25-4.87-32.49,6.9-1.27,2-2.58,4-4,5.83-4.48,6-9.35,7.66-16.61,5.84-3.06-.77-6.08-1.78-9.18-2.26-6.32-1-11.92.41-15.84,5.92a45.68,45.68,0,0,0-2.69,5.08Z"/><path class="cls-9" d="M156.72,324h122a7.94,7.94,0,0,0-.23-1.42c-3.07-8.11-7.12-11.55-16.12-10.69-2.06.2-4.11.49-6.17.6a8.44,8.44,0,0,1-8.32-4.46,31.22,31.22,0,0,0-10.32-11.34c-9.29-5.84-25-4.87-32.49,6.9-1.27,2-2.58,4-4,5.83-4.48,6-9.35,7.66-16.61,5.84-3.06-.77-6.08-1.78-9.18-2.26-6.32-1-11.92.41-15.84,5.92A45.68,45.68,0,0,0,156.72,324Z"/></g><g class="cls-8"><path class="cls-9" d="M1209.68,588a7.94,7.94,0,0,0-.23-1.42c-3.07-8.11-7.12-11.55-16.12-10.69-2.06.2-4.11.49-6.17.6a8.44,8.44,0,0,1-8.32-4.46,31.22,31.22,0,0,0-10.32-11.34c-9.29-5.84-25-4.87-32.49,6.9-1.27,2-2.58,3.95-4,5.83-4.48,6-9.35,7.66-16.61,5.84-3.06-.77-6.08-1.78-9.18-2.26-6.32-1-11.92.41-15.84,5.92a45.68,45.68,0,0,0-2.69,5.08Z"/><path class="cls-9" d="M1087.72,588h122a7.94,7.94,0,0,0-.23-1.42c-3.07-8.11-7.12-11.55-16.12-10.69-2.06.2-4.11.49-6.17.6a8.44,8.44,0,0,1-8.32-4.46,31.22,31.22,0,0,0-10.32-11.34c-9.29-5.84-25-4.87-32.49,6.9-1.27,2-2.58,3.95-4,5.83-4.48,6-9.35,7.66-16.61,5.84-3.06-.77-6.08-1.78-9.18-2.26-6.32-1-11.92.41-15.84,5.92A45.68,45.68,0,0,0,1087.72,588Z"/></g><g class="cls-8"><path class="cls-9" d="M129.68,116a7.94,7.94,0,0,0-.23-1.42c-3.07-8.11-7.12-11.55-16.12-10.69-2.06.2-4.11.49-6.17.6A8.44,8.44,0,0,1,98.84,100,31.22,31.22,0,0,0,88.52,88.69c-9.29-5.84-25-4.87-32.49,6.9-1.27,2-2.58,4-4,5.83-4.48,6-9.35,7.66-16.61,5.84-3.06-.77-6.08-1.78-9.18-2.26-6.32-1-11.92.41-15.84,5.92A45.68,45.68,0,0,0,7.72,116Z"/><path class="cls-9" d="M7.72,116h122a7.94,7.94,0,0,0-.23-1.42c-3.07-8.11-7.12-11.55-16.12-10.69-2.06.2-4.11.49-6.17.6A8.44,8.44,0,0,1,98.84,100,31.22,31.22,0,0,0,88.52,88.69c-9.29-5.84-25-4.87-32.49,6.9-1.27,2-2.58,4-4,5.83-4.48,6-9.35,7.66-16.61,5.84-3.06-.77-6.08-1.78-9.18-2.26-6.32-1-11.92.41-15.84,5.92A45.68,45.68,0,0,0,7.72,116Z"/></g><g class="cls-8"><path class="cls-9" d="M754.25,459c0-1.94-1.36-1.91-2.72-1.91q-7.41,0-14.81,0c-1.09,0-2.18-.1-3.63-.17a19.41,19.41,0,0,1,6.11-11.31,21.44,21.44,0,0,1,17.43-6.13c5.36.51,10.62,2.14,15.94,3.16,3.55.67,7.12,1.58,10.7,1.64,6.23.1,11.29-2.81,15.08-7.67a141.55,141.55,0,0,0,8.55-12.08c11-17.69,38.56-21.2,55-5.5a58.82,58.82,0,0,1,8.9,11.35c4.55,7.22,8.68,9.34,17.09,8.39a71.25,71.25,0,0,1,13.83-.61c9.62.8,14.32,8.36,17.45,16.74.53,1.44-.08,2.35-1.72,2.38-.9,0-1.81,0-2.72,0q-48.06,0-96.13,0c-19.84,0-39.69-.15-59.54-.17-1.41,0-3.49-.8-3.61,1.88Z"/></g><g class="cls-8"><path class="cls-9" d="M457,379c0-2.72,1.9-2.67,3.81-2.67,6.91,0,13.82,0,20.73-.05,1.53,0,3.06-.13,5.08-.23a27.18,27.18,0,0,0-8.55-15.84,30,30,0,0,0-24.4-8.57c-7.51.7-14.86,3-22.32,4.41-5,.95-10,2.22-15,2.3-8.72.13-15.82-3.93-21.11-10.74a195.45,195.45,0,0,1-12-16.9c-15.35-24.78-54-29.7-77-7.71a83.07,83.07,0,0,0-12.46,15.89c-6.37,10.1-12.15,13.08-23.92,11.75-6.41-.73-13-1.39-19.36-.86-13.47,1.12-20.05,11.71-24.43,23.44-.75,2,.12,3.29,2.4,3.33,1.27,0,2.54,0,3.81,0q67.29,0,134.58,0c27.79,0,55.58-.2,83.36-.23,2,0,4.89-1.12,5.06,2.63Z"/></g><g class="cls-8"><path class="cls-9" d="M233,710c0-2.07,1.37-2,2.74-2q7.48,0,15,0c1.1,0,2.2-.1,3.66-.17a22.28,22.28,0,0,0-23.77-18.56c-5.41.53-10.72,2.27-16.09,3.35-3.58.73-7.19,1.69-10.8,1.75-6.29.1-11.41-3-15.23-8.16a150.85,150.85,0,0,1-8.63-12.85c-11.07-18.83-38.93-22.57-55.55-5.86a62.56,62.56,0,0,0-9,12.08c-4.6,7.68-8.77,9.94-17.26,8.93a68.1,68.1,0,0,0-14-.65c-9.71.85-14.46,8.9-17.62,17.82-.54,1.52.09,2.5,1.74,2.53l2.74,0q48.54,0,97.06,0c20,0,40.08-.16,60.12-.18,1.42,0,3.52-.85,3.64,2Z"/></g></g></svg>