<svg id="Luna" xmlns="http://www.w3.org/2000/svg" viewBox="0 0 215 215"><defs><style>.cls-1,.cls-2,.cls-3,.cls-4{fill:#fff9ea;}.cls-1{opacity:0.07;}.cls-2{opacity:0.14;}.cls-3{opacity:0.2;}.cls-4{opacity:0.32;}.cls-5{fill:#ffe8a7;}.cls-6{fill:#f6cd80;}.cls-7{fill:#f5d999;}</style></defs><circle class="cls-1" cx="107.5" cy="107.5" r="107.46" transform="translate(-44.53 107.5) rotate(-45)"/><circle class="cls-2" cx="106.48" cy="106.33" r="94.43" transform="translate(-44 106.44) rotate(-45)"/><circle class="cls-3" cx="106.48" cy="106.33" r="83.84" transform="translate(-44 106.44) rotate(-45)"/><circle class="cls-4" cx="106.67" cy="106.18" r="75.89"/><circle class="cls-5" cx="106.67" cy="106.18" r="70.84"/><path class="cls-5" d="M38.82,85.79l-5-2.26s-1.36-.74.9-5.32c0,0,6.82-14.53,11.17-17.81,0,0,.58-1,2.71-.19l2.82,1.61"/><path class="cls-5" d="M109.57,35.41l1.33-4.2s9.43,4.54,19.58,2.7L130,39.28"/><path class="cls-6" d="M130.48,33.91c-5.3-3.08-19.58-2.7-19.58-2.7a34.76,34.76,0,0,0,18.53,2.87"/><path class="cls-7" d="M85.89,155.32s5.76,5.56,10.07,4.46,7.16-1.41,10.27-5.3,6.35-9.8-.08-16.69S89.91,137,89.91,137s-2.72,1.63-4.45,6.24l-1.73,4.61S80.43,151.58,85.89,155.32Z"/><path class="cls-6" d="M88.53,157.45s-3.79-3.24-1-8.76,13.35-18.88,22.29-4.06c0,0-2.87-12.68-15.48-9.49l-3.38,1.32s-3.13.92-4.93,5.55-2.25,5.84-2.25,5.84-1.87,3.86.14,5.67S86.28,156.1,88.53,157.45Z"/><path class="cls-7" d="M89.88,83.58S84,84.92,80.66,77s2.51-12,2.51-12,7.45-7.71,15-.85S101.44,84,89.88,83.58Z"/><path class="cls-6" d="M100.32,66.68s-4.3-4.11-11.79.21a13.51,13.51,0,0,0-7.08,11.74s-4.8-6.75,1-13S95.16,60.08,100.32,66.68Z"/><path class="cls-7" d="M112.68,65.52s-5.5-2.28-4.32-7.88,8.61-9.73,13.68-6S125.27,68.55,112.68,65.52Z"/><path class="cls-6" d="M121.37,51.18c-12.22.63-11.1,12.69-11.1,12.69s-4.47-4.75.36-10.45A8.49,8.49,0,0,1,121.37,51.18Z"/><path class="cls-7" d="M114.32,176.6s58.39-4.58,63.17-68.73c0,0,3.83-42.31-39.46-65.23C138,42.64,198.66,101.62,114.32,176.6Z"/><path class="cls-7" d="M135.78,147.6s-5.72-3.79-3.8-8.24,5.94-9.68,13-8.14,8.95,9.55,4.83,13.46S141.71,152.43,135.78,147.6Z"/><path class="cls-5" d="M150.58,133.59a9,9,0,0,1,1.88,3.5,8.13,8.13,0,0,1-2.08,8.15c-4,3.85-8.63,8.2-15.06,3-.55-.37-6.14-4.31-4.06-9.16,1.38-3.2,5.48-10.43,13.92-8.6A9.78,9.78,0,0,1,150.58,133.59ZM134,145a12.83,12.83,0,0,0,2.17,1.95l.06.05c5.39,4.39,8.93,1,13-2.87a6.6,6.6,0,0,0,1.65-6.62,7.86,7.86,0,0,0-6.11-5.53c-7-1.53-10.64,4.16-12.16,7.69C131.81,141.71,132.86,143.64,134,145Z"/><path class="cls-6" d="M150.42,136.23c-2.13-3.33-5.16-3.23-8.16-2.13-2.23.82-4,2.68-5.66,4.43-4,4.09.16,8.58.16,8.58s-6.21-3.16-3.47-8.53c0,0,3-6.59,8.78-6.71A9.54,9.54,0,0,1,150.42,136.23Z"/><path class="cls-7" d="M144.69,123.08s-10.69-3-8.88-13.87,13.84-10.29,13.84-10.29,11.62-.41,11.95,12.43S148.46,124.89,144.69,123.08Z"/><path class="cls-5" d="M159.31,102.32a13.93,13.93,0,0,1,3.07,9c.16,6.17-2.76,9.38-5.24,11-4.32,2.79-10.23,2.65-12.73,1.49-1-.3-11.19-3.74-9.36-14.71,1.85-11.15,13.84-11,14.6-11a13.36,13.36,0,0,1,8.87,3.36A10.2,10.2,0,0,1,159.31,102.32Zm-20.44,16.15a13.59,13.59,0,0,0,6,3.86l.13,0c1.88.9,7.25,1.22,11.27-1.37,3.12-2,4.64-5.26,4.53-9.64-.1-3.79-1.24-6.73-3.37-8.74a12,12,0,0,0-7.78-2.94h-.07a16.85,16.85,0,0,0-6,1,11.45,11.45,0,0,0-4.77,17.75Z"/><path class="cls-6" d="M159.82,106.61c-5.82-5.92-14-3.32-17.54,2a10.39,10.39,0,0,0,.72,12.59s-7.09-2.62-6.63-10.19,5.12-9.53,5.12-9.53a17.06,17.06,0,0,1,8.93-2,11.09,11.09,0,0,1,9.25,6.69"/><path class="cls-6" d="M48.18,98.59a1.29,1.29,0,0,0-2,1.69,1.29,1.29,0,0,0,2-1.69Z"/><path class="cls-6" d="M42.82,106.21a1.3,1.3,0,0,0-2,1.7,1.3,1.3,0,0,0,2-1.7Z"/><path class="cls-6" d="M49,112.39a1.29,1.29,0,0,0-1.95,1.69A1.29,1.29,0,0,0,49,112.39Z"/><path class="cls-6" d="M43.85,117.23l-.45,0a1,1,0,0,0-.14,1.94l.45,0a1,1,0,1,0,.14-1.93Z"/><path class="cls-6" d="M46.66,126a1,1,0,0,0-1.47,1.27A1,1,0,0,0,46.66,126Z"/><path class="cls-6" d="M54.71,131.81a1,1,0,0,0-1.47,1.27,1,1,0,0,0,1.47-1.27Z"/><path class="cls-6" d="M52.23,140.79a1,1,0,0,0-1.47,1.27,1,1,0,0,0,1.47-1.27Z"/><path class="cls-6" d="M61.64,153.15a1,1,0,0,0-1.47,1.27,1,1,0,0,0,1.47-1.27Z"/><path class="cls-6" d="M60.22,58.69A1,1,0,0,0,58.75,60a1,1,0,0,0,1.47-1.27Z"/><path class="cls-6" d="M68.31,57.67a1,1,0,0,0-1.47,1.27,1,1,0,0,0,1.47-1.27Z"/><path class="cls-6" d="M71,49.39a1,1,0,0,0-1.47,1.27A1,1,0,0,0,71,49.39Z"/><path class="cls-6" d="M83.25,44.32a1,1,0,0,0-1.47,1.27,1,1,0,0,0,1.47-1.27Z"/><path class="cls-6" d="M78.55,52.23a1,1,0,0,0-1.46,1.27,1,1,0,0,0,1.46-1.27Z"/><path class="cls-6" d="M94,41a1,1,0,0,0-1.46,1.27A1,1,0,0,0,94,41Z"/><path class="cls-6" d="M104.36,40.58a1,1,0,0,0-1.47,1.27,1,1,0,0,0,1.47-1.27Z"/></svg>