<svg xmlns="http://www.w3.org/2000/svg" viewBox="0 0 1280 720"><defs><style>.cls-1{fill:#fff;}</style></defs><g id="Dia-2" data-name="Dia"><path class="cls-1" d="M143.14,124.62H65.87c-9.39,0-17.07-6.92-17.07-15.38h0c0-8.46,7.68-15.38,17.07-15.38h77.27c9.39,0,17.07,6.92,17.07,15.38h0C160.21,117.7,152.53,124.62,143.14,124.62Z"/><path class="cls-1" d="M179.78,142.15H102.5c-9.38,0-17.06-6.92-17.06-15.37h0c0-8.46,7.68-15.38,17.06-15.38h77.28c9.39,0,17.07,6.92,17.07,15.38h0C196.85,135.23,189.17,142.15,179.78,142.15Z"/><path class="cls-1" d="M1125.3,179.94H1048c-9.38,0-17.06-6.92-17.06-15.38h0c0-8.45,7.68-15.37,17.06-15.37h77.28c9.39,0,17.07,6.92,17.07,15.37h0C1142.37,173,1134.69,179.94,1125.3,179.94Z"/><path class="cls-1" d="M1155.47,193.92h-77.28c-9.39,0-17.07-6.92-17.07-15.38h0c0-8.45,7.68-15.37,17.07-15.37h77.28c9.38,0,17.07,6.92,17.07,15.37h0C1172.54,187,1164.85,193.92,1155.47,193.92Z"/><path class="cls-1" d="M1179.75,156.39h-77.28c-9.38,0-17.06-6.92-17.06-15.37h0c0-8.46,7.68-15.38,17.06-15.38h77.28c9.39,0,17.07,6.92,17.07,15.38h0C1196.82,149.47,1189.14,156.39,1179.75,156.39Z"/><path class="cls-1" d="M295.5,365.67H218.22c-9.39,0-17.07-6.92-17.07-15.38h0c0-8.46,7.68-15.38,17.07-15.38H295.5c9.38,0,17.06,6.92,17.06,15.38h0C312.56,358.75,304.88,365.67,295.5,365.67Z"/><path class="cls-1" d="M369.08,349.48H291.8c-9.39,0-17.07-6.92-17.07-15.38h0c0-8.46,7.68-15.38,17.07-15.38h77.28c9.38,0,17.06,6.92,17.06,15.38h0C386.14,342.56,378.46,349.48,369.08,349.48Z"/><path class="cls-1" d="M347.74,328.14H270.46c-9.39,0-17.07-6.92-17.07-15.38h0c0-8.45,7.68-15.37,17.07-15.37h77.28c9.38,0,17.06,6.92,17.06,15.37h0C364.8,321.22,357.12,328.14,347.74,328.14Z"/><path class="cls-1" d="M426.1,600.17H348.83c-9.39,0-17.07-6.92-17.07-15.37h0c0-8.46,7.68-15.38,17.07-15.38H426.1c9.39,0,17.07,6.92,17.07,15.38h0C443.17,593.25,435.49,600.17,426.1,600.17Z"/><path class="cls-1" d="M394.31,571.35H317c-9.39,0-17.07-6.92-17.07-15.37h0c0-8.46,7.68-15.38,17.07-15.38h77.28c9.38,0,17.06,6.92,17.06,15.38h0C411.37,564.43,403.69,571.35,394.31,571.35Z"/><rect class="cls-1" x="1030.48" y="580.91" width="153.79" height="33.85" rx="16.92"/><rect class="cls-1" x="1055.5" y="552.95" width="86.09" height="33.85" rx="16.92"/><rect class="cls-1" x="1113.63" y="612.55" width="91.98" height="33.85" rx="16.92"/><rect class="cls-1" x="468.64" y="130.34" width="236.2" height="33.85" rx="16.92"/><rect class="cls-1" x="537.8" y="160.51" width="236.2" height="33.85" rx="16.92"/><rect class="cls-1" x="453.92" y="189.94" width="236.2" height="33.85" rx="16.92"/><rect class="cls-1" x="620.95" y="100.91" width="103.01" height="33.85" rx="16.92"/><rect class="cls-1" x="709.48" y="439.81" width="183.22" height="33.85" rx="16.92"/><rect class="cls-1" x="663.12" y="466.29" width="183.22" height="33.85" rx="16.92"/><rect class="cls-1" x="47.48" y="657.81" width="183.22" height="33.85" rx="16.92"/><rect class="cls-1" x="1.12" y="684.29" width="183.22" height="33.85" rx="16.92"/></g></svg>