<svg id="Mesa_1" data-name="Mesa 1" xmlns="http://www.w3.org/2000/svg" xmlns:xlink="http://www.w3.org/1999/xlink" viewBox="0 0 1920 1080"><defs><style>.cls-1{fill:none;}.cls-2{clip-path:url(#clip-path);}.cls-3{fill:#93dd05;}.cls-4{fill:#88c600;}.cls-5{fill:#c2eab5;}.cls-6{fill:#acc490;}.cls-7{fill:#83cc11;}.cls-8{fill:#1a9900;}.cls-9{fill:#9e820d;}.cls-10{fill:#2dc133;}.cls-11{fill:#3daa0b;}.cls-12{fill:#407701;}.cls-13{fill:#83ba09;}.cls-14{fill:#2faf05;}.cls-15{fill:#007f00;}.cls-16{fill:#16b200;}.cls-17{fill:#f7998d;}.cls-18{fill:#fef6a1;}.cls-19{fill:#ef4e72;}.cls-20{fill:#ffd773;}</style><clipPath id="clip-path"><rect class="cls-1" width="1920" height="1080"/></clipPath></defs><g class="cls-2"><path class="cls-3" d="M361.26,763.73c-126.49,0-230.09,106.9-239.06,242.41H600.31C591.35,870.63,487.75,763.73,361.26,763.73Z"/><path class="cls-4" d="M1532.42,708.31c-118.27,0-215.13,109.29-223.51,247.84h447C1747.56,817.6,1650.69,708.31,1532.42,708.31Z"/><path class="cls-5" d="M601.13,717.16c-120.46,0-181.44,107.12-190,242.91h380C782.57,824.28,721.59,717.16,601.13,717.16Z"/><path class="cls-6" d="M1046.29,717.16C1016.11,636.4,967.78,585.07,900,585.07S783.82,636.4,753.64,717.16c-21.68,58-34,131.19-37.46,211.47h367.57C1080.29,848.35,1068,775.16,1046.29,717.16Z"/><rect class="cls-7" x="1176.44" y="677.63" width="4.32" height="42.5"/><path class="cls-7" d="M1205,676.59a26.35,26.35,0,0,1-52.7,0c0-14.55,26.35-52.26,26.35-52.26S1205,662,1205,676.59Z"/><rect class="cls-7" x="1247.6" y="687.27" width="5.42" height="53.35"/><circle class="cls-7" cx="1250.31" cy="646.44" r="18.72"/><circle class="cls-7" cx="1250.31" cy="613.97" r="11.86"/><circle class="cls-7" cx="1250.31" cy="685.96" r="33.08"/><path class="cls-3" d="M1196,708.31c-190.75,0-287.32,97.16-300.83,220.32h601.67C1483.33,805.47,1386.77,708.31,1196,708.31Z"/><rect class="cls-8" x="-61.37" y="956.15" width="2156.42" height="123.85" rx="19.17"/><polygon class="cls-9" points="1614.12 855.1 1645.52 785.14 1638.55 782.01 1612.96 839.04 1557.23 751.4 1550.79 755.5 1614.12 855.1"/><rect class="cls-9" x="1609.72" y="847.07" width="7.64" height="56.4"/><path class="cls-10" d="M1621,796h64.65a23.35,23.35,0,0,0,23.28-23.28h0a23.35,23.35,0,0,0-23.28-23.27H1621a23.35,23.35,0,0,0-23.28,23.27h0A23.35,23.35,0,0,0,1621,796Z"/><path class="cls-10" d="M1528.24,765.89h42.62A23.18,23.18,0,0,0,1594,742.78h0a23.18,23.18,0,0,0-23.11-23.11h-42.62a23.18,23.18,0,0,0-23.11,23.11h0A23.18,23.18,0,0,0,1528.24,765.89Z"/><path class="cls-10" d="M1594.1,745.84h64.59a16.84,16.84,0,0,0,16.78-16.79h0a16.84,16.84,0,0,0-16.78-16.79H1594.1a16.85,16.85,0,0,0-16.79,16.79h0A16.85,16.85,0,0,0,1594.1,745.84Z"/><path class="cls-10" d="M1592.54,709.33h22.69a11.21,11.21,0,0,0,11.17-11.17h0A11.2,11.2,0,0,0,1615.23,687h-22.69a11.2,11.2,0,0,0-11.17,11.17h0A11.21,11.21,0,0,0,1592.54,709.33Z"/><path class="cls-10" d="M1550.79,802.72h30.64a15.13,15.13,0,0,0,15.09-15.09h0a15.13,15.13,0,0,0-15.09-15.08h-30.64a15.13,15.13,0,0,0-15.09,15.08h0A15.13,15.13,0,0,0,1550.79,802.72Z"/><path class="cls-8" d="M42.88,944.55l9.24,11.87H6.81l9.24-11.87A17,17,0,0,1,42.88,944.55Z"/><path class="cls-8" d="M88.19,944.55l9.24,11.87H52.12l9.24-11.87A17,17,0,0,1,88.19,944.55Z"/><path class="cls-8" d="M133.51,944.55l9.23,11.87H97.43l9.24-11.87A17,17,0,0,1,133.51,944.55Z"/><path class="cls-8" d="M178.82,944.55l9.24,11.87H142.74L152,944.55A17,17,0,0,1,178.82,944.55Z"/><path class="cls-8" d="M224.13,944.55l9.24,11.87H188.06l9.24-11.87A17,17,0,0,1,224.13,944.55Z"/><path class="cls-8" d="M269.44,944.55l9.24,11.87H233.37l9.24-11.87A17,17,0,0,1,269.44,944.55Z"/><path class="cls-8" d="M314.75,944.55,324,956.42H278.68l9.24-11.87A17,17,0,0,1,314.75,944.55Z"/><path class="cls-8" d="M360.07,944.55l9.23,11.87H324l9.24-11.87A17,17,0,0,1,360.07,944.55Z"/><path class="cls-8" d="M405.38,944.55l9.24,11.87H369.3l9.24-11.87A17,17,0,0,1,405.38,944.55Z"/><path class="cls-8" d="M450.69,944.55l9.24,11.87H414.62l9.24-11.87A17,17,0,0,1,450.69,944.55Z"/><path class="cls-8" d="M496,944.55l9.24,11.87H459.93l9.24-11.87A17,17,0,0,1,496,944.55Z"/><path class="cls-8" d="M541.31,944.55l9.24,11.87H505.24l9.24-11.87A17,17,0,0,1,541.31,944.55Z"/><path class="cls-8" d="M586.63,944.55l9.24,11.87H550.55l9.24-11.87A17,17,0,0,1,586.63,944.55Z"/><path class="cls-8" d="M631.94,944.55l9.24,11.87H595.87l9.23-11.87A17,17,0,0,1,631.94,944.55Z"/><path class="cls-8" d="M677.25,944.55l9.24,11.87H641.18l9.24-11.87A17,17,0,0,1,677.25,944.55Z"/><path class="cls-8" d="M722.56,944.55l9.24,11.87H686.49l9.24-11.87A17,17,0,0,1,722.56,944.55Z"/><path class="cls-8" d="M767.88,944.55l9.23,11.87H731.8L741,944.55A17,17,0,0,1,767.88,944.55Z"/><path class="cls-8" d="M813.19,944.55l9.24,11.87H777.11l9.24-11.87A17,17,0,0,1,813.19,944.55Z"/><path class="cls-8" d="M858.5,944.55l9.24,11.87H822.43l9.23-11.87A17,17,0,0,1,858.5,944.55Z"/><path class="cls-8" d="M903.81,944.55l9.24,11.87H867.74L877,944.55A17,17,0,0,1,903.81,944.55Z"/><path class="cls-8" d="M949.12,944.55l9.24,11.87H913.05l9.24-11.87A17,17,0,0,1,949.12,944.55Z"/><path class="cls-8" d="M994.44,944.55l9.23,11.87H958.36l9.24-11.87A17,17,0,0,1,994.44,944.55Z"/><path class="cls-8" d="M1039.75,944.55l9.24,11.87h-45.32l9.24-11.87A17,17,0,0,1,1039.75,944.55Z"/><path class="cls-8" d="M1085.06,944.55l9.24,11.87H1049l9.23-11.87A17,17,0,0,1,1085.06,944.55Z"/><path class="cls-8" d="M1130.37,944.55l9.24,11.87H1094.3l9.24-11.87A17,17,0,0,1,1130.37,944.55Z"/><path class="cls-8" d="M1175.68,944.55l9.24,11.87h-45.31l9.24-11.87A17,17,0,0,1,1175.68,944.55Z"/><path class="cls-8" d="M1221,944.55l9.23,11.87h-45.31l9.24-11.87A17,17,0,0,1,1221,944.55Z"/><path class="cls-8" d="M1266.31,944.55l9.24,11.87h-45.32l9.24-11.87A17,17,0,0,1,1266.31,944.55Z"/><path class="cls-8" d="M1311.62,944.55l9.24,11.87h-45.31l9.24-11.87A17,17,0,0,1,1311.62,944.55Z"/><path class="cls-8" d="M1356.93,944.55l9.24,11.87h-45.31l9.24-11.87A17,17,0,0,1,1356.93,944.55Z"/><path class="cls-8" d="M1402.24,944.55l9.24,11.87h-45.31l9.24-11.87A17,17,0,0,1,1402.24,944.55Z"/><path class="cls-8" d="M1447.56,944.55l9.23,11.87h-45.31l9.24-11.87A17,17,0,0,1,1447.56,944.55Z"/><path class="cls-8" d="M1492.87,944.55l9.24,11.87h-45.32l9.24-11.87A17,17,0,0,1,1492.87,944.55Z"/><path class="cls-8" d="M1538.18,944.55l9.24,11.87h-45.31l9.24-11.87A17,17,0,0,1,1538.18,944.55Z"/><path class="cls-8" d="M1583.49,944.55l9.24,11.87h-45.31l9.24-11.87A17,17,0,0,1,1583.49,944.55Z"/><path class="cls-8" d="M1628.8,944.55l9.24,11.87h-45.31l9.24-11.87A17,17,0,0,1,1628.8,944.55Z"/><path class="cls-8" d="M1674.12,944.55l9.24,11.87H1638l9.24-11.87A17,17,0,0,1,1674.12,944.55Z"/><path class="cls-8" d="M1719.43,944.55l9.24,11.87h-45.31l9.23-11.87A17,17,0,0,1,1719.43,944.55Z"/><path class="cls-8" d="M1764.74,944.55l9.24,11.87h-45.31l9.24-11.87A17,17,0,0,1,1764.74,944.55Z"/><path class="cls-8" d="M1810.05,944.55l9.24,11.87H1774l9.24-11.87A17,17,0,0,1,1810.05,944.55Z"/><path class="cls-8" d="M1855.36,944.55l9.24,11.87h-45.31l9.24-11.87A17,17,0,0,1,1855.36,944.55Z"/><path class="cls-8" d="M1900.68,944.55l9.24,11.87H1864.6l9.24-11.87A17,17,0,0,1,1900.68,944.55Z"/><path class="cls-8" d="M1946,944.55l9.24,11.87h-45.31l9.23-11.87A17,17,0,0,1,1946,944.55Z"/><path class="cls-11" d="M1757.64,896.49h-1187a66.83,66.83,0,0,0-66.69,62.64H1824.33A66.83,66.83,0,0,0,1757.64,896.49Z"/><path class="cls-12" d="M503.94,959.13c-.09,1.39-.14,2.78-.14,4.19h0a66.83,66.83,0,0,0,66.83,66.83h1187a66.83,66.83,0,0,0,66.83-66.83h0c0-1.41-.06-2.8-.14-4.19Z"/><rect class="cls-9" x="1419.22" y="807.36" width="9.04" height="88.98"/><path class="cls-8" d="M1478.91,805.18a55.17,55.17,0,1,1-110.34,0c0-30.46,55.17-109.42,55.17-109.42S1478.91,774.72,1478.91,805.18Z"/><rect class="cls-9" x="845.16" y="781.2" width="10.69" height="105.24" transform="translate(1701.02 1667.63) rotate(180)"/><path class="cls-8" d="M796.31,774.46c0,30.88,24.26,55.91,54.2,55.91s54.2-25,54.2-55.91-24.27-113.05-54.2-113.05S796.31,743.58,796.31,774.46Z"/><path class="cls-8" d="M914.05,805.65s-.15-.3-.46-.83l-1.26-2.15c-1.06-1.75-2.51-4-4-6a75.65,75.65,0,0,0-6.84-7.55l-.55,2.11-.62,2.43c-.23.94-.7,1.94-1.08,3.07a51.84,51.84,0,0,1-8.67,15.1,51,51,0,0,1-13.26,11.33,39.79,39.79,0,0,1-5.09,2.71l-1.45.71-.54.19a30.43,30.43,0,0,0,2.57,1.77c1.56,1,3.76,2.32,6.13,3.54a66.79,66.79,0,0,0,6.67,2.85c1.91.71,3.25,1.14,3.25,1.14a19.26,19.26,0,0,0,5.9.78,17.21,17.21,0,0,0,6-1.06,22.47,22.47,0,0,0,5.56-2.79,31.31,31.31,0,0,0,4.66-4.27,29.91,29.91,0,0,0,3.33-5.38,20.84,20.84,0,0,0,1.72-6,25.88,25.88,0,0,0,.27-3,21.9,21.9,0,0,0-.32-3A20.12,20.12,0,0,0,914.05,805.65Z"/><path class="cls-8" d="M913.87,740.53s-4.9-2.2-9.87-4.16-9.9-3.75-9.9-3.75,1.1,3.65,2.54,9.17,3.13,12.94,4.29,20.27c.63,3.68,1,7.29,1.33,10.61a53.88,53.88,0,0,1,.12,8.52c-.09,1.19,0,2.3-.2,3.26l-.39,2.48c-.2,1.38-.32,2.17-.32,2.17a77.17,77.17,0,0,0,9.26-4.28,88.8,88.8,0,0,0,8.81-6c6.36-5.13,8.73-13.51,7.52-20.92A22.73,22.73,0,0,0,913.87,740.53Z"/><path class="cls-8" d="M891,680s-1.31-.23-3.33-.5-4.67-.57-7.28-.8-5.27-.31-7.2-.36-3.22,0-3.22,0,2.05,2.81,4.78,7.52a169.78,169.78,0,0,1,9.11,18.21c3,6.9,5.62,14,7.42,19.46s2.87,9.08,2.87,9.08l2-2.63,4.28-5.91c3.07-4.34,6-8.87,6-8.87A23.16,23.16,0,0,0,891,680Z"/><path class="cls-8" d="M787,805.65s.14-.3.45-.83l1.26-2.15c1.06-1.75,2.52-4,4-6a74.89,74.89,0,0,1,6.83-7.55l.56,2.11c.17.67.38,1.49.61,2.43s.7,1.94,1.09,3.07a51.79,51.79,0,0,0,8.66,15.1,51.23,51.23,0,0,0,13.27,11.33,39.79,39.79,0,0,0,5.09,2.71l1.45.71.53.19s-1,.8-2.56,1.77-3.76,2.32-6.13,3.54a67.79,67.79,0,0,1-6.67,2.85c-1.91.71-3.25,1.14-3.25,1.14a19.33,19.33,0,0,1-5.91.78,17.29,17.29,0,0,1-6-1.06,22.24,22.24,0,0,1-5.55-2.79,31.38,31.38,0,0,1-4.67-4.27,29.3,29.3,0,0,1-3.32-5.38,20.22,20.22,0,0,1-1.72-6,22.14,22.14,0,0,1-.27-3,21.9,21.9,0,0,1,.32-3A19.81,19.81,0,0,1,787,805.65Z"/><path class="cls-8" d="M787.16,740.53s4.9-2.2,9.87-4.16,9.91-3.75,9.91-3.75-1.11,3.65-2.55,9.17-3.12,12.94-4.29,20.27c-.62,3.68-1,7.29-1.32,10.61a54,54,0,0,0-.13,8.52c.09,1.19.05,2.3.21,3.26l.39,2.48c.2,1.38.31,2.17.31,2.17a77.45,77.45,0,0,1-9.25-4.28,89.59,89.59,0,0,1-8.82-6c-6.35-5.13-8.73-13.51-7.51-20.92A22.72,22.72,0,0,1,787.16,740.53Z"/><path class="cls-8" d="M810.09,680s1.31-.23,3.33-.5,4.67-.57,7.28-.8,5.27-.31,7.19-.36,3.23,0,3.23,0-2,2.81-4.79,7.52a173.6,173.6,0,0,0-9.11,18.21c-3,6.9-5.61,14-7.41,19.46s-2.87,9.08-2.87,9.08L805,730l-4.29-5.91c-3.06-4.34-6-8.87-6-8.87a22.89,22.89,0,0,1-1.7-21.65A22.62,22.62,0,0,1,810.09,680Z"/><rect class="cls-11" x="680.04" y="807.37" width="8.09" height="79.67"/><path class="cls-11" d="M733.47,805.42a49.39,49.39,0,0,1-98.78,0c0-27.28,49.39-98,49.39-98S733.47,778.14,733.47,805.42Z"/><path class="cls-8" d="M607,884.89l9.31,11.88H570.63l9.31-11.88A17.17,17.17,0,0,1,607,884.89Z"/><path class="cls-8" d="M652.63,884.89l9.31,11.88H616.28l9.31-11.88A17.18,17.18,0,0,1,652.63,884.89Z"/><path class="cls-8" d="M698.28,884.89l9.31,11.88H661.94l9.3-11.88A17.18,17.18,0,0,1,698.28,884.89Z"/><path class="cls-8" d="M743.94,884.89l9.3,11.88H707.59l9.31-11.88A17.18,17.18,0,0,1,743.94,884.89Z"/><path class="cls-8" d="M789.59,884.89l9.31,11.88H753.24l9.31-11.88A17.18,17.18,0,0,1,789.59,884.89Z"/><path class="cls-8" d="M835.24,884.89l9.31,11.88H798.9l9.31-11.88A17.17,17.17,0,0,1,835.24,884.89Z"/><path class="cls-8" d="M880.9,884.89l9.31,11.88H844.55l9.31-11.88A17.18,17.18,0,0,1,880.9,884.89Z"/><path class="cls-8" d="M926.55,884.89l9.31,11.88H890.21l9.31-11.88A17.17,17.17,0,0,1,926.55,884.89Z"/><path class="cls-8" d="M972.21,884.89l9.31,11.88H935.86l9.31-11.88A17.18,17.18,0,0,1,972.21,884.89Z"/><path class="cls-8" d="M1017.86,884.89l9.31,11.88H981.52l9.3-11.88A17.18,17.18,0,0,1,1017.86,884.89Z"/><path class="cls-8" d="M1063.52,884.89l9.3,11.88h-45.65l9.31-11.88A17.18,17.18,0,0,1,1063.52,884.89Z"/><path class="cls-8" d="M1109.17,884.89l9.31,11.88h-45.66l9.31-11.88A17.18,17.18,0,0,1,1109.17,884.89Z"/><path class="cls-8" d="M1154.83,884.89l9.3,11.88h-45.65l9.31-11.88A17.18,17.18,0,0,1,1154.83,884.89Z"/><path class="cls-8" d="M1200.48,884.89l9.31,11.88h-45.66l9.31-11.88A17.18,17.18,0,0,1,1200.48,884.89Z"/><path class="cls-8" d="M1246.13,884.89l9.31,11.88h-45.65l9.31-11.88A17.17,17.17,0,0,1,1246.13,884.89Z"/><path class="cls-8" d="M1291.79,884.89l9.31,11.88h-45.66l9.31-11.88A17.18,17.18,0,0,1,1291.79,884.89Z"/><path class="cls-8" d="M1337.44,884.89l9.31,11.88H1301.1l9.3-11.88A17.18,17.18,0,0,1,1337.44,884.89Z"/><path class="cls-8" d="M1383.1,884.89l9.3,11.88h-45.65l9.31-11.88A17.18,17.18,0,0,1,1383.1,884.89Z"/><path class="cls-8" d="M1428.75,884.89l9.31,11.88H1392.4l9.31-11.88A17.18,17.18,0,0,1,1428.75,884.89Z"/><path class="cls-8" d="M1474.41,884.89l9.3,11.88h-45.65l9.31-11.88A17.18,17.18,0,0,1,1474.41,884.89Z"/><path class="cls-8" d="M1520.06,884.89l9.31,11.88h-45.66l9.31-11.88A17.18,17.18,0,0,1,1520.06,884.89Z"/><path class="cls-8" d="M1565.71,884.89l9.31,11.88h-45.65l9.31-11.88A17.17,17.17,0,0,1,1565.71,884.89Z"/><path class="cls-8" d="M1611.37,884.89l9.31,11.88H1575l9.31-11.88A17.18,17.18,0,0,1,1611.37,884.89Z"/><path class="cls-8" d="M1657,884.89l9.31,11.88h-45.65l9.3-11.88A17.18,17.18,0,0,1,1657,884.89Z"/><path class="cls-8" d="M1702.68,884.89l9.3,11.88h-45.65l9.31-11.88A17.18,17.18,0,0,1,1702.68,884.89Z"/><path class="cls-8" d="M1748.33,884.89l9.31,11.88H1712l9.31-11.88A17.18,17.18,0,0,1,1748.33,884.89Z"/><rect class="cls-11" x="984.21" y="796.96" width="7.19" height="70.74"/><path class="cls-11" d="M1024.24,792.43c0,20.76-16.32,37.59-36.44,37.59s-36.43-16.83-36.43-37.59,16.31-76,36.43-76S1024.24,771.67,1024.24,792.43Z"/><path class="cls-11" d="M945.09,813.4s.1-.2.31-.56.49-.85.85-1.44c.71-1.18,1.69-2.68,2.7-4a51.55,51.55,0,0,1,4.59-5.08l.38,1.42c.11.46.25,1,.41,1.64s.47,1.3.73,2.06a34.43,34.43,0,0,0,14.74,17.77,28.09,28.09,0,0,0,3.42,1.82l1,.48.36.12s-.68.54-1.73,1.2-2.53,1.55-4.12,2.38a47.46,47.46,0,0,1-4.48,1.91c-1.28.47-2.18.76-2.18.76a13,13,0,0,1-4,.53,11.84,11.84,0,0,1-4-.71,15.37,15.37,0,0,1-3.73-1.88,20.77,20.77,0,0,1-3.14-2.87,19.51,19.51,0,0,1-2.23-3.61,13.61,13.61,0,0,1-1.16-4,13.91,13.91,0,0,1-.18-2,15.48,15.48,0,0,1,.21-2A13.57,13.57,0,0,1,945.09,813.4Z"/><path class="cls-11" d="M945.21,769.63s3.29-1.48,6.63-2.8,6.66-2.52,6.66-2.52-.74,2.45-1.71,6.16-2.1,8.7-2.88,13.63c-.42,2.47-.69,4.9-.89,7.13a36.15,36.15,0,0,0-.08,5.73c0,.8,0,1.55.13,2.19s.19,1.2.26,1.67c.14.92.21,1.45.21,1.45a50.92,50.92,0,0,1-6.21-2.87,59.75,59.75,0,0,1-5.93-4,15,15,0,0,1-5-14.06A15.23,15.23,0,0,1,945.21,769.63Z"/><path class="cls-11" d="M960.62,728.93s.88-.16,2.24-.33,3.14-.39,4.89-.54,3.54-.21,4.84-.24,2.17,0,2.17,0-1.38,1.89-3.22,5a116,116,0,0,0-6.12,12.25c-2,4.63-3.78,9.44-5,13.08s-1.93,6.1-1.93,6.1l-1.34-1.77-2.87-4c-2.07-2.92-4-6-4-6a15.36,15.36,0,0,1-1.14-14.55A15.2,15.2,0,0,1,960.62,728.93Z"/><path class="cls-11" d="M1030.5,813.4s-.1-.2-.3-.56l-.85-1.44c-.71-1.18-1.69-2.68-2.71-4a50.13,50.13,0,0,0-4.59-5.08s-.14.52-.37,1.42l-.42,1.64c-.16.63-.47,1.3-.73,2.06a34.3,34.3,0,0,1-14.74,17.77,28.09,28.09,0,0,1-3.42,1.82c-.42.2-.75.36-1,.48l-.36.12a19.82,19.82,0,0,0,1.72,1.2c1,.67,2.53,1.55,4.12,2.38a46.47,46.47,0,0,0,4.49,1.91c1.28.47,2.18.76,2.18.76a13,13,0,0,0,4,.53,11.88,11.88,0,0,0,4-.71,15.56,15.56,0,0,0,3.73-1.88,21.19,21.19,0,0,0,3.13-2.87,19,19,0,0,0,2.24-3.61,14.24,14.24,0,0,0,1.16-4,17.41,17.41,0,0,0,.18-2,14,14,0,0,0-.22-2A13.26,13.26,0,0,0,1030.5,813.4Z"/><path class="cls-11" d="M1030.39,769.63s-3.3-1.48-6.64-2.8-6.66-2.52-6.66-2.52.74,2.45,1.71,6.16,2.1,8.7,2.89,13.63c.42,2.47.69,4.9.89,7.13a36.15,36.15,0,0,1,.08,5.73c-.06.8,0,1.55-.14,2.19s-.19,1.2-.26,1.67c-.13.92-.21,1.45-.21,1.45a50.65,50.65,0,0,0,6.22-2.87,61.16,61.16,0,0,0,5.93-4,15,15,0,0,0,5-14.06A15.27,15.27,0,0,0,1030.39,769.63Z"/><path class="cls-11" d="M1015,728.93s-.88-.16-2.23-.33-3.14-.39-4.9-.54-3.54-.21-4.83-.24-2.17,0-2.17,0,1.37,1.89,3.21,5a114,114,0,0,1,6.13,12.25c2,4.63,3.77,9.44,5,13.08s1.93,6.1,1.93,6.1l1.34-1.77,2.88-4c2.06-2.92,4-6,4-6a15.39,15.39,0,0,0,1.14-14.55A15.22,15.22,0,0,0,1015,728.93Z"/><rect class="cls-8" x="1240.75" y="811.39" width="7.04" height="69.34"/><polygon class="cls-8" points="1244.27 725.99 1279.65 837.29 1208.89 837.29 1244.27 725.99"/><path class="cls-13" d="M774.81,920.59A64.22,64.22,0,0,0,839,984.81h450a64.23,64.23,0,0,0,64.22-64.22H774.81Z"/><path class="cls-7" d="M1289,856.37H839a64.22,64.22,0,0,0-64.22,64.22h578.41A64.22,64.22,0,0,0,1289,856.37Z"/><circle class="cls-7" cx="676.49" cy="1027.23" r="52.77"/><circle class="cls-7" cx="745.67" cy="1035.61" r="32.45"/><circle class="cls-7" cx="-5.99" cy="1035.61" r="32.45"/><circle class="cls-7" cx="1553.59" cy="1020.03" r="59.97"/><circle class="cls-7" cx="1493.62" cy="1035.61" r="32.46"/><circle class="cls-7" cx="1616.67" cy="1034.89" r="45.11"/><path class="cls-9" d="M2092.83,1080H-172.83a13.76,13.76,0,0,1-13.76-13.76h0a13.76,13.76,0,0,1,13.76-13.77H2092.83a13.76,13.76,0,0,1,13.76,13.77h0A13.76,13.76,0,0,1,2092.83,1080Z"/><rect class="cls-9" x="78.95" y="939.34" width="11.49" height="113.12"/><circle class="cls-10" cx="84.69" cy="852.78" r="39.7"/><circle class="cls-10" cx="84.69" cy="783.92" r="25.14" transform="translate(-697.79 686.86) rotate(-76.76)"/><circle class="cls-10" cx="84.69" cy="936.57" r="70.14"/><path class="cls-14" d="M109.84,783.92a25.15,25.15,0,0,0-25.15-25.14v50.29A25.15,25.15,0,0,0,109.84,783.92Z"/><path class="cls-14" d="M117.77,874.72a39.69,39.69,0,0,0-33.08-61.64v193.63a70.14,70.14,0,0,0,33.08-132Z"/><path class="cls-10" d="M2028.37,894.19c0,43.07-33.85,78-75.6,78s-75.6-34.92-75.6-78,33.85-157.68,75.6-157.68S2028.37,851.11,2028.37,894.19Z"/><path class="cls-10" d="M1864.14,937.69s.2-.41.63-1.15l1.77-3c1.47-2.44,3.5-5.55,5.61-8.4a104.62,104.62,0,0,1,9.53-10.54s.28,1.08.78,2.95c.24.94.52,2.08.85,3.39s1,2.71,1.52,4.28a72.44,72.44,0,0,0,12.08,21.07,71.52,71.52,0,0,0,18.51,15.8,56.43,56.43,0,0,0,7.09,3.78l2,1,.76.27s-1.41,1.1-3.58,2.47-5.25,3.23-8.56,4.94a93.18,93.18,0,0,1-9.3,4c-2.66,1-4.53,1.58-4.53,1.58a26.06,26.06,0,0,1-8.24,1.09,24,24,0,0,1-8.31-1.48,31.29,31.29,0,0,1-7.75-3.89,43.46,43.46,0,0,1-6.5-5.95,41,41,0,0,1-4.64-7.5,28.57,28.57,0,0,1-2.4-8.33,33.44,33.44,0,0,1-.38-4.2,33.1,33.1,0,0,1,.44-4.24A28.31,28.31,0,0,1,1864.14,937.69Z"/><path class="cls-10" d="M1864.38,846.87s6.84-3.08,13.77-5.81,13.82-5.23,13.82-5.23-1.54,5.09-3.55,12.79-4.36,18-6,28.28c-.87,5.13-1.42,10.17-1.84,14.79a74.27,74.27,0,0,0-.17,11.89c.12,1.66.06,3.21.28,4.54l.54,3.46.44,3a107,107,0,0,1-12.9-6,125.82,125.82,0,0,1-12.3-8.4c-8.86-7.16-12.18-18.85-10.49-29.19A31.69,31.69,0,0,1,1864.38,846.87Z"/><path class="cls-10" d="M1896.36,762.42s1.83-.33,4.64-.69,6.52-.8,10.16-1.13,7.35-.42,10-.49,4.5,0,4.5,0-2.86,3.92-6.68,10.49a242,242,0,0,0-12.71,25.4c-4.18,9.62-7.83,19.6-10.34,27.15s-4,12.66-4,12.66l-2.78-3.67-6-8.24c-4.28-6-8.4-12.37-8.4-12.37a31.92,31.92,0,0,1-2.37-30.2A31.53,31.53,0,0,1,1896.36,762.42Z"/><path class="cls-10" d="M1919.59,760.16c-2.45.08-5.4.22-8.43.44-3.64.33-7.35.76-10.16,1.13s-4.64.68-4.64.68a31.56,31.56,0,0,0-23.91,18.94,31.92,31.92,0,0,0,2.37,30.2s4.12,6.32,8.4,12.37l5.17,7.13q-1,3.41-1.9,6.78c-2.43.9-5.38,2-8.34,3.23-6.93,2.73-13.77,5.81-13.77,5.81A31.69,31.69,0,0,0,1846,871.06c-1.69,10.34,1.63,22,10.49,29.19a125.82,125.82,0,0,0,12.3,8.4,106.86,106.86,0,0,0,10.8,5.12c.19.77.41,1.53.63,2.29a102.23,102.23,0,0,0-8.06,9.08c-2.11,2.85-4.14,6-5.61,8.4l-1.77,3c-.43.74-.63,1.15-.63,1.15a28.31,28.31,0,0,0-2.6,7.9,33.1,33.1,0,0,0-.44,4.24,33.44,33.44,0,0,0,.38,4.2,28.57,28.57,0,0,0,2.4,8.33,41,41,0,0,0,4.64,7.5,43.46,43.46,0,0,0,6.5,5.95,31.29,31.29,0,0,0,7.75,3.89,24,24,0,0,0,8.31,1.48,26.06,26.06,0,0,0,8.24-1.09s1.87-.6,4.53-1.58a93.18,93.18,0,0,0,9.3-4c3.31-1.71,6.37-3.53,8.56-4.94s3.58-2.47,3.58-2.47l-.76-.27-2-1a54.85,54.85,0,0,1-7.09-3.77,70.07,70.07,0,0,1-7.28-5,73.74,73.74,0,0,0,44.62,15V736.51C1940.86,736.52,1929.61,745.85,1919.59,760.16Z"/><polygon class="cls-9" points="384.16 989.3 334.23 878.04 345.31 873.07 386.01 963.75 474.62 824.38 484.87 830.9 384.16 989.3"/><rect class="cls-9" x="379.01" y="976.53" width="12.15" height="89.7"/><path class="cls-14" d="M233.61,854.81c-.11,1.16-.18,2.32-.18,3.5h0a37.13,37.13,0,0,0,37,37H373.26a37.13,37.13,0,0,0,37-37h0c0-1.18-.07-2.34-.18-3.5Z"/><path class="cls-10" d="M373.26,821.29H270.45a37.13,37.13,0,0,0-36.84,33.52H410.1A37.13,37.13,0,0,0,373.26,821.29Z"/><path class="cls-10" d="M442.69,788.84A26.77,26.77,0,0,0,416,762.14H313.28a26.78,26.78,0,0,0-26.7,26.7c0,.08,0,.17,0,.26H442.68C442.68,789,442.69,788.92,442.69,788.84Z"/><path class="cls-14" d="M286.6,789.1a26.76,26.76,0,0,0,26.68,26.43H416a26.76,26.76,0,0,0,26.68-26.43Z"/><path class="cls-10" d="M520.73,773.93H453a36.84,36.84,0,0,0-36.67,35.14H557.4A36.84,36.84,0,0,0,520.73,773.93Z"/><path class="cls-14" d="M416.29,809.07c0,.53-.08,1.06-.08,1.6h0A36.86,36.86,0,0,0,453,847.42h67.77a36.85,36.85,0,0,0,36.75-36.75h0c0-.54-.06-1.07-.08-1.6Z"/><path class="cls-10" d="M418.47,722H382.39a17.8,17.8,0,0,0-17.7,16.64h71.49A17.81,17.81,0,0,0,418.47,722Z"/><path class="cls-14" d="M364.69,738.59c0,.37-.06.74-.06,1.12a17.81,17.81,0,0,0,17.76,17.76h36.08a17.81,17.81,0,0,0,17.76-17.76c0-.38,0-.75-.05-1.12Z"/><path class="cls-10" d="M484.88,858H436.14a24.05,24.05,0,0,0-23.93,22.71H508.8A24,24,0,0,0,484.88,858Z"/><path class="cls-14" d="M412.21,880.72c0,.43-.06.85-.06,1.28h0a24.05,24.05,0,0,0,24,24h48.74a24.06,24.06,0,0,0,24-24h0c0-.43-.05-.85-.07-1.28Z"/><rect class="cls-9" x="1116.97" y="903.59" width="14.91" height="146.79" transform="translate(2248.84 1953.97) rotate(180)"/><path class="cls-15" d="M1124.42,719.49V991a91,91,0,0,0,91-91C1215.43,849.73,1124.42,719.49,1124.42,719.49Z"/><path class="cls-16" d="M1033.41,900a91,91,0,0,0,91,91V719.49S1033.41,849.73,1033.41,900Z"/><path class="cls-9" d="M248.38,986.75,287,1053.56H195.61l38.57-66.81A8.2,8.2,0,0,1,248.38,986.75Z"/><path class="cls-9" d="M506.62,1051.77h0a13.12,13.12,0,0,1-11.37,19.69H449.38A13.13,13.13,0,0,1,438,1051.77h0C453.26,1025.36,491.38,1025.36,506.62,1051.77Z"/><path class="cls-9" d="M1862.58,986.75l38.57,66.81H1809.8l38.57-66.81A8.2,8.2,0,0,1,1862.58,986.75Z"/><rect class="cls-9" x="1727.55" y="942.7" width="12.48" height="122.86"/><polygon class="cls-16" points="1733.79 791.38 1796.47 988.6 1671.1 988.6 1733.79 791.38"/><polygon class="cls-16" points="1671.1 988.6 1733.79 988.6 1733.79 791.38 1671.1 988.6"/><polygon class="cls-15" points="1733.79 791.38 1733.79 988.6 1796.47 988.6 1733.79 791.38"/><path class="cls-17" d="M330.84,979.72a16.15,16.15,0,1,1-16.14-16.14A16.14,16.14,0,0,1,330.84,979.72Z"/><path class="cls-17" d="M330.84,1011.33a16.15,16.15,0,1,1-16.14-16.14A16.14,16.14,0,0,1,330.84,1011.33Z"/><path class="cls-17" d="M298.89,979.38a16.15,16.15,0,1,1-16.14,16.15A16.15,16.15,0,0,1,298.89,979.38Z"/><path class="cls-17" d="M330.5,979.38a16.15,16.15,0,1,1-16.14,16.15A16.15,16.15,0,0,1,330.5,979.38Z"/><path class="cls-18" d="M305.69,995.53a9,9,0,1,0,9-9A9,9,0,0,0,305.69,995.53Z"/><circle class="cls-17" cx="1372.11" cy="1002.25" r="13.57"/><circle class="cls-17" cx="1372.11" cy="1028.82" r="13.57"/><circle class="cls-17" cx="1358.83" cy="1015.54" r="13.57"/><circle class="cls-17" cx="1385.4" cy="1015.54" r="13.57"/><circle class="cls-18" cx="1372.11" cy="1015.54" r="7.57"/><path class="cls-17" d="M894.79,940.66a12.29,12.29,0,1,1-12.29-12.29A12.29,12.29,0,0,1,894.79,940.66Z"/><path class="cls-17" d="M894.79,964.73a12.29,12.29,0,1,1-12.29-12.29A12.29,12.29,0,0,1,894.79,964.73Z"/><path class="cls-17" d="M870.47,940.4a12.3,12.3,0,1,1-12.29,12.3A12.3,12.3,0,0,1,870.47,940.4Z"/><path class="cls-17" d="M894.53,940.4a12.3,12.3,0,1,1-12.29,12.3A12.3,12.3,0,0,1,894.53,940.4Z"/><path class="cls-18" d="M875.65,952.7a6.86,6.86,0,1,0,6.85-6.86A6.85,6.85,0,0,0,875.65,952.7Z"/><circle class="cls-19" cx="1553.59" cy="983.87" r="12.29"/><path class="cls-19" d="M1565.88,1007.93a12.29,12.29,0,1,1-12.29-12.29A12.29,12.29,0,0,1,1565.88,1007.93Z"/><path class="cls-19" d="M1541.56,983.61a12.29,12.29,0,1,1-12.29,12.29A12.29,12.29,0,0,1,1541.56,983.61Z"/><path class="cls-19" d="M1565.62,983.61a12.29,12.29,0,1,1-12.29,12.29A12.29,12.29,0,0,1,1565.62,983.61Z"/><circle class="cls-18" cx="1553.59" cy="995.9" r="6.86"/><circle class="cls-19" cx="984.29" cy="1002.25" r="13.57"/><circle class="cls-19" cx="984.29" cy="1028.82" r="13.57"/><circle class="cls-19" cx="971" cy="1015.54" r="13.57"/><circle class="cls-19" cx="997.57" cy="1015.54" r="13.57"/><circle class="cls-18" cx="984.29" cy="1015.54" r="7.57"/><path class="cls-19" d="M582.92,894.9a12.29,12.29,0,1,1-12.29-12.3A12.29,12.29,0,0,1,582.92,894.9Z"/><path class="cls-19" d="M582.92,919a12.29,12.29,0,1,1-12.29-12.29A12.29,12.29,0,0,1,582.92,919Z"/><path class="cls-19" d="M558.6,894.64a12.29,12.29,0,1,1-12.29,12.29A12.29,12.29,0,0,1,558.6,894.64Z"/><path class="cls-19" d="M582.66,894.64a12.29,12.29,0,1,1-12.29,12.29A12.29,12.29,0,0,1,582.66,894.64Z"/><circle class="cls-18" cx="570.63" cy="906.93" r="6.86"/><path class="cls-17" d="M1441.1,917.74a9.19,9.19,0,1,1-9.19-9.19A9.18,9.18,0,0,1,1441.1,917.74Z"/><path class="cls-17" d="M1441.1,935.72a9.19,9.19,0,1,1-9.19-9.18A9.19,9.19,0,0,1,1441.1,935.72Z"/><path class="cls-17" d="M1422.92,917.55a9.19,9.19,0,1,1-9.18,9.18A9.18,9.18,0,0,1,1422.92,917.55Z"/><path class="cls-17" d="M1440.91,917.55a9.19,9.19,0,1,1-9.19,9.18A9.18,9.18,0,0,1,1440.91,917.55Z"/><path class="cls-18" d="M1426.79,926.73a5.13,5.13,0,1,0,5.12-5.12A5.12,5.12,0,0,0,1426.79,926.73Z"/><circle class="cls-18" cx="437.27" cy="993.12" r="26.1"/><path class="cls-17" d="M448.84,993.12a11.57,11.57,0,1,1-11.57-11.56A11.57,11.57,0,0,1,448.84,993.12Z"/><path class="cls-20" d="M1236.05,1018.07a18.82,18.82,0,1,1-18.81-18.81A18.81,18.81,0,0,1,1236.05,1018.07Z"/><path class="cls-17" d="M1225.57,1018.07a8.34,8.34,0,1,1-8.33-8.33A8.33,8.33,0,0,1,1225.57,1018.07Z"/><path class="cls-18" d="M1934.12,1010.79a20.68,20.68,0,1,1-20.68-20.67A20.68,20.68,0,0,1,1934.12,1010.79Z"/><path class="cls-17" d="M1922.6,1010.79a9.16,9.16,0,1,1-9.16-9.16A9.16,9.16,0,0,1,1922.6,1010.79Z"/><path class="cls-20" d="M1631.83,927.81a15.73,15.73,0,1,1-15.73-15.73A15.72,15.72,0,0,1,1631.83,927.81Z"/><path class="cls-17" d="M1623.07,927.81a7,7,0,1,1-7-7A7,7,0,0,1,1623.07,927.81Z"/><circle class="cls-20" cx="936.14" cy="881.5" r="15.73"/><circle class="cls-17" cx="936.14" cy="881.5" r="6.97"/><path class="cls-18" d="M685,1015.82a15.73,15.73,0,1,1-15.73-15.72A15.73,15.73,0,0,1,685,1015.82Z"/><path class="cls-17" d="M676.24,1015.82a7,7,0,1,1-7-7A7,7,0,0,1,676.24,1015.82Z"/><path class="cls-20" d="M212.41,974.72c-11.45,0-11.47,17.79,0,17.79S223.88,974.72,212.41,974.72Z"/><path class="cls-19" d="M156.94,1014.49a10.08,10.08,0,0,0-9.9,9.91V1026c0,5.18,4.55,10.15,9.9,9.91a10.09,10.09,0,0,0,9.91-9.91v-1.63C166.85,1019.22,162.29,1014.26,156.94,1014.49Z"/><path class="cls-20" d="M545.21,1029.14c-4.4,0-4.41,6.83,0,6.83S549.62,1029.14,545.21,1029.14Z"/><path class="cls-17" d="M641.46,916.73c-21.51,0-21.55,33.43,0,33.43S663,916.73,641.46,916.73Z"/><path class="cls-19" d="M820.94,897.77v1c0,10.46,16.25,10.47,16.25,0v-1C837.19,887.32,820.94,887.3,820.94,897.77Z"/><path class="cls-19" d="M1555,911.84c-3.2-3.2-8.45-5.61-13-5.4-4.78.21-9.73,1.78-13,5.4a19.19,19.19,0,0,0-5.4,13v1.63a19,19,0,0,0,5.4,13c3.2,3.2,8.45,5.61,13,5.41,4.77-.22,9.72-1.78,13-5.41a19.17,19.17,0,0,0,5.4-13v-1.63A19,19,0,0,0,1555,911.84Z"/><path class="cls-17" d="M1848.67,964.81H1847c-4.72,0-9.24,4.15-9,9a9.18,9.18,0,0,0,9,9h1.63c4.72,0,9.24-4.15,9-9A9.17,9.17,0,0,0,1848.67,964.81Z"/><path class="cls-19" d="M1092,895.28l-1.64-1.63c-2.68-2.69-7.61-2.89-10.26,0a7.39,7.39,0,0,0,0,10.27l1.63,1.63c2.69,2.69,7.61,2.89,10.27,0A7.39,7.39,0,0,0,1092,895.28Z"/><path class="cls-19" d="M1161.87,845.64c-20.11,0-20.15,31.25,0,31.25S1182,845.64,1161.87,845.64Z"/><path class="cls-19" d="M1091.72,820c-17.38,0-17.41,27,0,27S1109.12,820,1091.72,820Z"/><path class="cls-17" d="M540.32,999.15c-11.5,0-11.52,17.87,0,17.87S551.83,999.15,540.32,999.15Z"/><path class="cls-19" d="M566.42,1009.51c-12.87,0-12.89,20,0,20S579.31,1009.51,566.42,1009.51Z"/><path class="cls-17" d="M851.91,1001.35a5.19,5.19,0,0,0-5.11,5.1v1.64a5.11,5.11,0,0,0,10.21,0v-1.64A5.15,5.15,0,0,0,851.91,1001.35Z"/><path class="cls-19" d="M839.38,1020.61a10.14,10.14,0,0,0-14.1,0l-1.63,1.63c-3.7,3.7-4,10.46,0,14.11a10.15,10.15,0,0,0,14.1,0l1.63-1.64C843.08,1031,843.35,1024.25,839.38,1020.61Z"/><path class="cls-19" d="M878,1006.79c-23,0-23.06,35.78,0,35.78S901.07,1006.79,878,1006.79Z"/></g></svg>