<svg xmlns="http://www.w3.org/2000/svg" viewBox="0 0 400 400"><defs><style>.cls-1{fill:#f6df19;}</style></defs><g id="Excel"><circle class="cls-1" cx="200" cy="200" r="200"/><path d="M322.66,82.91a11.43,11.43,0,0,1,11.15,11.16V305.93a11.43,11.43,0,0,1-11.15,11.16H144.24a11.45,11.45,0,0,1-11.15-11.16v-39H77.34a11.43,11.43,0,0,1-11.15-11.15V144.24a10.45,10.45,0,0,1,3.34-7.8,10.25,10.25,0,0,1,7.81-3.35h55.75v-39a11.45,11.45,0,0,1,11.15-11.16ZM133.09,214.27l15.84,29.67h23.86l-26.54-43.16,26.1-42.37h-23l-14.49,26.76-.56.89-.45,1-7.13-14.27-7.36-14.38H95.07L120.38,201,92.73,243.94h24.08Zm92,86.09V266.91H149.82v33.45Zm0-50.18V208.36H200v41.82Zm0-58.54V149.82H200v41.82Zm0-58.55V99.64H149.82v33.45Zm92,167.27V266.91H241.82v33.45Zm0-50.18V208.36H241.82v41.82Zm0-58.54V149.82H241.82v41.82Zm0-58.55V99.64H241.82v33.45Z"/></g></svg>