<svg xmlns="http://www.w3.org/2000/svg" viewBox="0 0 400 400"><defs><style>.cls-1{fill:#f6df19;}</style></defs><g id="Adobe_Illustrator" data-name="Adobe Illustrator"><circle class="cls-1" cx="200" cy="200" r="200"/><path d="M183,185.33c-1.15-3.58-2.19-7-3.35-10.62s-2.19-6.93-3.11-10.28-1.74-6.24-2.55-9h-.23a143.64,143.64,0,0,1-3.92,14.9c-1.74,5.54-3.47,11.32-5.32,17.09-1.61,5.89-3.35,11.32-5.08,16.17H188.8c-.7-2.44-1.62-5.31-2.66-8.33S184.06,188.8,183,185.33ZM289.51,64.87h-179A49,49,0,0,0,61.41,114V286a49,49,0,0,0,49.08,49.09h179A49,49,0,0,0,338.59,286V114A49,49,0,0,0,289.51,64.87ZM231.18,255.78H207a1.73,1.73,0,0,1-1.83-1.27L195.73,227h-43L144,254.17a2,2,0,0,1-2.2,1.62H120.08c-1.27,0-1.62-.7-1.27-2.07L156,146.64c.34-1.15.69-2.42,1.15-3.81a40.43,40.43,0,0,0,.7-7.51,1.14,1.14,0,0,1,.92-1.27h29.91c.93,0,1.39.35,1.5.93l42.16,119C232.68,255.19,232.34,255.78,231.18,255.78Zm39.27-1.73c0,1.27-.45,1.85-1.49,1.85H246.31a1.62,1.62,0,0,1-1.73-1.85V165.12c0-1.15.47-1.62,1.51-1.62H269c1,0,1.49.58,1.49,1.62ZM268,149.76a13.64,13.64,0,0,1-10.52,4,14.32,14.32,0,0,1-10.3-4,15,15,0,0,1-3.92-10.62,13.59,13.59,0,0,1,4.14-10.28,14.91,14.91,0,0,1,10.31-4.05c4.51,0,7.95,1.39,10.51,4.05a15.89,15.89,0,0,1-.22,20.9Z"/></g></svg>