<svg xmlns="http://www.w3.org/2000/svg" viewBox="0 0 400 400"><defs><style>.cls-1{fill:#f6df19;}</style></defs><g id="Java"><circle class="cls-1" cx="200" cy="200" r="200"/><path d="M227.52,61.78c8,9.93,9.23,20.81,5.25,32.43-4.88,14.22-14.85,24.67-25.8,34.37-6.26,5.55-12.89,10.76-18.62,16.82-12.33,13-13.54,26.27-4.26,41.64,3.63,6,7.84,11.66,11.72,17.52a23.73,23.73,0,0,1,3.47,7.46,36.91,36.91,0,0,1-3.77-3.14c-8.28-8.81-17.28-17.08-24.55-26.67-11.86-15.64-10.68-28.17,3.41-41.72,8.71-8.37,18.47-15.65,27.74-23.45q4.11-3.47,8.08-7.12C224.31,96.92,232,81.6,227.52,61.78Z"/><path d="M284.89,297.52c6.21,4,6.78,7.58,1.4,10.26-7.93,4-16.3,7.59-24.89,9.56-32.74,7.5-66,9-99.45,6.64-17.42-1.21-34.77-3.54-52.13-5.56a28.87,28.87,0,0,1-8.52-2.55c-4.67-2.12-5.13-5-1.68-8.71a14.9,14.9,0,0,1,3-2.62c10.46-6.27,21.67-10,34-9.81a30.55,30.55,0,0,1,4.91.91c-6.7,1.95-12.76,3.67-18.78,5.52a12.58,12.58,0,0,0-4,2,25,25,0,0,0-3.11,3.45c1.24.95,2.37,2.48,3.75,2.76,10.65,2.16,21.28,5.21,32,5.81,20.6,1.14,41.29,1.44,61.91,1,19.85-.46,39.71-2.07,59.1-6.93a69.69,69.69,0,0,0,7.62-2.58C284,305.2,286.68,302.94,284.89,297.52Z"/><path d="M210.2,220.9c.69-.88,1.37-1.78,2.08-2.65,6.43-7.79,6.29-16.44.24-24.53-3.91-5.24-7.86-10.68-10.42-16.61-5.22-12.09-1.52-22.86,7.12-32.08,10.93-11.67,25.07-18.11,39.7-23.63a43.11,43.11,0,0,1,11.34-2.78c-2.42,1.54-4.93,2.94-7.23,4.63-9.61,7.08-19.73,13.6-28.57,21.55-10.76,9.67-11,18-2.82,30.1,1.51,2.23,3.11,4.39,4.7,6.56,7.06,9.66,7.24,18.22-.52,27.35-4.21,5-9.63,8.89-14.5,13.28Z"/><path d="M242.77,289.64c-9,2.28-18,5.19-27.16,6.7-17.08,2.8-34.24,2.8-51-2.17a43.9,43.9,0,0,1-11.66-5.41c-4.56-3-4.33-7.09.24-10,2.56-1.64,5.52-2.67,8.85-4.23-1.88,5.09-1.14,7.21,3.63,7.51,14.12.88,28.29,1.47,42.44,1.45,6,0,12.05-1.86,18.09-2.81a4.44,4.44,0,0,1,2.59.21c4.65,2.32,9.24,4.77,13.85,7.18C242.66,288.58,242.71,289.11,242.77,289.64Z"/><path d="M138.54,225.61c3.33,1.19,5.44,2.48,7.62,2.62,12.66.81,25.34,1.87,38,1.87A416.29,416.29,0,0,0,253.29,224a27.84,27.84,0,0,1,3.86,0c-7.47,5.24-15.19,7.71-23.37,9.12a350.05,350.05,0,0,1-88.94,3.42c-7.2-.61-14.31-2.73-21.38-4.5-1.42-.36-3.31-2.2-3.43-3.51s1.41-3.34,2.75-4A94.61,94.61,0,0,1,165.17,213c.36,0,.73.27,1.52.58C157.33,217.11,147.26,218,138.54,225.61Z"/><path d="M248.2,259.16c-8.71,1.92-16.42,4.39-24.29,5.18-14.68,1.49-29.47,2.87-44.19,2.61-10.13-.19-20.29-2.84-30.24-5.23-3-.71-6.85-3.86-7.52-6.58-1-4.1,3.61-6,6.85-7.74a82.23,82.23,0,0,1,7.7-3.19c-.76,1.42-1,1.92-1.28,2.37-2.84,4.2-2.14,6.56,2.82,7.56a117.83,117.83,0,0,0,15.1,1.92,209.8,209.8,0,0,0,59.67-4.18,6.9,6.9,0,0,1,6.9,1.79C241.82,255.67,244.63,256.91,248.2,259.16Z"/><path d="M135.58,329.25c30.64,4.56,61.43,4.5,92.2,2.22,19.06-1.41,38.09-3.77,56.21-10.4,6-2.18,11.6-5.25,18.65-8.51-2.43,3.29-4,6.44-6.44,8.51-7.4,6.26-16.58,8.83-25.8,10.76a320.12,320.12,0,0,1-85.25,5.72c-14.12-.85-28.18-3-42.24-4.71-2.67-.34-5.22-1.66-7.83-2.52Z"/><path d="M258.89,264.62c7.61-5.93,15.64-11.41,22.67-18,3.5-3.27,6.08-8.22,7.5-12.89,3.22-10.66-8.16-21.63-19.28-19.15a15.66,15.66,0,0,1-5.65.58,16.71,16.71,0,0,1,2.64-2.22c8.49-4.65,21.45-3,28.59,3.46s8.4,15.84,3.2,24.44c-5,8.26-12.67,13.45-21.25,17.28-6.05,2.69-12.35,4.8-18.54,7.17Z"/></g></svg>