<svg xmlns="http://www.w3.org/2000/svg" viewBox="0 0 400 400"><defs><style>.cls-1{fill:#f6df19;}.cls-2{fill:#1d1d1b;}</style></defs><g id="SCRUM"><circle class="cls-1" cx="200" cy="200" r="200"/><path class="cls-2" d="M62.05,228.07A8.62,8.62,0,0,0,61,223.65a10.52,10.52,0,0,0-4.19-3.56,54.09,54.09,0,0,0-9.12-3.61,92.66,92.66,0,0,1-9.7-3.77,39.3,39.3,0,0,1-8.14-4.92,21.24,21.24,0,0,1-5.56-6.55,19.29,19.29,0,0,1,1.61-19.89,23.8,23.8,0,0,1,10-7.41,37.85,37.85,0,0,1,14.59-2.65,34.12,34.12,0,0,1,14.71,3,23,23,0,0,1,9.75,8.24,21.7,21.7,0,0,1,3.46,12.19H62.1a11,11,0,0,0-1.3-5.43,8.91,8.91,0,0,0-3.92-3.7,14.85,14.85,0,0,0-6.68-1.32,16.21,16.21,0,0,0-6.5,1.14,8.85,8.85,0,0,0-3.88,3,7.3,7.3,0,0,0-1.27,4.21,6.05,6.05,0,0,0,1.71,4.27,16.38,16.38,0,0,0,5,3.35,63.37,63.37,0,0,0,8,3,61.63,61.63,0,0,1,13.89,5.87,24.41,24.41,0,0,1,8.44,8A20.34,20.34,0,0,1,78.38,228,19,19,0,0,1,75,239.36a21.26,21.26,0,0,1-9.59,7.22,38.69,38.69,0,0,1-14.56,2.5,42.63,42.63,0,0,1-11.2-1.48A31.91,31.91,0,0,1,29.68,243a23.21,23.21,0,0,1-7.09-7.82A22.62,22.62,0,0,1,19.93,224H36.31a14.11,14.11,0,0,0,1,5.7,9.34,9.34,0,0,0,2.91,3.77,12.19,12.19,0,0,0,4.57,2.11,25.77,25.77,0,0,0,6,.64,16.25,16.25,0,0,0,6.37-1.06,8,8,0,0,0,3.67-2.91A7.5,7.5,0,0,0,62.05,228.07Z"/><path class="cls-2" d="M148.58,222.66a28.68,28.68,0,0,1-4.22,13.68,25.59,25.59,0,0,1-10.42,9.36,35.24,35.24,0,0,1-16,3.38,30.94,30.94,0,0,1-16.85-4.45A28.7,28.7,0,0,1,90.18,232q-3.8-8.21-3.79-19.44V207.9q0-11.28,3.92-19.5a29.81,29.81,0,0,1,11-12.69A30.57,30.57,0,0,1,118,171.24q9.57,0,16.15,3.51a25.63,25.63,0,0,1,10.19,9.59,32.88,32.88,0,0,1,4.34,13.89H132.35q-.47-6.66-3.61-10.12T118,184.65a13.77,13.77,0,0,0-8.37,2.45,14.63,14.63,0,0,0-5,7.56A43.34,43.34,0,0,0,103,207.79v4.74a47.85,47.85,0,0,0,1.49,13,14.31,14.31,0,0,0,4.75,7.67,13.89,13.89,0,0,0,8.69,2.52,18.58,18.58,0,0,0,7.8-1.43,10.16,10.16,0,0,0,4.68-4.34,17.68,17.68,0,0,0,1.92-7.29Z"/><path class="cls-2" d="M187,172.33a39.23,39.23,0,0,1,15.1,2.63,20.87,20.87,0,0,1,9.7,7.69,22.18,22.18,0,0,1,3.38,12.56,24.79,24.79,0,0,1-2,10.61,19.44,19.44,0,0,1-5.75,7.22,30.53,30.53,0,0,1-8.68,4.63l-5.2,3H169.17l-.11-13.21H186.9a14.61,14.61,0,0,0,6.6-1.33,8.75,8.75,0,0,0,3.95-3.77,12,12,0,0,0,1.3-5.77,11.09,11.09,0,0,0-2.88-8.06q-2.9-3-8.92-3H174.78V248H158.45V172.33Zm-3.64,42.07,17.26-.11,17.32,33V248H200.36Z"/><path class="cls-2" d="M284.39,172.33v49.76q0,8.79-3.74,14.82a23.64,23.64,0,0,1-10.32,9.1,35.31,35.31,0,0,1-15.11,3.07A35.77,35.77,0,0,1,240,246a23.31,23.31,0,0,1-10.34-9.1q-3.72-6-3.72-14.82V172.33h16.38v49.76a18,18,0,0,0,1.5,7.93,9.54,9.54,0,0,0,4.42,4.47,15.59,15.59,0,0,0,7,1.43,15.39,15.39,0,0,0,7-1.43,9.47,9.47,0,0,0,4.34-4.47,18.16,18.16,0,0,0,1.48-7.93V172.33Z"/><path class="cls-2" d="M310.6,172.33l2.55,56.11V248H296.77V172.33Zm7.54,0,18.77,54,18.72-54h13.78l-27,75.71H331.29l-26.93-75.71Zm58.86,0V248H360.62v-19.6l2.49-56.11Z"/><path class="cls-2" d="M40.4,124.53l1,23v8H34.73v-31Zm3.09,0,7.69,22.15,7.67-22.15H64.5l-11.06,31H48.88l-11-31Zm24.12,0v31H60.9v-8l1-23Z"/><path class="cls-2" d="M83.38,156a12.16,12.16,0,0,1-6.23-1.51,10.27,10.27,0,0,1-4-4,11.54,11.54,0,0,1-1.38-5.61V144a14,14,0,0,1,1.31-6.15,10.24,10.24,0,0,1,3.74-4.23,10.68,10.68,0,0,1,5.8-1.53,10.52,10.52,0,0,1,5.63,1.41,8.82,8.82,0,0,1,3.45,3.95,14.21,14.21,0,0,1,1.17,6v2.73H74.52v-4.33H86.58v-.51a5,5,0,0,0-.42-2.11,3.25,3.25,0,0,0-1.29-1.43,4.41,4.41,0,0,0-2.25-.51,3.61,3.61,0,0,0-2.54.89,5.16,5.16,0,0,0-1.39,2.41,12,12,0,0,0-.44,3.43v.83a7,7,0,0,0,.66,3.12,5,5,0,0,0,1.9,2.1,5.61,5.61,0,0,0,3,.75,7.68,7.68,0,0,0,3.07-.61,6,6,0,0,0,2.43-1.9l3.11,3.56A10,10,0,0,1,89,154.69,11.21,11.21,0,0,1,83.38,156Z"/><path class="cls-2" d="M107.81,137.19H94.19v-4.68h13.62Zm-3.9-10.38v21.55a3.49,3.49,0,0,0,.24,1.45,1.39,1.39,0,0,0,.78.71,4.19,4.19,0,0,0,1.32.19,10.29,10.29,0,0,0,1-.05c.3,0,.55-.06.76-.1l0,4.86a10.43,10.43,0,0,1-1.71.42,13.1,13.1,0,0,1-2.08.15,8.61,8.61,0,0,1-3.59-.69,4.91,4.91,0,0,1-2.35-2.22,8.49,8.49,0,0,1-.82-4V126.81Z"/><path class="cls-2" d="M109.66,143.82a13.75,13.75,0,0,1,1.28-6,10,10,0,0,1,3.73-4.19,12.43,12.43,0,0,1,12,0,9.9,9.9,0,0,1,3.73,4.19,13.89,13.89,0,0,1,1.27,6v.45a13.91,13.91,0,0,1-1.27,6,9.82,9.82,0,0,1-3.72,4.19,12.5,12.5,0,0,1-11.95,0,9.8,9.8,0,0,1-3.74-4.19,13.77,13.77,0,0,1-1.28-6Zm6.46.45a11.71,11.71,0,0,0,.44,3.3,4.88,4.88,0,0,0,1.43,2.37,4.52,4.52,0,0,0,5.33,0,4.86,4.86,0,0,0,1.42-2.37,11.71,11.71,0,0,0,.44-3.3v-.45a11.7,11.7,0,0,0-.44-3.27,5.05,5.05,0,0,0-1.42-2.4,3.92,3.92,0,0,0-2.7-.89,3.83,3.83,0,0,0-2.65.89,4.9,4.9,0,0,0-1.42,2.4,11.71,11.71,0,0,0-.43,3.27Z"/><path class="cls-2" d="M134.34,143.87a16.64,16.64,0,0,1,1.06-6.17,9.22,9.22,0,0,1,3.07-4.14,8,8,0,0,1,4.91-1.48,6.74,6.74,0,0,1,4.53,1.54,10.54,10.54,0,0,1,2.88,4.22,24.66,24.66,0,0,1,1.46,6.07v.53a23.56,23.56,0,0,1-1.46,5.84,10.57,10.57,0,0,1-2.88,4.17,6.81,6.81,0,0,1-4.57,1.54,7.85,7.85,0,0,1-4.87-1.52,9.54,9.54,0,0,1-3.07-4.17,16.11,16.11,0,0,1-1.06-6Zm6.44.44a12.22,12.22,0,0,0,.41,3.26,5,5,0,0,0,1.32,2.34,3.47,3.47,0,0,0,2.47.86,4,4,0,0,0,4-2.62,8.54,8.54,0,0,0,.59-2.86v-2.21a9.84,9.84,0,0,0-.35-2.46,5.58,5.58,0,0,0-.85-1.82,3.54,3.54,0,0,0-1.39-1.12,4.77,4.77,0,0,0-2-.38,3.52,3.52,0,0,0-2.47.86,4.83,4.83,0,0,0-1.35,2.35,12.35,12.35,0,0,0-.42,3.36Zm8-21.48h6.48v32.74h-5.82l-.66-5.14Z"/><path class="cls-2" d="M159,143.82a13.75,13.75,0,0,1,1.28-6,10,10,0,0,1,3.73-4.19,11,11,0,0,1,5.95-1.53,11.15,11.15,0,0,1,6,1.53,9.9,9.9,0,0,1,3.73,4.19,13.88,13.88,0,0,1,1.26,6v.45a13.9,13.9,0,0,1-1.26,6,9.82,9.82,0,0,1-3.72,4.19,12.5,12.5,0,0,1-12,0,9.8,9.8,0,0,1-3.74-4.19,13.77,13.77,0,0,1-1.28-6Zm6.46.45a11.71,11.71,0,0,0,.44,3.3,4.86,4.86,0,0,0,1.42,2.37,4,4,0,0,0,2.68.87,3.86,3.86,0,0,0,2.65-.87,4.88,4.88,0,0,0,1.43-2.37,11.71,11.71,0,0,0,.44-3.3v-.45a11.7,11.7,0,0,0-.44-3.27,5.07,5.07,0,0,0-1.43-2.4,3.9,3.9,0,0,0-2.69-.89,3.85,3.85,0,0,0-2.66.89,5,5,0,0,0-1.41,2.4,11.71,11.71,0,0,0-.43,3.27Z"/><path class="cls-2" d="M191.38,155.57h-6.46V122.83h6.46Z"/><path class="cls-2" d="M195.34,143.82a13.75,13.75,0,0,1,1.28-6,10,10,0,0,1,3.73-4.19,12.43,12.43,0,0,1,12,0A9.9,9.9,0,0,1,216,137.8a13.88,13.88,0,0,1,1.26,6v.45a13.9,13.9,0,0,1-1.26,6,9.82,9.82,0,0,1-3.72,4.19,12.5,12.5,0,0,1-11.95,0,9.8,9.8,0,0,1-3.74-4.19,13.77,13.77,0,0,1-1.28-6Zm6.46.45a11.71,11.71,0,0,0,.44,3.3,4.8,4.8,0,0,0,1.43,2.37,4.5,4.5,0,0,0,5.32,0,4.88,4.88,0,0,0,1.43-2.37,11.71,11.71,0,0,0,.44-3.3v-.45a11.7,11.7,0,0,0-.44-3.27,5.07,5.07,0,0,0-1.43-2.4,3.9,3.9,0,0,0-2.69-.89,3.85,3.85,0,0,0-2.66.89,5,5,0,0,0-1.41,2.4,11.71,11.71,0,0,0-.43,3.27Z"/><path class="cls-2" d="M220.07,143.87a15.47,15.47,0,0,1,1.14-6.17,9.48,9.48,0,0,1,3.25-4.14,8.44,8.44,0,0,1,5-1.48,7.8,7.8,0,0,1,3.89.88,6.91,6.91,0,0,1,2.55,2.49,13.7,13.7,0,0,1,1.54,3.76,41.42,41.42,0,0,1,.89,4.7v.53a26.55,26.55,0,0,1-1.45,5.84,10.05,10.05,0,0,1-2.81,4.17,6.92,6.92,0,0,1-4.65,1.54,8.24,8.24,0,0,1-5-1.52,9.86,9.86,0,0,1-3.24-4.17,15,15,0,0,1-1.14-6Zm21.31-11.36v22.22a9.79,9.79,0,0,1-1.42,5.4,8.86,8.86,0,0,1-4,3.36,14.05,14.05,0,0,1-5.88,1.15,13,13,0,0,1-3-.38,12.37,12.37,0,0,1-3.1-1.17,7.84,7.84,0,0,1-2.46-2l2.81-4a7.39,7.39,0,0,0,2.43,1.82,7.07,7.07,0,0,0,3.09.68,5.24,5.24,0,0,0,3.74-1.27,4.79,4.79,0,0,0,1.33-3.64V137.9l.62-5.39Zm-14.86,11.8a10.43,10.43,0,0,0,.49,3.26,5.21,5.21,0,0,0,1.5,2.34,3.78,3.78,0,0,0,2.55.86,4.65,4.65,0,0,0,2.66-.69,4.35,4.35,0,0,0,1.53-1.93,8.3,8.3,0,0,0,.59-2.86v-2.21a10.36,10.36,0,0,0-.34-2.46,5.06,5.06,0,0,0-.88-1.82,3.7,3.7,0,0,0-1.44-1.12,5.14,5.14,0,0,0-2.07-.38,3.85,3.85,0,0,0-2.56.86,5.24,5.24,0,0,0-1.53,2.35,10.59,10.59,0,0,0-.5,3.36Z"/><path class="cls-2" d="M252.91,155.57h-6.46V132.51h6.46Zm-2.2-32.38h7l-5.94,6.63h-5.22Z"/><path class="cls-2" d="M271.28,145.17H268a4.74,4.74,0,0,0-3.39,1,3.25,3.25,0,0,0-1,2.44,2.33,2.33,0,0,0,.76,1.79,2.93,2.93,0,0,0,2.07.7,4.75,4.75,0,0,0,2.31-.52,4.31,4.31,0,0,0,1.5-1.26,2.33,2.33,0,0,0,.5-1.35l1.66,2.77a11.47,11.47,0,0,1-.91,1.77,7.36,7.36,0,0,1-1.44,1.7,6.67,6.67,0,0,1-2.12,1.28A7.92,7.92,0,0,1,265,156a8.79,8.79,0,0,1-4-.88,7.22,7.22,0,0,1-2.84-2.45,6.39,6.39,0,0,1-1-3.6,6.56,6.56,0,0,1,2.69-5.61q2.69-2,8-2h3.43Zm-.87-5a3.73,3.73,0,0,0-.77-2.47,3,3,0,0,0-2.45-.92,4,4,0,0,0-1.66.32,2.29,2.29,0,0,0-1.07.91,2.69,2.69,0,0,0-.36,1.43h-6.44a6.16,6.16,0,0,1,1.22-3.71,8.36,8.36,0,0,1,3.43-2.68,12.56,12.56,0,0,1,5.22-1,12.15,12.15,0,0,1,4.8.9,7.48,7.48,0,0,1,3.32,2.72,8,8,0,0,1,1.22,4.54v9.64a17.27,17.27,0,0,0,.24,3.24,8.19,8.19,0,0,0,.69,2.08v.37h-6.48a9,9,0,0,1-.69-2.45,19.86,19.86,0,0,1-.22-3Z"/><path class="cls-2" d="M297.28,155.57h-7.14l11.53-31h4.52l-.64,5.89Zm14.84-6.19H295.66V144h16.46Zm-6.27-33.16h7l-5.94,6.63h-5.23ZM304,130.42l-.7-5.89h4.54l11.59,31h-7.14Z"/><path class="cls-2" d="M320.94,143.87a15.47,15.47,0,0,1,1.14-6.17,9.48,9.48,0,0,1,3.25-4.14,8.49,8.49,0,0,1,5-1.48,7.8,7.8,0,0,1,3.89.88,7.07,7.07,0,0,1,2.55,2.49,13.69,13.69,0,0,1,1.53,3.76,41.35,41.35,0,0,1,.9,4.7v.53a27.12,27.12,0,0,1-1.45,5.84,10.07,10.07,0,0,1-2.82,4.17A6.88,6.88,0,0,1,330.3,156a8.29,8.29,0,0,1-5-1.52,9.86,9.86,0,0,1-3.24-4.17,15,15,0,0,1-1.14-6Zm21.31-11.36v22.22a9.87,9.87,0,0,1-1.41,5.4,8.94,8.94,0,0,1-4,3.36,14.05,14.05,0,0,1-5.88,1.15,13,13,0,0,1-3.05-.38,12.51,12.51,0,0,1-3.1-1.17,7.84,7.84,0,0,1-2.46-2l2.81-4a7.61,7.61,0,0,0,2.43,1.82,7.07,7.07,0,0,0,3.09.68,5.21,5.21,0,0,0,3.74-1.27,4.79,4.79,0,0,0,1.34-3.64V137.9l.61-5.39Zm-14.85,11.8a10.14,10.14,0,0,0,.49,3.26,5.2,5.2,0,0,0,1.49,2.34,3.81,3.81,0,0,0,2.56.86,4.61,4.61,0,0,0,2.65-.69,4.3,4.3,0,0,0,1.54-1.93,8.31,8.31,0,0,0,.58-2.86v-2.21a10.36,10.36,0,0,0-.34-2.46,5.22,5.22,0,0,0-.87-1.82,3.85,3.85,0,0,0-1.44-1.12,5.22,5.22,0,0,0-2.08-.38,3.88,3.88,0,0,0-2.56.86,5.14,5.14,0,0,0-1.52,2.35,10.59,10.59,0,0,0-.5,3.36Z"/><path class="cls-2" d="M346.77,126.56a3.14,3.14,0,0,1,1-2.38,3.66,3.66,0,0,1,2.62-.92,3.59,3.59,0,0,1,2.61.92,3.38,3.38,0,0,1,0,4.74,3.56,3.56,0,0,1-2.61.94,3.63,3.63,0,0,1-2.62-.94A3.13,3.13,0,0,1,346.77,126.56Zm6.84,29h-6.45V132.51h6.45Z"/><path class="cls-2" d="M365.31,155.57h-6.45V122.83h6.45Z"/></g></svg>