<svg xmlns="http://www.w3.org/2000/svg" viewBox="0 0 400 400"><defs><style>.cls-1{fill:#f6df19;}.cls-2{fill:#1d1d1b;}</style></defs><g id="JavaScript"><circle class="cls-1" cx="200" cy="200" r="200"/><path class="cls-2" d="M140.09,108.84h39.19V234.68q0,18.28-8.08,31.5a54.33,54.33,0,0,1-22,20.34q-13.9,7.14-31.43,7.14-17.91,0-31.87-6.07A47.87,47.87,0,0,1,64,268.93q-7.95-12.58-7.95-32H95.63q0,14.28,6,19.66T117.8,262a21.43,21.43,0,0,0,11.77-3.19,20.94,20.94,0,0,0,7.76-9.27,35.75,35.75,0,0,0,2.76-14.84Z"/><path class="cls-2" d="M304.62,243.07A20.81,20.81,0,0,0,302,232.43q-2.64-4.5-10.08-8.58t-22-8.7a220.82,220.82,0,0,1-23.35-9.08A94.65,94.65,0,0,1,227,194.24a51.22,51.22,0,0,1-13.39-15.78,43.44,43.44,0,0,1-4.89-21,42.91,42.91,0,0,1,8.77-26.86q8.76-11.46,24.1-17.84t35.12-6.39q20.3,0,35.44,7.14t23.48,19.84q8.33,12.72,8.32,29.37H304.74a26.71,26.71,0,0,0-3.13-13.09,21.51,21.51,0,0,0-9.45-8.89q-6.33-3.19-16.09-3.19-9.39,0-15.65,2.75a21.18,21.18,0,0,0-9.33,7.27A17.55,17.55,0,0,0,248,157.68,14.53,14.53,0,0,0,252.15,168q4.14,4.38,12,8.07a152.23,152.23,0,0,0,19.16,7.2q19.91,6,33.43,14.15t20.35,19.22q6.83,11.08,6.82,26.23,0,16-8.2,27.43t-23.1,17.4q-14.91,6-35.06,6a102.93,102.93,0,0,1-27-3.57,76.34,76.34,0,0,1-23.92-11,55.94,55.94,0,0,1-17.09-18.84q-6.39-11.4-6.39-27.05h39.45a34.08,34.08,0,0,0,2.44,13.71,22.57,22.57,0,0,0,7,9.08,29.08,29.08,0,0,0,11,5.07,61.08,61.08,0,0,0,14.46,1.57q9.39,0,15.34-2.57a19.27,19.27,0,0,0,8.83-7A17.91,17.91,0,0,0,304.62,243.07Z"/></g></svg>