<svg xmlns="http://www.w3.org/2000/svg" viewBox="0 0 400 400"><defs><style>.cls-1{fill:#f6df19;}</style></defs><g id="Figma"><circle class="cls-1" cx="200" cy="200" r="200"/><path d="M244.89,164.82H191.43V60.17h53.46a52.33,52.33,0,0,1,0,104.65Zm-36.32-17.14h36.32a35.18,35.18,0,0,0,0-70.36H208.57Zm0,17.14H155.12a52.33,52.33,0,0,1,0-104.65h53.46V164.82ZM155.12,77.31a35.19,35.19,0,0,0,0,70.37h36.32V77.31Zm53.45,175H155.12a52.32,52.32,0,0,1,0-104.64h53.46V252.32Zm-53.45-87.5a35.18,35.18,0,0,0,0,70.36h36.32V164.82Zm.28,175a52.32,52.32,0,1,1-.29-104.64h53.46v51.75A53.09,53.09,0,0,1,155.4,339.83Zm-.28-87.51a35.18,35.18,0,1,0,.29,70.36,35.94,35.94,0,0,0,36-35.75V252.32Zm89.77,0h-1.14a52.32,52.32,0,0,1,0-104.64h1.14a52.32,52.32,0,0,1,0,104.64Zm-1.13-87.5a35.18,35.18,0,1,0,0,70.36h1.14a35.18,35.18,0,0,0,0-70.36Z"/></g></svg>