<svg xmlns="http://www.w3.org/2000/svg" viewBox="0 0 400 400"><defs><style>.cls-1{fill:#f6df19;}.cls-2{fill-rule:evenodd;}</style></defs><g id="Capa_15" data-name="Capa 15"><circle class="cls-1" cx="200" cy="200" r="200"/><path class="cls-2" d="M226.1,344.4l10,.05c-2.38,1.37-6.77.88-10,.88v-.93Zm-2.74-.91c.87-.87,2.9,1.15,1.07.5C224.4,344,222.12,344.73,223.36,343.49Zm-24.73-6.41c.08-.08.28.13.28.27s.11.11.11.11S197.4,338.31,198.63,337.08Zm-2.74-.91c.08-.08.27.14.27.28s.11.11.11.11S194.66,337.41,195.89,336.17Zm-2.74-.9c.88-.88,2.9,1.15,1.07.49C194.19,335.76,191.92,336.5,193.15,335.27Zm28.4-.91c.08-.08.27.14.27.28s.11.11.11.11S220.31,335.6,221.55,334.36Zm-31.14,0,1.83.44Zm26.48-.22-2.66.28C214.72,334.06,213.87,332.47,216.89,334.14Zm-6.33-1.59c.87-.87,2.87,1.16,1.06.5C211.6,333.05,209.32,333.79,210.56,332.55Zm53.12-.9c.88-.88,2.88,1.15,1.07.49C264.72,332.14,262.45,332.88,263.68,331.65Zm-57.7,0c.88-.88,2.88,1.15,1.07.49C207,332.14,204.72,332.88,206,331.65Zm61.35-.9c.08-.09.27.13.27.27s.11.11.11.11S266.09,332,267.33,330.75Zm3.67-.91c.08-.08.27.14.27.27s.11.11.11.11S269.77,331.07,271,329.84Zm-71.44,0c.88-.88,2.91,1.15,1.07.49C200.61,330.33,198.33,331.07,199.56,329.84Zm65.93,0c1.64-1,.49-1.75,3.59-.25Zm4.58-1.84c.08-.08.27.14.27.28s.11.11.11.11S268.83,329.24,270.07,328ZM195,328c.08-.08.27.14.27.28s.11.11.11.11S193.75,329.24,195,328Zm65.92,0c1.65-1,.5-1.75,3.59-.24Zm-68.67-.9,1.84.44Zm73.28-.91c.08-.08.27.14.27.28s.11.11.11.11S264.28,327.43,265.52,326.19Zm-45.86.25-2.66.8C218.29,326.11,215.27,326.25,219.66,326.44Zm-27.39.69-1.83-.91Zm21-1.84c.09-.08.28.14.28.27s.11.11.11.11S212.09,326.52,213.32,325.29Zm-22.89.9-1.83-.9Zm20.15-1.83c.09-.08.28.14.28.27s.11.11.11.11S209.35,325.59,210.58,324.36Zm-3.67-.91c.08-.08.27.14.27.28s.11.11.11.11S205.68,324.69,206.91,323.45Zm70.5-3.67c.09-.08.28.14.28.27s.11.11.11.11S276.18,321,277.41,319.78Zm1.84-.9c.08-.09.28.13.28.27s.1.11.1.11S278,320.11,279.25,318.88Zm1.84-.91c.08-.08.27.14.27.28s.11.11.11.11S279.85,319.2,281.09,318Zm3.67-.9-1.64,1Zm1.84-.91-1.84.91Zm0,0,.24-.85.69.52-.91.3Zm2.74-1.83-.25.85-.68-.53.9-.3Zm1.84-.91-1.84.91Zm1.83-.9-1.83.9Zm.91-.91-.91.91Zm0,0a9.14,9.14,0,0,1,5.48-3.67C297.56,310.73,297.12,310.82,293.92,311.61ZM190.43,334.53c-10.93-1-35.6-19.93-41.2-28.4,2.66.71,15.22,12.61,19.41,15.4,3.62,2.42,6.91,4.45,10.64,6.78,3.51,2.19,8.33,3.72,11.18,6.22ZM299.4,308c1.73-2.66,1-2,3.67-2.75C301.35,307.88,302.11,307.25,299.4,308Zm-150.19-1.84-.91-.91Zm-.91-.91-.9-.9Zm-.9-.9-.91-.9Zm155.67.9,3.68-3.67C306.14,304.48,305.76,304.51,303.07,305.22Zm-44.87-2.74-.22.85-.69-.52.91-.3Zm-111.73.91-.85-.25.52-.68.3.9Zm111.73-.91,1.64-1Zm48.55-.9.24-.85.69.52-.91.3Zm17.4-20.15c.08-.08.28.14.28.27s.11.11.11.11S322.92,282.66,324.15,281.43Zm2.74-2.74-.22.85L326,279l.9-.3Zm.91-1.84-.91,1.84Zm0,0,1.84-2.74Zm2.74-4.58-.9,1.84Zm-203.29,0c.08-.08.27.14.27.28s.11.11.11.11S126,273.51,127.25,272.27Zm204.22-1.83-.9,1.83Zm.91-1.84-.91,1.84Zm0,0,.43-1.84Zm1.83-4.58-.44,1.84Zm0,0,.44-1.83Zm.91-3.67c.08-.08.27.14.27.27s.11.11.11.11S333.88,261.58,335.12,260.35Zm.9-1.84c0-2.11,1.13-.16.58,0C336.6,258.51,336,260.87,336,258.51Zm.91-3.67c.08-.08.27.14.27.27s.11.11.11.11S335.69,256.07,336.93,254.84Zm1.83-5.51c0-2.11,1.13-.16.58,0C339.34,249.33,338.76,251.69,338.76,249.33Zm.91-4.58c.08-.08.27.14.27.28s.11.11.11.11S338.43,246,339.67,244.75Zm.79-4.55c1,1.15.93-1.29.83,2.66Zm1.29-1c-.22-2,.93-21,1.37-21.85C343.75,223.12,344.38,234.75,341.75,239.19Zm-75.33,60.55-2.74.91c-.57,2.79-2.71,0-2.74,0-4.69,0-6.69,1.31-11,1.81-3.81.43-9.07.6-12.61,1.15-6.11.93-19.52,1.09-24-2-8.69-.77-22.51-9.87-27.31-9.92.83,4.9,5.16,9.34,8,13.35-14.5,1.59-27-15.16-37.23-22.59l1.46,4.3c-4.31-.66-4-3.92-7.19-6.19l-1.48,1-3.67-3.76c1,9.48,21.11,27.38,28.81,33.2,10.53,7.95,33.17,17.27,45.94,17.27,2.14-2.8,2.44-.06,5.6.82.35.11,1.78.25,2.41.35,12.33,2.23,23.13-1.17,32.29-1.17-5,3.48-13.41,3.18-20.07,3.89,6.94,3.23,17.36-1.92,24.65-2.06-11.24,7.82-45.84,4.42-62.86-1.26-3.78-1.26-15.19-6.47-17.65-6.74l3.59,3.42c-14.83-3.59-35-23.57-43.7-35.08a119.39,119.39,0,0,1-14.53-24.87c-3.39-8.41-8.6-22.28-8.6-31.47l-2.74-.24c1.2,5.1,1.42,11.26,3.48,19.46,1.42,5.68,3.18,12.83,5.59,17.9-3.18-.79-5.68-8.77-7-11.95-1-2.47-1.59-4.5-2.47-6.72-1.23-3.18-1.7-4.88-4.3-5.92-2.75,5-.42,12,1.09,16.48,12,35.3,39.61,67.43,74.62,79.27,15.27,5.16,21.49,6.06,37.91,6.06,22.78,0,51.29-6.25,70.15-17.76,27-16.53,44.79-50.71,49.92-82a127.62,127.62,0,0,0,0-40.54C340.54,162.21,309,129,265.44,114.79c-9.93-3.23-26.92-7-37.2-6.39-2.5-3.31-4.44-8.44-7.71-12.8-6.69-8.91-23.63-25.79-33.71-26.73,1.7,2.39,8.36,5.57,11.21,8,7.1,6.14,25.74,24.31,27.08,31.22-6.55.52-16.64-.74-21.74,1.75,7.32.8,14.2-1.42,22.59-.43,2.85,2.52,1.62,2.57,3.67,4.27l-.79-4.27c2.88.38,5.43.46,8.17.87s5.07,1.48,8.28,1.81c-.52,3.1-1.73,1.89,8.44,5.7-5,.77-16.2-2-22-2.24-2.74-.11-18.2.35-19,5.31,5.29,3.81,32.35,1.26,42.74,6.42-4.2.46-7.62-.5-11.85-.66s-6.82-1.07-11.92-1c-4.14.08-18.75,1.65-20.94,4.39,8.39.93,12.33-.52,26.56,1.07,8.88,1,14,.13,22.81,4.66,4.08,2.11,5.26,1.23,8.28,2.71,2.27,1.12,12.71,7.32,14.14,8.74,16.12,16.18,24.21,21.93,33.06,44.8,1.37,3.56,3.37,5.31,4.06,7.86l1.12,19.41c-1,6.39-.11,13.54-1.64,20.4-2,8.91-7.19,23.35-13.55,30.42.17,2.77-.08-.76,1.07,2.91-5.21,2.08-12.58,11.07-17.9,15.08-4.08,3.07-4.88,5.18-9.51,7-3.48,1.32-9.35,4.41-12.72,4.69Z"/><path class="cls-2" d="M130,230.75c.88-.88,2.88,1.15,1.07.49C131,231.24,128.73,232,130,230.75Zm-5.51-.91,2.69.14C124.12,231.62,125.52,230.53,124.45,229.84Zm0,0-2.68-.14C124.78,228.06,123.38,229.16,124.45,229.84ZM119.88,228c.08-.08.27.14.27.28s.11.11.11.11S118.64,229.24,119.88,228ZM98.82,217l.85.22-.52.69-.3-.91Zm0,0-.85-.25.52-.68.31.9Zm-3.67-2.74.85.22-.52.68-.3-.9Zm0,0-.91-.9Zm-.91-.9-.84-.25.52-.69.3.91Zm-18.31-22,.85.22-.52.69-.3-.91Zm0,0-.85-.25.52-.68.31.9Zm-1.83-2.74.85.22-.52.68-.31-.9Zm0,0-1-1.65ZM72.26,185c.08-.09.27.13.27.27s.11.11.11.11S71,186.2,72.26,185Zm-.9-1.84c.08-.08.27.14.27.27s.11.11.11.11S70.12,184.36,71.36,183.13Zm-.91-1.84c0-2.11,1.12-.16.58,0C71,181.29,70.45,183.68,70.45,181.29Zm-.9-2.74c.08-.08.27.14.27.28s.11.11.11.11S68.31,179.79,69.55,178.55Zm155.67-1.83-.25.85-.68-.53.9-.3Zm-7.32-.91-.44,1.84Zm-149.26,0c.08-.08.28.14.28.27s.11.11.11.11S67.41,177,68.64,175.81ZM218.83,174l-.9,1.84ZM84.21,158.4l-.14,2.69C82.43,158.07,83.53,159.47,84.21,158.4ZM61.08,142l.22,14.51C59.73,153.58,59.68,144.81,61.08,142Zm21.3,12.75c.08-.08.27.14.27.27s.11.11.11.11S81.14,156,82.38,154.73ZM54,128.17c0-2.11,1.12-.17.57,0C54.55,128.17,54,130.53,54,128.17Zm.9-3.68c.08-.08.27.14.27.28s.11.11.11.11-1.61.85-.38-.39Zm35.72-3.67-.25.85-.68-.52.9-.3ZM75,99.74l-.25.85-.68-.52.9-.3Zm0,0,.22-.85.68.52-.9.3Zm-7.32-.9c.08-.09.27.13.27.27s.11.11.11.11-1.61.85-.38-.38Zm2.74-2.74L70.2,97l-.68-.53.9-.3Zm.91-.91-.91.91Zm.9-1.84-.9,1.84Zm.9-.9-.9.9Zm.91-.9-.91.9Zm0,0c.74-2.69.11-1.92,2.74-3.68C76.07,90.56,76.7,89.79,74.07,91.55ZM78.65,86l-.08,1.67-1.73.16L78.67,86Zm1.83-1.84-.08,1.67L78.67,86l1.84-1.84Zm0,0c1.76-2.66,4.31-5.59,7.32-6.42C86.05,80.44,83.5,83.38,80.48,84.2Zm7.32-6.42a12.79,12.79,0,0,1,7.32-5.51A15.57,15.57,0,0,1,87.8,77.78Zm7.32-5.51.22-.85L96,72l-.91.3Zm23.82,161.24,2.74.25c4.36,3.89,30.76,4.88,36.63,2.08h.9c13.63,1.62,44.08-17,54.58-31.08C227,187,238,166.38,238,142.81c-1.13,1.75-2.36,11.89-3.13,15.21-1.48,6.36-1.81,8.33-4.79,14.45l-2.44.08-2.44,4.19c.38-4.44,2.9-9.4,3.89-14.42,1.12-5.67,2.52-10.36-.22-15.81-5,3.59-5.4,22.23-10.06,27.49.16-8.19,6.77-21.16,3.07-29.17-2.19,3-2.63,9.63-3.59,14a121.56,121.56,0,0,1-3.92,13.48c-5.37,15.35-20,28.78-34.6,35.94-13.32,6.55-22.14,5.4-26.81,8.91-9.37-2.55-11.78-1.37-13.65-1.56s-1.15-.72-3.83-1c-5,.14-2.06,0-3.6-1.18-2,0-.3.25-1-.9-2.55,1-8.28-1.43-11-2.86l-3-1.72c-5.48-3.24-10.25-5.62-14.2-10.28-2.11-2.5-1.78-2.19-4.57-1.78C96.77,188.61,83.55,176,84.24,164c.19-3.34,2.27-2.46-.08-5.56,0-11.1.27-25.41,4.58-34.82l2.74-2.74h-.91l.91-1.83.9-1.84,1.84-2.74c1-3.81,4.9-8.8,8.25-11l-.55-2c-6.06.41-6.61,2.93-11.18,3.7,1.61-9.87,15-17.93,22.58-24l-3.48-1L117.16,76l-1.83-.44,1.83-.49L119,72.63c-13.51,1.48-30.51,16.78-39.2,28.26-15.84,21-16.12,48.69-17.3,51.1l-.24-10.91c-3-2.3,3.45-19.82,4.93-23.47,2.11-5.23,9.92-17,10.64-19.6l-1.73-.35C87,86.23,92.57,78.2,110.14,69.89a91.72,91.72,0,0,1,23.17-7.07C149,60,150.19,62.3,162.94,61.14c-5.7-3.2-20.56-2.9-27.63-1.83a82.64,82.64,0,0,1-9.84.93c4.58-2.58,18.42-3,21.21-6.22-5.15-6-27.87.77-34.37,3.37-27.11,11-45,26.21-56.22,53.7-10.23,25.14-6.75,70.12,9.56,87.94,8.45,9.21,12.09,13.79,22.95,21,7.78,5.19,21.52,12.92,30.4,13.52Z"/><path class="cls-2" d="M116.83,207.86l3,1.72c.13-6,4.9-19.79,7.18-25.68,5-12.83,16.14-30.18,26-40,3.13-3.12,15.52-14.36,17.19-16.72-10.72,1-27.88,23-34.07,32.78-4.22,6.69-8.72,15.71-10.8,23.09-1.24,4.38-5.87,23-8.53,24.75Zm15,5.48c1.54,1.2-1.42,1.31,3.6,1.18,1.42-6.77,2.55-13.76,4.68-20.34,1.73-5.38,6.12-12.91,7.24-17.52-6.83,4.88-12.83,26.73-12.83,34.81-.93,3.16.85.94-2.66,1.84ZM141,276.58c-2.2-9.07-6.83-12.47-10.91-34-.36-1.87.08-1-.61-3.05-1.26-3.75-.3-.93-1.31-2.35-1.79,3.07,2.52,18.17,3.64,21.1,1.56,4.09,5.73,15.85,9.19,18.32ZM195.81,89.41c-6.86-9.49-28.37-18.86-40.05-17.93L161.3,73c21.46,5.1,31.3,16,34.51,16.47ZM122.64,68.55,145.37,66c1.48.11,2.14,1.92,6.58-1.15C143.2,64.87,129,64.16,122.64,68.55Z"/><path class="cls-2" d="M183.06,66.71c-3.21-4.52-13.65-7.7-19.16-7.1C164.5,60.08,181.14,66.24,183.06,66.71Z"/><path class="cls-2" d="M195,292.15l-13.63-10.77C182.38,287.35,189,290.7,195,292.15Zm-64.12-79.72c.9-1.39,1.89-8.55,2.55-11.18.93-3.7,2.6-7.1,2.93-10.8C132.68,194.59,130.87,206.24,130.87,212.43Z"/><path class="cls-2" d="M102.5,103.36l-2.75,5.51,10.09-9.16c-4.79.42-3.89,1.4-7.32,3.68Z"/><path class="cls-2" d="M164.75,259.17a12.4,12.4,0,0,0,2.74,7.49C169,264,167.3,261,164.75,259.17Zm-5.48-23.35h-.91c-1.18,3.29-1.61,4.88,1.76,5.7Zm.22-30.82a14.3,14.3,0,0,0,2.35-8A9.75,9.75,0,0,0,159.49,205ZM123.58,90.72c.57,1.26-1.29,2.55,3,1.21a14.23,14.23,0,0,0,3.32-2l-6.3.85ZM260.91,300.4h2.74l2.74-.9v-.91c-3.59.08-3-.38-5.48,1.84Zm-47.61.9,4.49-.08-6.33-1.72ZM175.74,96c-2-1.75-2.05-2.33-4.49-1.15ZM211.46,299.5,206,297.66C208.44,299.85,207.9,299.41,211.46,299.5ZM142.76,88.72l5.46-.27-5.46-.69Zm58.61,24.73c-3.81,0-1.78-.33-3.67.9C201.51,114.32,199.48,114.68,201.37,113.45ZM171.16,71.31c-1.89-1.23.14-.9-3.67-.9C169.38,71.64,167.35,71.31,171.16,71.31ZM136.38,190.42l1.83-3.64-1.67,1Zm31.11-120c-.93-.6.36-1.78-2.66-.22Zm-50.36,0c.88.88,2.88-1.15,1.07-.49C118.18,69.89,115.87,69.15,117.13,70.38Zm5.51-1.83-2.68.13C123,70.33,121.58,69.23,122.64,68.55ZM91.5,120.79l.91-1.83H91.5Zm.91-1.83.93-1.84h-.93Zm1.83-2.74.91-1.84h-.91ZM117.13,75v.93l1.84-.44ZM234.6,138.12l.79-3.56c-.25.19-.46.21-.49.54ZM142.76,280.25l.25.82.69-.52ZM97.92,110.71l-.85.24.52.66Zm49.45,66,.82-.25-.52-.66Zm17.38,82.48-.22-.85-.68.52Zm31.14-143.89-.82.25.52.66ZM139.12,184l.82-.22-.52-.69Zm61.35,110.91.24.82.66-.52ZM177.58,97l.25.83.65-.53Zm-81.5,16.48.82-.22-.52-.69ZM266.39,298.56l.85-.22-.52-.68ZM142.76,280.25l-.21-.85-.69.52ZM191.31,82.31l.25.82.66-.52Z"/><path class="cls-2" d="M109.82,99.71l.84-.24-.54-.66Zm-32-1.83.82-.25L78.07,97Z"/><path class="cls-2" d="M140,182.2c.09.08.28-.39.28-.28s.11-.11.11-.11S138.79,181,140,182.2Zm22,13.73c.08.08.27-.38.27-.27s.11-.11.11-.11S160.77,194.7,162,195.93ZM62.2,137.27c.08.08.27-.38.27-.28s.11-.1.11-.1-1.61-.85-.38.38ZM238,142.78l1-1.65Zm-99.81,44,.91-2.77Zm-44-70.56-.9.9Zm103.49-1.84-1.84.9Zm-101.65-.93-.93.93Zm2.74-3.65-.9.91Zm.91-.93-.91.93Zm101.64,4.58,1.84-.41ZM184.9,67.64l-1.84-.93ZM177.58,97,175.74,96ZM141,276.58l.41,1.84Zm9.15,2.74-.44-1.84ZM186.73,68.55l-1.83-.91ZM151,280.25l-.91-.93Zm22-208-1.84-.91ZM179.42,75l-1.84-.9Zm17.4,218.12-1.83-.93Zm-21.08-220-2.74-.9ZM198.63,294l-1.81-.91Zm1.84.93-1.84-.93ZM177.58,74.06l-1.84-.94Zm26.56,222.67-1.67-1ZM191.31,82.31l-2.74-1.84ZM206,297.66l-1.84-.93ZM188.57,80.47l-.93-.93Z"/><path class="cls-2" d="M62.2,140.94l1-1.64Z"/></g></svg>