<svg xmlns="http://www.w3.org/2000/svg" viewBox="0 0 400 400"><defs><style>.cls-1{fill:#f6df19;}</style></defs><g id="Git"><circle class="cls-1" cx="200" cy="200" r="200"/><path d="M342.82,186.77,213.2,57.16a19.16,19.16,0,0,0-27.06,0l-26.86,26.9,34.14,34.14a22.74,22.74,0,0,1,28.78,29l32.88,32.9A22.73,22.73,0,1,1,241.43,193l-30.79-30.62v80.71a22.76,22.76,0,1,1-26.24,4.33,23.46,23.46,0,0,1,7.49-5v-81.5a22.28,22.28,0,0,1-7.42-5,22.65,22.65,0,0,1-4.9-24.85L146,97.34,57.14,186.16a19.25,19.25,0,0,0,0,27.08L186.77,342.83a19.11,19.11,0,0,0,27,0l129-129a19.11,19.11,0,0,0,0-27"/></g></svg>